<svg xmlns="http://www.w3.org/2000/svg" viewBox="0 0 412.4 210.4">
  <defs>
    <style>
      .cls-1 {
        fill: #fff;
      }
    </style>
  </defs>
  <title>Asset 1</title>
  <g id="Layer_2" data-name="Layer 2">
    <g id="Revised_Tree_022619" data-name="Revised Tree 022619">
      <g>
        <rect class="cls-1" x="42.2" y="168.4" width="370.2" height="3.15"/>
        <rect class="cls-1" x="42.2" y="207.2" width="370.2" height="3.15"/>
        <g>
          <path class="cls-1" d="M90.2,198a14.8,14.8,0,0,1-8.8,3c-7.8,0-11.7-5.3-11.7-10.6s4-10.9,12-10.9a14.9,14.9,0,0,1,7.1,1.8v4.1a12.5,12.5,0,0,0-6.7-2.1c-4,0-7.2,2.3-7.2,6.9a6.8,6.8,0,0,0,7,7,9.6,9.6,0,0,0,6-2.4Z"/>
          <path class="cls-1" d="M124.3,190.3c0,5.3-4,10.7-11.8,10.7s-11.7-5.4-11.7-10.7,4-10.8,11.7-10.8S124.3,184.9,124.3,190.3Zm-18.2-.1c0,3.5,2.2,7,6.4,7s6.5-3.5,6.5-7-2.1-6.9-6.5-6.9S106.1,186.8,106.1,190.2Z"/>
          <path class="cls-1" d="M156.2,200.7v-7.3l.5-6.5h-.1l-5.9,13.8h-2.8l-5.8-13.8H142l.4,6.5v7.3h-4.8V179.8h5.2l6.5,15.3h.1l6.5-15.3h5.2v20.9Z"/>
          <path class="cls-1" d="M193.9,200.7v-7.3l.5-6.5h-.1l-5.9,13.8h-2.8l-5.8-13.8h-.1l.4,6.5v7.3h-4.9V179.8h5.3l6.5,15.3h.1l6.5-15.3h5.2v20.9Z"/>
          <path class="cls-1" d="M230.8,193.6c0,4.5-3.5,7.4-8.9,7.4s-9-2.9-9-7.4V179.8H218v12.9c0,3.2,1.8,4.5,3.9,4.5s3.9-1.3,3.9-4.5V179.8h5Z"/>
          <path class="cls-1" d="M265,200.7h-4l-11.2-14h-.1l.3,5.4v8.6h-5V179.8h4l11.2,14h.1l-.3-5.4v-8.6h5Z"/>
          <path class="cls-1" d="M284.2,200.7h-5V179.8h5Z"/>
          <path class="cls-1" d="M313.8,183.6h-5.9v17.1h-5V183.6h-6v-3.8h16.9Z"/>
          <path class="cls-1" d="M331.6,200.7h-5V179.8h5Z"/>
          <path class="cls-1" d="M359.9,200.7H345.8V179.8h13.5v3.8h-8.5v4.8h7v3.8h-7v4.6h9.1Z"/>
          <path class="cls-1" d="M380.2,201a14.5,14.5,0,0,1-7.6-1.9V195c3.7,1.7,5.4,2.2,7.3,2.2s2.9-.6,2.9-2-2.3-2.4-3.5-3.1c-2.8-1.5-6.3-3.3-6.3-7s2.6-5.6,7.1-5.6a12.8,12.8,0,0,1,6.1,1.5v4.1c-3.3-1.6-4.8-1.8-5.9-1.8s-2.3.8-2.3,1.8,3.9,3.2,5.7,4.1,4.4,2.6,4.4,5.8S384.1,201,380.2,201Z"/>
        </g>
        <g>
          <path class="cls-1" d="M214.5,89.8H170.3V24.7h42.5V36.6H186.1V51.4h21.7v12H186.1V77.8h28.4Z"/>
          <path class="cls-1" d="M257.8,89.8H219.9V33.5h13.6v46h24.3Z"/>
          <path class="cls-1" d="M313.6,89.8V70.1l1.1-17.6h-.2L298.7,89.8h-7.5L275.3,52.5h-.1l1.1,17.6V89.8H263.2V33.5h14l17.7,41.2h.1l17.7-41.2h14V89.8Z"/>
        </g>
        <path class="cls-1" d="M128.3,161.9c-6.9,0-16.1-1.4-23.7-5.9V143c11.8,5.5,17.1,6.9,23,6.9s9.1-1.8,9.1-6.3-7.4-7.5-10.9-9.6c-8.9-4.7-19.9-10.3-19.9-21.9,0-8.3,8.2-17.4,22.3-17.4a39.8,39.8,0,0,1,19.1,4.7V112c-10.3-4.8-15.2-5.4-18.5-5.4-5.4,0-7.1,2.4-7.1,5.5,0,5.5,12,10,17.7,12.9s13.7,7.9,13.7,18C153.1,156.1,140.5,161.9,128.3,161.9Z"/>
        <path class="cls-1" d="M198.3,114.8h-16v45.9H168.7V114.8H152.8V104.4h45.5Z"/>
        <path class="cls-1" d="M251.4,160.7H234.9l-13.3-22.4h-4v22.4H204V104.4h24.5c11.5,0,16.9,8.8,16.9,17a17,17,0,0,1-9.9,15.5l8.6,14.6c2,2.8,4,3.1,5.7,3.1h1.6Zm-27.1-45.9h-6.7V128h6.7c6,0,7.7-3.6,7.7-6.6S230.3,114.8,224.3,114.8Z"/>
        <path class="cls-1" d="M294.4,160.7H256.3V104.4h36.6v10.4h-23v12.8h18.8v10.3H269.9v12.5h24.5Z"/>
        <path class="cls-1" d="M338,160.7H299.8V104.4h36.7v10.4h-23v12.8h18.7v10.3H313.5v12.5H338Z"/>
        <path class="cls-1" d="M394.1,107.6H375.7v53.1H360V107.6H341.6v-12h52.5Z"/>
        <g>
          <g>
            <path class="cls-1" d="M71,4l.5-.4h0c-.1-.2-.1-.3-.2-.4s-.1-.4-.2-.4-.2-.2-.3-.1-.4.3-.6.3-.4-.5-.4-.9a1.1,1.1,0,0,0-1.1.2h-.2c-.2,0-.3,0-.3.1h-.1a1.3,1.3,0,0,0,.1.6h0v.2c.1.1.1.1.1.2h.1c0,.1,0,.2.1.2s.3.3.4.4,1.1.9,1.5.9Z"/>
            <path class="cls-1" d="M65.4,6.7a.1.1,0,0,0,.1-.1h.2a2.1,2.1,0,0,1,1.1-.1c0-.8.3-2.5-.5-3.1s-.9-.3-.5-.8,1.2-.1,1.6-.1.1-1.4-.3-2a1.1,1.1,0,0,1-1,.3L64.8.2A1.3,1.3,0,0,0,63.6.1l-.7.6h0l-.3.2,1,.4.5.2c.1,0,.2,0,.2.1a.5.5,0,0,1,.1.8h0c-.1,0-.1,0-.1.1h-.1c-.1.2-.4.3-.6.4l-.4.3a1.7,1.7,0,0,0,0,1.2h0l.6.4.5.2a.3.3,0,0,1,.1.2v.6c0,.2,0,.5.2.6s.1.3.3.2l.4-.3Z"/>
            <path class="cls-1" d="M20.5,61.6a5.8,5.8,0,0,0-2.9-.6,2,2,0,0,0,.1,1.3,2,2,0,0,0,.4.8h0a1.5,1.5,0,0,0,1.1.3c.8,0,.3-.1.4-.6s1.1-.6,1.2-.9A.5.5,0,0,0,20.5,61.6Z"/>
            <path class="cls-1" d="M57.8,2.2c-.4.4-.6.9-1.3.8h-.1c-.1-.1-.2-.1-.2,0s-.2.2-.3.3a3,3,0,0,1-.4.8h0l-.4.2c-.2,0-.5-.2-.8-.1h-.1c-.4.2-.3,1.2-.3,1.7h.8c.3.1.3.5.5.6l.3.2h.1l.5-.2h.2c.2-.2.2-.5.3-.8s.1-.6.6-.9l.3-.3h0l.2-.2h0a.2.2,0,0,0,.2-.2A1.3,1.3,0,0,0,57.8,2.2Z"/>
            <path class="cls-1" d="M42.1,8h.1c.6-.2,1.5-.6,1.8-.3s.2.4.3.5h.5c0-.5-.2-1.6.2-1.9s1.3-.1,1.9-.1h0c0-.4.3-.4.5-.6h.2a.8.8,0,0,0,0-.7c-.1-.4-.3-.8-.4-1.1s-.2-1-.7-1l-.6.4c-.3.1-.5.3-.5.4s-.1.5-.2.7-.1.1-.1.2H45c-.1.1-.2.2-.2.3h-.1c-.3.4-.8.7-1.1,1.1s-.9.1-1.4.3-.2,0-.2.1S42,7.8,42,8Z"/>
            <path class="cls-1" d="M57.9,48c0,.1-.1.2-.1.4h0c0,.1.1.2.1.3h0c0,.1,0,.2.1.2h0c0,.3.1.5.1.8s.1,0,.1.1h0v.3l.8-.3h.3a.1.1,0,0,1,.1-.1h0v-.2h0v-.2h-.1V49h0a.1.1,0,0,1-.1-.1h0a.3.3,0,0,1-.1-.2h0l-.4-.6-.4-.2Z"/>
            <path class="cls-1" d="M50.2,1.4,48.9,2V3.9c.8,0,1.2-.9,1.5-1.7h0a.1.1,0,0,1,.1-.1C50.7,1.6,50.9,1.2,50.2,1.4Z"/>
            <path class="cls-1" d="M145.7,66.1h0a.4.4,0,0,0-.1-.3h0c0-.1-.1-.1-.1-.2h0a.1.1,0,0,1-.1-.1h0a2.3,2.3,0,0,0-1.4-.9h-.3c-.1,0-.1,0-.1.1h0c0,.2.2.3.3.4a2,2,0,0,0,.5.5l-.5.3h-.5c-.5.4-.7,1.2-1.2,1.7h-.4c-.1-.5-.2-.8-.7-.8h-.4l-.7.4h0a.4.4,0,0,0-.1.5h.1l.5.7v.4h0v.2c0,.2-.5.7-.4.9h1.8c.2.1.1.6.1.9v.3h0c0,.1,0,.1.1.1h.6c.2-.1.4-.1.5-.3h.3a2.5,2.5,0,0,0,.2-1.2c.1-.9.4-.4,1-.7a1.6,1.6,0,0,1,.5-1.1h.7A10.1,10.1,0,0,0,145.7,66.1Z"/>
            <path class="cls-1" d="M83.5,4.4c-.3-.3-.6-.3-.7-.7s-.1-.7-.2-1h0a.4.4,0,0,0-.1-.3A3.7,3.7,0,0,0,82.1.8,1.2,1.2,0,0,0,81,.3a.8.8,0,0,0-.8.4h-.1a1.7,1.7,0,0,0-.1.7c0,.3,0,.5-.1.5s-.7-.5-.9-.4-.2.3-.2.5h0a2.1,2.1,0,0,1-1.6-1,.1.1,0,0,0-.1-.1c0-.1,0-.2-.1-.1h-.5a1.1,1.1,0,0,0,.1,1.1,2.7,2.7,0,0,0,.8,1c.2.3.1.3-.1.6v.2a.8.8,0,0,0-.2.5c.3,1,1.6.4,2.2.2l-.2.2h0c-.1,0-.1.1-.2.2s-.1.1-.4.1h-.2c-.2-.1-.5-.2-.7,0h0V6h-.2c0,.1-.1.1-.1.2v.2h.1c.1.2.4.3.3.5h-.4c-.2-.2-.4-.4-.4-.6h0a.1.1,0,0,1-.1-.1,1.6,1.6,0,0,1,.2-1h-.5c-.6.1-.9,1-1,1.5a4.3,4.3,0,0,0,0,1.6l.3,1.1.2.3.2.3h0c.1.1,0,.2,0,.3h-.8c-.2.7.7,1.5,1.2,1.8h0c.1-.3.1-.7.2-1.1h.1a1,1,0,0,1,.6-.8h1.4a1.4,1.4,0,0,0,.2-.7l.2-.3a3.9,3.9,0,0,1,.6-1.5h0c.2-.1.3-.3.5-.3s.6.3.9.4h.8a1.6,1.6,0,0,1-.2-1.5c.1-.4.1-.3.5-.3h1C83.1,5.7,84.3,4.9,83.5,4.4Z"/>
            <path class="cls-1" d="M81.6,33.8h-.5l-.4-.2h-.1a.1.1,0,0,1-.1-.1h-.1v-.2c-.1-.2,0-1.2-.1-1.4H78.7l-.7-.2q-.3-.2-.3-.3h0a.3.3,0,0,1,.4,0l.6.2c.3-.1.2-.7,0-.9H77.3c-.5.3,0,.8,0,1.3s-.5.1-.8-.1h-.2a.2.2,0,0,0-.3,0h0V32c.1.4.6.7,1,.9l.6.3a5.4,5.4,0,0,1,2.4.9c-.1.4-.4.4-.6.6s.4.5.9.3h.1l1.3-.4c.1-.1,0-.8,0-.8Z"/>
            <path class="cls-1" d="M104.8,6.9h-.1a.1.1,0,0,0-.1-.1h0a3.3,3.3,0,0,0-2.6.3,14.3,14.3,0,0,0,1.5,2.7l.6-.6h.8l-.3-1c-.1-.5-.1-.8.4-1.1l-.2-.2Z"/>
            <path class="cls-1" d="M89.6,5.4h0c-.1-.1-.1-.1-.1-.2a2.3,2.3,0,0,0-.7-1c-.5-.3-.4-.6-.4-1.2s0-.5-.6-.5l-.8.2c-.5-.1-.3-1-.4-1.4S86,.6,85.7,1s-.3.9-.3,1.3.4,1.1.2,1.3-.1.1-.2.2h-.1a1.2,1.2,0,0,0-.8.2,15.5,15.5,0,0,0-.1,2.2V7a.7.7,0,0,0,.1.5h.3a1.2,1.2,0,0,0,.9-.8l.2-.4.3-.8h1.4c.9.1.6.2.5.8s.7.6,1.1.5.4,0,.4-.2V5.9h0V5.4Z"/>
            <path class="cls-1" d="M109.6,6.7h-1.1a.5.5,0,0,1-.4-.2h-.2c-.2-.2-.2-.6-.4-.9h-.1V4.8h-.7a3,3,0,0,0-.3,1.6v.9h.1c0,.5-.5.3-.9.2h-.2a19.3,19.3,0,0,0-.1,2.4.7.7,0,0,1-.1.5v1h.2l.2-.3h.1l.7-.3h.2c.1-.1.1-.2,0-.2h0V9.8c0-.2-.1-.4,0-.5h0V9h.9c.1,0,.1-.1.2-.2l.3-.3h.3l.2.2v.8h.1a.2.2,0,0,0,.4.1h.1a1.3,1.3,0,0,0,.4-.7h0c0-.2-.1-.3-.1-.4s-.1-.3-.1-.4,0-.1.2-.3l.5-.3C109.8,7.3,109.8,7,109.6,6.7Z"/>
            <path class="cls-1" d="M38.4,42.1h-.8l-.8.3c-.1.1-.1.4-.2.6h-.8l-.6.3a.2.2,0,0,0,0,.3h.5q.4-.1.3.3v.5a10.9,10.9,0,0,1-.1,1.8c.5-.4,1.8.2,2.2-.4a.2.2,0,0,0,0-.3h0l.3-.4h-.1c0-.1,0-.1-.1-.1h0c.2-.4.4-.6.1-.9h0c-.2-.2-.4-.2-.4-.5a.5.5,0,0,1,.3-.3c.1-.2.3-.4.3-.6A.2.2,0,0,0,38.4,42.1Z"/>
            <path class="cls-1" d="M43.3,46.8a.4.4,0,0,1,.1.3h.1c.1.2.1.5.2.8l.3,1,.2.3h.3c.5,0,.6.3.9.4a.3.3,0,0,0,.4,0h0a1.2,1.2,0,0,1,.4-1.7h.5c.1,0,.1.1.1-.1s-.1-.6-.2-.7a1.4,1.4,0,0,0-.8-.5c-.9-.2-1.9.1-2.4-.9s-1,.9-1.6.5a.6.6,0,0,0,0,.7,1.1,1.1,0,0,0,.8.1C43,46.5,43,46.4,43.3,46.8Z"/>
            <path class="cls-1" d="M74.3,2.1h0A4,4,0,0,1,73.5.5a3.3,3.3,0,0,1-1.7.4c-.1,1.7,2,2.5,3.1,3.2a3.9,3.9,0,0,0-.4-1.8Z"/>
            <path class="cls-1" d="M58.6,4.9l.8.6h.8c.2-.1.1-.7.1-1a9.7,9.7,0,0,0-.8-2.2h-.2c-.1,0-.2,0-.2.1h0c-.1.1-.1.1-.1.2h-.1a.1.1,0,0,1-.1.1h0v.2h-.1v.2h0c0,.1-.1.1-.1.2h0c0,.3-.1.5-.1.7h0Z"/>
            <path class="cls-1" d="M72.3,6.9l-.6-.4-.8-.8h-.1l-.5.3a1,1,0,0,0-.4.7c-.1.1-.1.1-.1.2H70l.4.4v.2h0l.2.4H71a1.1,1.1,0,0,0,.8-.2h0l.5-.4.2-.3C72.5,7.1,72.4,7,72.3,6.9Z"/>
            <path class="cls-1" d="M74.7,8V7.7h0V7.5h0V7.2h0V6.9h0V6.6a.1.1,0,0,0-.1.1h-.2a.1.1,0,0,0-.1.1h-.1a1,1,0,0,0-.4.5h0v.2h0c-.1.1-.1.1-.1.2h0v.6c.1.3.1.2.3.4h.1l.5.3h.3c.1,0,.1-.2.1-.5a.8.8,0,0,0,0-.7Z"/>
            <path class="cls-1" d="M48.7,76.6h-1c-.4.1-.5,0-.7-.3h-.1l-1.6-1.8c.8-.3,1.8-.3,1.5-1.5H45.6l-1.1.5h-.1c-.1.3.1,1,0,1.2V75c-.2.3-.4,0-.6-.2a.5.5,0,0,0-.4-.2h-.1a.4.4,0,0,0-.1.3h0c-.2.3-.6.5-.7.8h.9a.1.1,0,0,0,.1-.1h0a2.6,2.6,0,0,1,.9,1.2A1.8,1.8,0,0,0,45.6,78c0-.3-.1-1,.2-1.2l.5.5.5.2H47c.2,0,.3-.2.4.1s-.3.3-.4.5h-.1c-.2.4.3.4.7.4h.2c.4-.1.6-.3.6-.5h0v-.5c.1-.1.3,0,.4.2l.4.2.3-.2C49.7,77.3,49,76.8,48.7,76.6Z"/>
            <path class="cls-1" d="M105,75.3h-.1c0-.1,0,0-.2-.1h-.2c-.1,0-.1-.1-.1-.2h0v-.3c0-.3.1-.5,0-.7h-.3l-1.3-.6H102c-.2,1.2.7,1.3,1.6,1.4l-1.5,1.7H102l-.3.4h-1.2a1.5,1.5,0,0,0-.8.4h-.4c0,.2.1.2.1.3s.8-.3,1-.4,0,.4,0,.5h0v.2c.2.2.5.2.7.3h.7a.4.4,0,0,0,.1-.3h-.2c-.2-.2-.4-.2-.3-.6s1.2-.3,1.7-.6V78h.3a.1.1,0,0,0,.1-.1h.2a2.7,2.7,0,0,0,.7-.8.8.8,0,0,1,.2-.4l.3-.7v-.5Z"/>
            <path class="cls-1" d="M68.4,73.7c-.4-.2-1.1.3-1.5.5s0-1.1-.7-1.1H66l-.3.2H65c-.3.2.1,1.1.2,1.3a3.2,3.2,0,0,0,1.3,1c.3.2.5.4.8.3h.4a1.6,1.6,0,0,0,1.1-1A1.2,1.2,0,0,0,68.4,73.7Z"/>
            <path class="cls-1" d="M99.5,41h.3a.1.1,0,0,1,.1.1h0v.2h-.3a.1.1,0,0,0-.1.1h0c0,.1,0,.1-.1.1h0c0,.1.1.2.3.2h.9c.5-.3.4-.6.3-1.1s.6.6.9.5.2-.1.2-.2-.1-.5-.3-.6-.3-.4-.5-.5a2.8,2.8,0,0,0-1.3,0l-2.1-2.4c.4-.1,1-.1,1.3-.4s.5-.8.3-1a.1.1,0,0,0-.1-.1l-.5.2-.7.3H98l-.3.2h-.1a.1.1,0,0,0-.1.1h-.2c-.4.2-.3.4-.3,1v.5c-.1.1-.2.2-.4.1l-.3-.3h0c-.3-.2-.5-.2-.5-.1s.2.6.4.8h0a.1.1,0,0,1,.1.1l.2.3h0c.5.8.7,1.7,1.7,2V40.3c.4.1.7.6,1.2.7Z"/>
            <path class="cls-1" d="M140.9,89.1h0Z"/>
          </g>
          <path class="cls-1" d="M147,73.1c-.5-.2-.4-.7-.7-.9s-1.4.3-1.7.6a4.4,4.4,0,0,1-1.5.8c-.6.2-.9-.2-1.5-.3a2.3,2.3,0,0,0-1.8.3c-.5.4-.5.7-.7,1.4s-1.9-.7-2.4-1.6-.4-2.3-1-3.4c1.6-.8,3.2-2.1,2.2-4a2.7,2.7,0,0,1-2.2,2.1,3.5,3.5,0,0,0,0-3c-.3.2-.5.5-.8.4a2.1,2.1,0,0,0,.4-1.1c0-.4-.1-.8-.1-1.2a.9.9,0,0,0,1.3-.3c.4.5.9.4,1.5.4s1,.2,1.5.1.6,0,.5-.5l-.5-.7a9.1,9.1,0,0,1-1.3-.8c-.5-.5.1-2.4-1.2-1.8s-1,2.2-1.2,3a3.1,3.1,0,0,1-.7-.9l-.3-.5-.6.2-.8.7c-.2.2-.2.2-.2.4s.2.3,0,.6l-1.7-.7c-.4-.2-.2-.4-.2-.8s0-.6-.4-.6a7.8,7.8,0,0,0-2.1.4c-.7.2-1,.6-.3,1s.4.2.5.5a2.1,2.1,0,0,1-.1,1.1,1.4,1.4,0,0,1-.5.8h-.8c-.6.1-.5.7-.6,1.3s0,1.3-.5,1.6a1.2,1.2,0,0,0-.6-.8h-.5c-.4-.2-.4-.3-.6,0a2.2,2.2,0,0,0,0,1.4c.1.3.4.5.1.9s-.6.3-.7,0a2.4,2.4,0,0,1-.3-1.2c0-.2.1-.5,0-.7v-.3l-.3-.2c-.1,0,0-.5.1-.6s.3-.1.6-.2.2-.2.2-.6V65h.1c.2-.1.5.3.7,0a1.2,1.2,0,0,0-.7-1.8c-.3,0-.8-.2-1,0s-.8-.4-1.1.7v.7c.1.8.4,1.3.1,1.6s.4,2.1.4,2.1-.9.1-1.2.5-.3,1.1-.9,1.1-.5-.6-.5-.6.5-.9,1-.9.3-.9.3-.9l-1.3-.2c-.5,0,.5-1.1.5-1.1s-.3-.5-.8,0l-.9.8a1.4,1.4,0,0,0,.4.8c.2.3-.3.9-.3.9a2,2,0,0,0-.9.5c-.5.4-.1.5-.8.5s-.4-.8-.4-.8l.6-.2a9,9,0,0,0,.3-1.9c0-.9-.5-.8-.5-.8s0-.9.3-1.2.6-1.2,1.3-1.2.3-1.2.3-1.2a.6.6,0,0,1-.5-.3c-.2-.2,0-1.8,0-1.8a4.3,4.3,0,0,1,3.3-1.7v1.1a3.1,3.1,0,0,1-1.2.4c-.5,0-.1,1.9-.3,2.9s1.1-.1,1.7,0-.9-1.5-.7-2.1,1.3-.7,1.7-1.3.1-.3.2-.4.1-.2.5-.1l1.4.2.6-.2-.3-.8s-.8-.2-.6-.3-.3-.5-.6-.8a1.4,1.4,0,0,1-.8.7c-.7.3-1.1.1-1.1-.5s.5,0,.5,0,.7-.3,1-.7a1.3,1.3,0,0,0-.9-.4c-.7,0-.4-1.1,0-1.1s1.3-.8,1.3-.8l.2-.6c.3-.5,1.7,0,2.1,0s.6.9.6.9,0,.3.5.3,0,1.4,0,1.4l-.5.6a6.8,6.8,0,0,0-.4,1.3,9.4,9.4,0,0,1-.3.9c.2.1.3.2.5.1s.4-.5.6-.7,1-.3,1.4-.3.4.1.6-.2a2.1,2.1,0,0,0,0-.8c.1-.2,0-.6.1-.7s.5-.4.6-.5,1.8-.2,1.8-1.2a8.9,8.9,0,0,1,.3-2.8c0-.1.3-.5.3-.6s-.2-.3-.2-.4-.2-.5-.4-.6l-.5-.3c-.2-.4.1-1.2.6-.7s.1.7.6.5.5-1,.5-1.4a1.1,1.1,0,0,0,0-.8h-.8l-.6.2c-.5.1-.5,0-.6-.4s-.2-.7-.6-.8-.6.6-.7,1a8.9,8.9,0,0,1-.8,1.7c-.2-.4-.6-1-.8-1.5s.1-.6,0-.9-.4-.1-.7-.1a.9.9,0,0,1-.9-.1c-.2-.1-.6-.6-.8-.5s-.4.5-.5.9v.8c0,.6-1,.6-1.4,1a9.5,9.5,0,0,1-2.6,1.6,9.2,9.2,0,0,0-2.5,1.7l-1.1,1.1-.6-.8s.3-1.3.5-1.3a2.6,2.6,0,0,0,.9-.4,7.3,7.3,0,0,1,2-1c.5,0,1.1-1.3,1.1-1.3s-.5-.2-.7,0-1.2.2-1.7.7-1.2.7-1.1.5,0-.8,0-.8a5.4,5.4,0,0,1,1.1-.6,12,12,0,0,0,2-1.1l1.2-.9a.6.6,0,0,0,0-.6c0-.2-.1-.5,0-.6s1.4.2,1.8.3.5-.2.6-.6a3.8,3.8,0,0,0,.1-1c0-.6-.1-1.3-.8-1.3s-.3,1.4-1.1,1.6V42.6c-.1-.3,0-.3-.4-.3h-2.1a2.9,2.9,0,0,0,1.3-2.4,1.9,1.9,0,0,0-.2-.7c-.1-.4-.1-.3.3-.5s.5-.2.4-.6.3.4.5.5.7-.3.9-.4.1-.1.2-.5,0-.4,0-.6,0-.5-.3-.6a3.2,3.2,0,0,0,.6-1.7c0-.6-.2-1.3.6-1.1s.8.2.7-.4a3.6,3.6,0,0,1,.1-2.3c-.4-.1-1-.2-.9-.7s.2-.2,0-.5-.2-.2-.4-.3H124c-.4-.1-.2-1.1-.4-1.3s1.7-.6,2.6-.6.8.2.7-.5-.3-.8-.2-1.3-1,0-1.1-.9-.1-.5-.2-.6h-.5c-.3,0-1-.2-1.1-.5s.4-.8.5-1a3.2,3.2,0,0,0,.3-1.4,2.4,2.4,0,0,0-.9-1.8c.2-.1.6-.1.7-.3s-.2-.5-.3-.6a2.2,2.2,0,0,1-.2-1.1v-.6h-.6l-1.2-.2h-.7c-.3,0-.2.1-.4-.1a.4.4,0,0,1,0-.5c0-.5.4-.9-.2-1.1a4.1,4.1,0,0,0-2.2-.1h-1.1l-.5-.2c-.3-.1-.4-.2-.5-.1s-.2.8-.2,1.1v.6c.1.2.1.1.3.2s.3,0,.5.2l.3.9h-.6c.2.4.5.8.3,1.3s-.5.6-.7,1.1-.2.3.2.4l.6.2c.4.3.4.6.8.2s.2-.4.4-.6.1-.1.5,0l.6.2c.4.1.3.1.5-.2s.2-.8.6-.9.6.6.7.9-.7.1-.8.3a1.5,1.5,0,0,0-.1.9c0,.4,0,.3-.1.5l-.3.4a.9.9,0,0,0,0,.7l.6.9c.2.2.4.3.3.5s-.4.4-.5.5-.6.7-.9.6-.2-.7-.2-.9.5-1.6-.2-1.9-1.2.4-1.4.8.5,2.4,1.5,2.7c-.6.7.1,1.3-.2,2.1a12,12,0,0,0-2.1-.9c-.7-.1-.8.7-.7,1.2a.9.9,0,0,0,1,.8c.3,0,.2-.1.4.1l.3.3a1.5,1.5,0,0,1,.2.9c-1-.4-1.6-1.2-2.8-1.2s.5-1.4.2-1.9a.8.8,0,0,0-.6-.4c-.5-.1-.4.1-.6-.3s-.1-.5-.3-.7-.4-.3-.3-.7,1.1-1.2.2-1.3-1.1.7-1.4.2a1.1,1.1,0,0,1,.1-.8c.1-.3.2-.7.5-.5s.1,1.2.9.6.5-1.3.7-1.9-2.5-.6-3,.1,0,1.1-.1,1.6-.4.9-.7.3,0-.8-.1-1.1-.3-.4-.2-.7l.2-.3c.3-.2.8.1,1.1-.1s-.3-.6-.6-.7h1.1c.1-.3-.4-.7-.5-.8s-.6-.3-.7-.7v-.6c-.2-.2-.4,0-.6.1a.6.6,0,0,1-.5.3c-.1.1-.3,0-.4.2s.2.5.2.7-.3.4-.5.2-.2-.6-.4-.8-.2,1.7-.3,2.4-.2.7-.5.7-.5-.5-.6-.7a5,5,0,0,1-.3-2.4c0-.3.1-.8-.1-1s-.6-.2-.8-.3a2.1,2.1,0,0,1,2.6-1.6,2.9,2.9,0,0,0,0-1.3c-.1-.3-.6-.8.2-.6s1,.4,1.3.2-.1-.7-.2-1,3,1.4,3,.9-.7-.4-1-.6a15,15,0,0,1-1.1-1.3c.7-.2,1.6-1.4,1.3-2.1s-1.9-.7-2.8-.6.6.7.5,1.1-.8.7-1.2.8l-1.6.5h-.8c-.3.1-.6.3-.8.2s.1-.8.2-1.1-.6.1-.8.1-.5-1.2-.9-1.4-.7.3-.8.5.1.7,0,1.1-.7.2-1.1.3-.2.2-.4.5-.1.4-.3.4-.5-.5-.4-.8.8-.7.8-.9-.7-.8-1-.9-1.9-.2-1.9.8a.9.9,0,0,0,.3.6c.3.3.6.4,0,.3a5.2,5.2,0,0,1-1.8-.2c-.7-.2-.6-.5-.7-1.1s-.6-1-.8-1.5l-1.1.9c-.2.3-.8.5-.9.9s.1,1.4.3,1.9c-1.5-.1-3.1.7-4.6,1.1.2.5.2,1.3.9.9s.2-.4.4-.4l.6.6c.1.6-.6.5-1,.7s-.5.4-.4.8A11.5,11.5,0,0,1,88,15.8l-1.1-.5-.7-.2c-.1,0-.2.5-.2.6s-.8,1.6.1,1.7.5-.1.7-.4,0-.4.4-.3h.7a3.4,3.4,0,0,0-.1,2c0,.3.2.7,0,1a1.6,1.6,0,0,1-1.1.5c-.4,0-.5-.2-.8-.4a1.1,1.1,0,0,0-.6-.3c-.5-.1-1-1-1.4-1.4l-.7-.9c-.1-.1-.6-.9-.8-.9s-1,1.1-1.2,1.3-.6.8-1.3.8-.6,1.2-1.2,1.7-.8.5-1,.4-1.4,1.1-2.1,1.1-.1-1-.4-1.9-.4-.8,0-1.2,1.1-.4,1.8.4l.2.4a3.8,3.8,0,0,1,.4-1.9,2.4,2.4,0,0,1,.6-.8c.2-.3.7-.4.5-.8s1.4-.2,1.6-.9-.7-.8-1.1-1.1,0-.8-.3-1.1-1-.5-.8-1.3a1.1,1.1,0,0,0-.9.6c-.1.2-.2.9-.3,1s-.7-.1-.9-.1-.5.3-.7.3a1.2,1.2,0,0,1-.7-.4c-.5-.3-.4-.3-.1-.8a.7.7,0,0,0,.2-.8c-.3.1-.6.4-.8.1s.1-.5,0-.7-.1-.2-.4-.2h-.9c.4-.5.7-1.8-.2-1.2s-.8,1.6-.9,2.4.8-.1.9.3a1.2,1.2,0,0,1-.3,1l-.4.3c-.2.2-.1.4-.2.5s-.1.3-.4.2l-.4-.2c-.4-.6.1-1.6-.6-2s-.6-.1-.6-.7a8,8,0,0,0,.3-1.5l-.7.5-1,.4c-.2-.9,1.3-1.3,1-2.2a.7.7,0,0,0-.9-.3l-.6.4-.9.3c-.1-.4-.1-.8-.6-1.1A2,2,0,0,0,65,7.4a6.1,6.1,0,0,0-1,.7c-.3.1-.4.1-.5.4a.7.7,0,0,0,.3.6l.8-1c0,.2.1.5.1.7s.1.2-.2.5-.3.1-.1.5.2.3,0,.6-.7.5-.3.9.9,0,1.2-.1-.7.5-1,.7-.5.6-.6.6-.5-.5-.5-.7a2.2,2.2,0,0,1-.1-.8c-.1-.5,0-.5-.5-.6s-1.1.8-1.6,1.1-.7.4-.7.8.1.4-.2.5-.5.1-.8.1.3-1.3.5-1.9-1.3,1-1.6,0,.6-.7.7-1.1V9.3c.1-.2,0-.3-.2-.3a1.3,1.3,0,0,0-.8-.3,1.1,1.1,0,0,0-1.2.4c-.2.4-.2,1.1-.8,1.1s.1-1.3-.5-.7-.8,1-1.4.5,1.1-1.7.5-2.2L54,7.6c-.2-.1-.2,0-.3-.3s-.1-.5-.6-.6.5-1.8.7-2.7a7.6,7.6,0,0,0-.1-3c-.2.1-.5.4-.8.2s-.1-.3-.2-.4H51.5a1.4,1.4,0,0,0-.2.6,6.1,6.1,0,0,0-.5,1.2c.5.1.9,0,1,.6s-.1.3.1.7.2.3.3.5-.1.3-.4.5l-.6.2a1.2,1.2,0,0,1-1.3-.4,2,2,0,0,0,1,2.2,1.7,1.7,0,0,0,1.2.1c.4-.1.3-.2.6,0a3,3,0,0,1,.4.8c.3.5.8.8.1,1s-.6,0-.7.6a2.2,2.2,0,0,0,.6,2.5c-1.2.1-1-1.4-2-1.5s-.8.4-.5.9.8.7.7,1.3-.3.4-.5.2-.1-.3-.2-.4,0-.3-.2-.2H50c-.9.5-1,1.9-2.1,2s.2-.8.4-1.2.3-.9,0-1.2l-.9-.3a1.7,1.7,0,0,0-1.2-.2c.1-1,.1-2.1.2-3.2a2.1,2.1,0,0,0-2.2,1.7c-.1.6.4,1,.4,1.6s-.4,1.2-.7.8-.1-.5-.2-.7-.2-.5-.3-.8a.4.4,0,0,0-.6-.3c-.4.1-.2,0-.4.4a2.7,2.7,0,0,1-.6,1.2,2.4,2.4,0,0,0-.7,1.3c-.2-.4-.4-1.2-1-1s.7,1.3.4,1.7-.8-1.2-1-1.3-.6-.3-.8-.1,0,.7-.2.8-.5-.1-.6-.3a2.5,2.5,0,0,1,.2-1.2c.1-.3.5-1.1.2-1.3s-.7.3-.9.5a2.8,2.8,0,0,0-.8,2c0,.8.4,1,1.1,1.2s-.8.2-1.2.4-.2,1.2-.2,1.6,0,.5.5.6.4.2.6,0,.3-.7.7-.9-.1,1-.2,1.3a1.7,1.7,0,0,0,.2,1.2c.3.8-.2,1.8.2,2.6s1.5.4,2.1.1,1.8-.5.9-1.4.7-.2.8-.5-.1-.5,0-.6.9.4,1,.4.2-.4.4-.6.7.1,1,.2,1.4.5,1.7,1.2.6-.8.9-.7.2.5.4.7a1.3,1.3,0,0,0,.9.2c.4.1.8.2.9-.4s.9,1.4,1,2.1a2.7,2.7,0,0,1,0,.9,2.6,2.6,0,0,0,.7,1,3.9,3.9,0,0,1,.8,1c.1.3.1.9.4,1s.5-.5.9-.4.3.6.5.7a1.6,1.6,0,0,1-1.8.5c0,.4.4.7.6.9s.3.5.6.5.5-.1.7-.1h1.2a.3.3,0,0,0,.3-.3,2.1,2.1,0,0,0-.4-1.7c.9.2,1.7.3,1.8-.8s0-.8.1-1.2a6.9,6.9,0,0,1,.7-1.5c.2.6.3,1.5,1.1,1.4a3.9,3.9,0,0,0-.3,2.1c0,.3.2.8.5.7s.4-.5.5-.7.1-.7.3-.9.6.1.8.2.5.4.9.1.2-.6.1-1,.5.7,1.1.7-.3-1,.3-1.3-.8-.9-.6-1.5a6.7,6.7,0,0,1,.7-1.8c.6.1.1,1,.5,1.3s.8,0,.6.4-.6.2-.7.5.3.4.5.6a1.6,1.6,0,0,1,.3.9c0,.4.1.5.5.4a1.4,1.4,0,0,0,1-.5c.3.6,0,1.3.9,1.2s1.1-.2,1.2-.6-.6-.5-.9-.5a3.2,3.2,0,0,1,1.1-1.2,1,1,0,0,0,1.1.8c.6-.1,1.1-.1,1.1.6h1.2l.8.4a1.1,1.1,0,0,0,1.2-.6c.3.5.7,1,1,1.6s-1.1-.3-1.6,0-.5.4-.7.6-.3.7-.6.4.4-1,0-1.2-1.2.7-1.3.9a1.3,1.3,0,0,0-.2,1.2c.1.4.2.2.6.2s.3,0,.4.3.1.5.5.5l.6-.2c.4-.2.5-.8.6-1.2s.4.8.8.7.2-.6.5-.7.8,0,1.1-.1a1.4,1.4,0,0,0,1-.5c.2-.3.2-.4.5-.2s.2.2.2.3-.2.8-.3,1.1a2.1,2.1,0,0,0-.2.6c.1.3.1.2.4.4a4.4,4.4,0,0,1,1.1.8c.5.3.9.3.8-.4s-.6-.7-.7-1.1.3-.5.6-.2.4.8.8,1.1a.6.6,0,0,0,1-.3c.1-.3.1-.2-.1-.6s-.1-.4-.2-.6.5-1.3,1.4-1.8v2.6c0,.3-.1,1,.2,1s.3-.1.4-.3,0,1.5-.1,2,1.4.1,1.6.7,0,.6,0,.9v1.2a1.8,1.8,0,0,1,.1,1l-.6,1.1c0,.3-.1.7.3.5a.6.6,0,0,0,.4-.6,1.7,1.7,0,0,1,.9,2l-.4-.3c-.2-.1-.4.1-.5.1s-.6-.8-1-.9a.4.4,0,0,0-.5.1c-.3.2-.1.2.1.5l.2.5c0,.2-.2.7,0,.7s.5-.1.8,0,.3.7.5,1,.8-.1,1.2,0,.5.7,1,.8l.3-.9a1.7,1.7,0,0,1,.8,1.8c-.1.3-1,1.7-1.2,1.1s.4-.6.2-.9-.8-.1-1.1-.1a6.7,6.7,0,0,1-2.3-1,7.6,7.6,0,0,1-.6,1.6,1,1,0,0,1-.5.4c-.3.3-.4.3-.1.6s.9.4.3.9-1,.4-1.3,1-.3-1.1.1-1.7a2.2,2.2,0,0,0,.6-1.5c-.7,0-1.3.3-1.9-.1a1.9,1.9,0,0,1-.7,1.4c-.2.2-.8.9-.9.2s.5-.8.7-1.1.1-.8-.3-1.2,1.6-1.1,1.4-2.2l-1,.2V37.5c0-.1.1-.4,0-.5s0,0-.2-.2-.3-.5-.5-.9-2.2.4-3,.2a10.9,10.9,0,0,0-.1,1.8,1.3,1.3,0,0,0-1.4.5c-.1.1-1.1.9-1.3.3s.9-.9,1-1,.3-.1.4-.4,0-.4,0-.6-.3-.6-.5-.6-.2.6-.3.9-.6.1-.7-.3-.2-1.2-.4-1.8S70.7,37,71,38s-2.2-.7-2.3-1.6,1.4-.9,1.6-1.8a2.1,2.1,0,0,0-2,.5,5.1,5.1,0,0,0-.9,1.6c-.3.6-.9.7-1.1,1.3a2.6,2.6,0,0,0,.4,2.1l1.2,2c.3.4.4.6.8.2a.7.7,0,0,0,.3-.6c0-.6-.8-1.6.1-1.5s1,.2.7-.3a1,1,0,0,0-.7-.2c.3-.3.8-1.1,1.3-.8s-.3,1-.1,1.4,1,.2.4.5-.4-.1-.6.1-.1.5-.1.7a4.4,4.4,0,0,0,1.5-.8l.8-.6c.4-.3.4-.4.9-.2l1.2.3c0,.1-.1.5-.1.6a.8.8,0,0,0,.2.5,6,6,0,0,1,.6,1.1,3.3,3.3,0,0,1,.1,1.4c1.1,0,.3-1.4.9-1.9s0,1,0,1.3-.1.6-.2.8-.1.3-.5.2a5.4,5.4,0,0,1-2.6-1.6c-.5.7.3,1.4.1,2.2s-.3.5.2.7.7-.1,1-.1-1.9-.4-2.5-.9a6,6,0,0,1-2,2.2,7.8,7.8,0,0,0,.4-2.1c.1-.5.3-1.7-.6-1.2s-.3.3-.6.4l-.5-.2c-.6,0,0,1.2,0,1.5s-.8,0-.7.6a1.3,1.3,0,0,0-1.9.2c.1-1.7.1-3.3.2-4.9s.1-.7.1-1.1.3-.7-.2-.7-.8.4-.9.9-.5-.8-.4-1.3a2.3,2.3,0,0,0-.2-2c-.1-.3.1-.1-.2-.3h-.4c-.3-.1-.8-.2-.9-.4s.1-.6.3-.7.4,0,.6-.1-.4-1-.8-1.1h-.6c-.2.2-.1.4-.2.6s-.8-.1-1-.5.3-.8.5-1.3.3-.8.2-.9-.8-.1-.9-.1-.4.1-.7.2a.8.8,0,0,1-.7.2,2,2,0,0,0-.9.6c-.5.4-1-.1-1.4-.6s-.2-.3.1-.6.3-.3.3-.6.1-.4.1-.4,0-.2-.3-.3H56.3c-.5.2-.4.3-.2.7s.1.5.1.8a3.2,3.2,0,0,1-.3,1.7,3.3,3.3,0,0,1-1.2,1.4c-.6.4-1.2.3-1.8.6s-.3.3-.5.5-.1.1-.3.2h-.3c-.2.1-.6.3-.8.2s-.1-1.1-.1-1.3a2.3,2.3,0,0,0-2,1c-.5.5-.9,1.1-1.6,1.3a10.4,10.4,0,0,0,.4-1,4.9,4.9,0,0,0-.1-1.2c0-.8-.1-1.5.5-2.1s.9-.7,1-1.3-.2-1.5-.2-2.2l.8.5c.4.2.5.4.8,0a2.5,2.5,0,0,0,.6-1.6,2.7,2.7,0,0,0-1.6.4c-.4.3-1.1.6-1-.1a3.4,3.4,0,0,1,.9-1.5c.4-.4.7-.7.5-1.3S48,26,48,24.8s.2-.4,0-.6l-.7-.2a1.1,1.1,0,0,1-.6-1.1c-.3.3-.4.4-.8.3v.6c0,.3,0,.3-.2.5l-.5.2-.3.5c-.6.5-.9.5-1.1,1.3s.1.3-.3.4-.2,0-.3-.2a5.3,5.3,0,0,1-.6-1A14.6,14.6,0,0,0,41,23.6c-.2.6-1.4,0-1.8.1s-.4-.1-.4.3a2.4,2.4,0,0,0,.2.8c-.7.3-1.6-.5-2.1-.9a.7.7,0,0,0-1.2.5c-.2.5.5,1.8.1,2s-1.5-.7-2.1-.6a10.4,10.4,0,0,0,.4-1c-.8-.2-1.3.6-1.6,1.3a11.7,11.7,0,0,1-.5,1.1.9.9,0,0,0-.1,1.1,5.5,5.5,0,0,1-.1,4.7,10.9,10.9,0,0,0-.8-1.5c-.2.1-.5.4-.8.3s-.2-.5-.2-.8a6.4,6.4,0,0,0-.8-1.9c-.5.2-.6.1-1-.1s-.7-.2-.8.1.1,1,.1,1.3a5.4,5.4,0,0,1-.5,1.1c.4-.1,1.3-.7,1.3.1s-.5,1.1.1,1.8,1.9,2.7.9,4-.1-.4-.3-.6-.5-.2-.8-.3a1.1,1.1,0,0,1-.5-1.3c0-.5.3-1.7-.1-2.2s-.5,1-.5,1.2-.6-.9-1.3-.6-.5.3-.8-.1a1.1,1.1,0,0,1-.1-1V32c0-.3.1-.4-.2-.5a1.4,1.4,0,0,0-.9.1c-.2.1-.3.3-.5.2s-.2-.3-.3-.4a1,1,0,0,1,.3-1,1.2,1.2,0,0,1,.8-.4c.3-.1.7,0,.8-.2s-.5-1.1-1-1.2a.6.6,0,0,1-.6-.4v-.4c.2-.4.1-.3.4-.3s1.5.3,1.8-.6.4.3.6.3.1-.1.5-.2.3.2.6.2,1.2-1.9,1.3-2.4l-.5.4c-.3,0-.2,0-.5-.3a1.4,1.4,0,0,0-.9-.3c-.4,0-.8.1-1-.3s-.2-.5-.4-.8-.8-.4-1.3-.4-1.1,1-.6,1.6-.3-.2-.5-.3h-.7c0,.3.1.7-.1.9s-.6.2-.9.4a2,2,0,0,0-.6.7,8.6,8.6,0,0,0-.7,1c0,.2,0,.3-.1.4s-.1.2-.4.4a2,2,0,0,0-.6.7,8.8,8.8,0,0,1-1.2,1.5,1.8,1.8,0,0,0-.4,1c0,.3.3.6.4.9s-.5,1.7-.2,2.5.4.1.8.1.5.1.7.4.4.7.8.6.2-.8.2-1.1,1.1.5,1.6.4.6-.8.9-1.3.6-.7,1-.4.2.2.1.6-.1.8-.2,1l-.7.4-.7.8c-.2.2-.3.4-.6.5s-.4.1-.4.6,0,.6.4.7h1c.4,0,.2.1,0,.4a2.5,2.5,0,0,0-.1,1.7c.1.3.4,1.4.7,1.5s1.2-.8,1.6-.9h1.4c.2,0,.3-.2.1-.4s-.2-.7.3-1,.9.2,1.4.6,2.1-.2,2.6-1,.5,1,1.2.7a3.1,3.1,0,0,1,1.2-4.1c.4.6.6,2.2-.5,2.2s1.4,1,1.8,1.9.1.4.2.6.4.4.5.7a2.2,2.2,0,0,1,0,1.4,6.5,6.5,0,0,0,1.9-.4c.2,0,0-.1.3-.3a2.7,2.7,0,0,1,.9,0l3.4.8c-.3.6.3,1.4.9,1.6s.2-1.1.9-.9.5.6.6,1a1.6,1.6,0,0,0,.7.9h.9c.1.1.2.3.3.3s1.1.3,1.6.5,1.3.4,1.3.8-.3.1-.5.2-.3.1-.3.2a.8.8,0,0,1,.1.4,3.1,3.1,0,0,0,.9,1.1c.1.1.4.3.6.2s.2-.4.1-.6-.3-.9-.1-1.3.7-.8,1.2-1,1.2-.1,1.5-.5-.8-1.6-.1-2.2.8.2,1.1-.2-.3-1.2-.5-1.6.9.1,1,.6V43a4.1,4.1,0,0,0,0,1.1c.1.2.7.1.8,0l.8-.2c.2-.1.3-.2.1-.5s-.4-.2-.6-.3,1.1,0,1.5.4a1.5,1.5,0,0,1,.1-.7c.4.1.9.8,1.2,1.1s.5-1.4,1-1.5-.2,1.5.4,2.1-.7-.3-.9-.2-.1.6-.3.8-.8-.1-1-.1a2.4,2.4,0,0,1-1.1-.6c-.3.3.3.9.5,1.2s.1.3.3.2h1.3a5.6,5.6,0,0,1,1.8.7c.2,0,.3.1.2.3v.5c.1.2,0,.6.2.7s.6-.5.9-.6.5.9.5,1.2.2,1.1.8,1.1.4-.6.8-.8.2,1.1,1,.8c-.1,1.7.9,3.1.6,4.7s-.3,1.6-.8,1,.1-1.1-.1-1.3a4.1,4.1,0,0,0-1.1,0,1.4,1.4,0,0,1,.2-.6.8.8,0,0,0,.4-.4c0-.1-.3-.4-.4-.5s0-.5-.1-.8l-.7.4c.1-.4.4-.9.5-1.3s-.3-1.3-.9-.8-.2.2-.2.6a1.7,1.7,0,0,1-.1.7,14.7,14.7,0,0,1-1,1.3c-.4-.3-.3-.6-.3-1s.1-.3-.1-.5l-.6-.2c-.8-.2-1.5.6-2.1,1.1a7.8,7.8,0,0,0-2-2.4,1.9,1.9,0,0,1-1.2.7c-.4,0-1-.1-1.3.2s-.3.2-.3.4-.1.4.3.4.5,0,.7-.3a2.1,2.1,0,0,1,.9,2.1c-.1.3-.5.3-.6.7s.1.5,0,.5-.4.2-.5.2-.6-.5-.9-.6-.7.4-.8.6-.1,2.2-.8,1.8-.2-.7-.2-1,.1-.3-.2-.4-.4,0-.5.1a1.3,1.3,0,0,0-.7,1.9c.1.2.3.1.2.4s-.3.2-.4.3-1-.2-1.2,0a4.2,4.2,0,0,0-.3,1.2c.1.3.4.3.7.4h-1c-.2,0-.4,0-.3-.3l-.2-.4a4.8,4.8,0,0,1-2.3.7c.1-.9-.1-2.2.8-2.7l.7-.2c.3-.2.2-.1.2-.4a2.1,2.1,0,0,1,.3-.7c.1-.1.8-.5.8-.6s-.9-.5-1.1-.5-1.8.6-2.5-.2.2,1.4-.2,1.4-.3-1.3-.3-1.5l-2.3.3c-.2,0-.8-.3-1-.2a2.5,2.5,0,0,0-.4-.7l-.5-1c-.3-.5-.2-.3-.7-.2h-.5c0-.6,0-1.5-.4-1.2s-.1.4-.2.6-.5,0-.8-.2-.5-.3-.3-.8a1.8,1.8,0,0,1,.7-.5,3.5,3.5,0,0,1,1.1-.3h.5c.2.2,0,.3,0,.4s.8.5,1.4.5A3,3,0,0,0,38,48.9a6.1,6.1,0,0,1-.7-1c-.2-.2-.1-.3-.4-.3h-.3c-.3.4-.2,1.8-1,1s-.6-1.1-1.4-1,.2-1.2.2-1.8-1.1-.4-1.1-.9.7-.3,1-.7-.3-.9-.6-1.3.2-1.3.2-1.8l-1,.7a.9.9,0,0,1-1,0l-.3.9c-.1.2.2.6-.1.7s-.6-.1-.8-.1a.8.8,0,0,0-.8.2,1.4,1.4,0,0,0-.4,1.6c.2.8.8,1.2.3,2.1a17.1,17.1,0,0,0-1.1-1.4,2.2,2.2,0,0,0-1.3-.6c.2-.8.3-1.7.5-2.5s.6-1.8.3-2.2-1.4-.1-1.9.3-1,1-1.8.8a4.1,4.1,0,0,1,.5.9c0,.7-.2,1.7-1,.3l-.2-.2c-.9-1.8-1.8,1.9-2.2,2.3s1-.2,1.3.7.4,0-.8.7l-.4.3a2.9,2.9,0,0,1-.8.4c-.2,0-.5-.2-.7-.1s-.2.2-.3.5a4.6,4.6,0,0,1-.9,2l-.3-.6c-.2-.2-.1-.1-.4-.1l-1-.4a4.8,4.8,0,0,0-2.4-.7c0,.6-.2,2.2.6,2.3s.7-1.2,1.1-.5.1.7.1.7l-.5.2a1.3,1.3,0,0,0-.5.9c-.1.3-.1.2,0,.5l.3.5a6.1,6.1,0,0,1,.1,1.4c0,.5-.2,1.5.3,1.9a1.5,1.5,0,0,0,.9.2h.8c.3-.1.2-.1.2-.5s.1-2.2.7-1.1.1.5.3.6h.4a5.6,5.6,0,0,1,1.2.4c0-.2-.1-1,.1-1.1s.6.2.8.3.5.1.6-.4-.2-.8-.2-1.2.7.3,1,.2l.4-.3c.2-.1.1-.1.4,0l.9.5c.4.5,0,.8-.3,1.3s-.3.9-.5,1.2a2.8,2.8,0,0,1-.9.7c-.2,0-.3.1-.2.3V57a2.7,2.7,0,0,0,0,.9c.1.3.3.8.7.6s.4-1,.5-1.3.1-.3.4-.3.4.1.8-.2.3-.4.6-.3l.3.4c.1.2.3.3.4.4h.1c0,.2.1.3.1.5s.2,1.7,1.2,1.6.7-.4,1-.1,0,.3-.2.5l-.5.7c-.4-.2-.9-.7-1.4-.7s-.2.7-.2,1.2,0,2.3-.8,2.9-.4.4-.5.3-.2-.5-.3-.6a1.5,1.5,0,0,0-1.3.2c-.3.3-.6.8-.3,1.2s.4.2.7.1-.1.7.1.9.8-.1,1,0a3.6,3.6,0,0,1,1.7.7,1.5,1.5,0,0,0-1,.9c-.3-.2-.1-.6-.3-.9l-.6.2c-.3.1-.3.1-.3.4a7.6,7.6,0,0,1-.1,1.5c-.1.4-.2.8-.6.9s-.5-.1-.5-.5.3-.7.4-1.1.2-1.2-.2-1.4-.8.3-1,.4-.4.4-.5.7-.6-1.4-.6-2.1-.5-.8-1.2-.8-.5-.1-.7-.3-.4-.4-1-.4-1,.7-.9,1.6l-1.8-.5c0,.1-.1.2-.1.4L15,65.1c-.6-.4-.5-.6-.3-1.1s.8.4.9-.1a3.4,3.4,0,0,0,0-1c0-.3.1-.5,0-.7s-.8-.7-1.2-.9-.4,0-.6.4l-.6.9c-.4-.2-.3-.9-.4-1.3a3.9,3.9,0,0,0-.5-1.4c-.2-.2-.6-.5-.9-.4s-.4.4-.5.7,0,1.1-.7,1.5a2.2,2.2,0,0,0-1.4,1.7,6.6,6.6,0,0,0,1.4,0h1.9c.3-.2.1-.2.4-.1a2.3,2.3,0,0,0,1.2.2,3.5,3.5,0,0,1-.3,1.4,4.7,4.7,0,0,0-.5,1,1.7,1.7,0,0,0-.1.7c-.1.3-.1.3-.6.3H10.8A11.1,11.1,0,0,0,8.2,66c-.7.1-1.8.2-2.2.9-.8-1.1-2.5-1.9-3.5-.4A4.3,4.3,0,0,0,2,68.1c.1.7.6.8.9,1.3s.3.9,1,1h1c.3.2.2,0,.3.4v.6a5.6,5.6,0,0,1-.5.8c-.2.3-.2.5-.6.4l-.8-.5H2.9c-.3,0-.3,0-.5.2s-.1.4-.4.6-.5.2-.8.3S.7,74.5.8,75.1s.3,1-.3,1.6A2.1,2.1,0,0,0,0,78.2c.1,1.2.8,2.6,2.2,2.6s.7-.6.9-1.2a1.7,1.7,0,0,1,1.1-1.2,2.4,2.4,0,0,1,2,.3c.9.2.9.4.9,1.3s-.7,1.1-1.3,1.5-.6,0-1-.2l-1.4-.6c-.1,1.1.6,2.4-.1,3.3s-.4-.7-.8-.7H2.1c-.4.1-.3.1-.3.4a2.1,2.1,0,0,1,.3.7,2.2,2.2,0,0,1,.1.8c.1.5-.2,1-.1,1.6s1.4-.1,1.7-.5a.8.8,0,0,0,.2-.4c0-.2-.2-.4-.2-.5s.7-.5,1.1-.7a6.4,6.4,0,0,1-.1,2.4c-.3.6-.9.6-1.4.7s-1.1,0-1.4.5a2.6,2.6,0,0,0,0,1.5c0,.3,0,.9.4,1s.5-.6.9-.5-.3,1.2.1,1.4a4.1,4.1,0,0,0,1.9-.1c1.3-.2,1.6-.9,2-2l.3,1.5c0,.1.1.5.3.6s.3-.1.4-.1.7,0,.4.4-.9.3-1.3.6-.2,0-.2.4-.1.2,0,.4.6.5,1,.7l.5.4h0c.1.2-.8.5-.9.3s-1.2,1.1-1.8.7,1.1,1.1,1.7,1,.4-.2.7.2a4.2,4.2,0,0,1,.4,1l.3,1c.1.5.1.4.5.3s.8.6,1.3.4a1.3,1.3,0,0,1,.3-1.8h.4a3.4,3.4,0,0,1,.6,1.2c.3.6.5.6,1,.7s.6.4.9.6,1.4.6,1.5.8h0l-.6.2h-.6c-.3.3.1,1.2.2,1.3a3.8,3.8,0,0,0,1.2,1c.5.3.7.5,1.3.3l.9-.6a6,6,0,0,0,2.1,1.4,1.3,1.3,0,0,0,.1.6,2.5,2.5,0,0,0,.4.9,1.5,1.5,0,0,0,1.1.3c.7,0,.3-.2.4-.6a.2.2,0,0,1,.2-.2h.3a9,9,0,0,0,2.1.8v.3a.5.5,0,0,1-.2.4h0v.2c-.2.1-.8.3-.8.5s0,.2.1.2a.9.9,0,0,0,.5.4l.4.2h.2l.2.2c.2.2-.2.5-.3.8s-.2.2-.2.3h0a.1.1,0,0,0,.1.1c0,.2.3.3.5.3h.7c0-.1.1-.1.2-.1h0v-.2h.1a6.1,6.1,0,0,0,.7-1c.5-.7.5-.2,1.2-.1s.6-.7,1-.7h0l.4,1.6H30a1.5,1.5,0,0,0-.4,1.1,4.2,4.2,0,0,0,2.7.4.6.6,0,0,1,.6,0c.2.1.2.4.4.6s.3.2.6.2l.4.5a.8.8,0,0,1,0,1c-.1.3-.6,2,.3,1.5s.3.6.7.7l.8.3h2a1.3,1.3,0,0,0,1-.7c.1-.4.2-.6.1-.9H39l-.6-.4-.3-.2c.2-.2.7-.4.8-.7s-.2-.3-.3-.4h-.1a1.6,1.6,0,0,1,.8-.6h1s.1.1.1-.1h.2l1,.4H42a6.6,6.6,0,0,0,1.5.4c.4,0,.7-.4.9-.8a.8.8,0,0,0,.1-.8h.6l.3.3c.2.1.2.2.3.1h.1l.5-.5.3-.3a5.7,5.7,0,0,1,1.1-1.1h.6c.3,0,.1.8.3,1h1s1-.2,1.1-.1-.6-.4-.2-.7.3-.5.7-.3.9-.1,1.2,0a5.4,5.4,0,0,1,.9-1.2l1,.6,2.9,1.2c1,.3,2.8,3.8,3.5,4.6s1,1.9,1.2,2.4,2.6,7.6,3.3,9.8a105.6,105.6,0,0,1,1.5,11.7c0,2.6.2,6.5.1,9.1s-.4,5.2-.6,7.8a57.5,57.5,0,0,1-1.5,7.2c-.8,2.5-1.4,4.9-2.2,7.3H75s-1.2-4.1-.2-5.4c-1.3-4.7,1.3-8.1-1.1-13.3-.2-.5-.4.2-.9,0a8.6,8.6,0,0,1,.3-2.9c.7,1.9.6-.1,2,0a134.9,134.9,0,0,0,1.1,14.2c-.7-.2-.5.7-.8,1,1.3,1.5,1,6.4,1,6.4h6a12.3,12.3,0,0,1-1.9-3.1,11.6,11.6,0,0,1-1-3.2c-.3-1.2-1.4-6-1.5-7.3s-.6-6.2-.6-7.5-.4-10.4-.3-11.7.3-6.3.4-7.6a42.5,42.5,0,0,1,1.1-7.4c.3-1,.6-2.1,1-3.2a17.3,17.3,0,0,1,3.7-5.9c1.7-1.7,2.7-3.1,4.7-4.3l3-1.9a17.3,17.3,0,0,1,3-1.6c.8-.3.9-.9,1.7-1.5a6.6,6.6,0,0,1,1.4,0h.6c.3,0,.3.1.4-.3s.2-.6.3-.9,2.1-1.3,3-1.7a5.3,5.3,0,0,0,1-.6h0c.7-.4,1.2-.7,1.7,0a7.9,7.9,0,0,0,2.1-2.4v-.9h1.2c.5-.2.8-.9,1.2-1.2a17.2,17.2,0,0,1,3.3-2.2c.6-.3.1-.6.7-.8a14,14,0,0,1,2.9-.9,2.5,2.5,0,0,0,1.2-.4,3.3,3.3,0,0,1,1.6-.5c1.2,0,.6-1.5,1.6-1.6a4.9,4.9,0,0,0,1.6-.5.9.9,0,0,1,1,0c.5.1.8-.1,1.2-.1a2.6,2.6,0,0,1,1.3.6l1,.4,1.5-.2.7-.2c.2-.2.2-.4.4-.6s.7.1.9.4.4.4.8.3h.5a.8.8,0,0,1,.5.5l.3.6a1.8,1.8,0,0,0,1.6,0,1.1,1.1,0,0,1,1.1-.3c.4.1.6.4,1.1.3s.7-.3,1.3,0,.7.8,1.2.7.4-.6.8-.9.9,0,1.3,0,4.1-.8,4.1-2.8,1.8-1,1.6-1.7.2-.7.8-.7.7-.3.9-.9a4.9,4.9,0,0,0,.2-2.4,1.9,1.9,0,0,0-.9-1.4l.6.2c-.3-.2-1.2-.4-1.2-.7a1.2,1.2,0,0,1,.3-.9c.3-.6,1.1-1,.7-1.5l-.7-.4H146v-.7c.5.1,1.1.5,1.3-.1s-.2-1.3-.5-1.9,1.2,0,1.3-.5S147.4,73.3,147,73.1ZM64.5,17.4c-.5.5-1,0-1.3,0a1.9,1.9,0,0,1-1.2-.7c-.4-.4-.1-.6.6-.6s.4-.8.9-1,0,0,1,.9S65,16.9,64.5,17.4Zm-26.1,17c-.7.2-1.2-.2-.9-.6s.3-1.5.7-1.1S39.1,34.2,38.4,34.4Zm6.9-1a1.9,1.9,0,0,0-1,.2c-.1,0-.6-.4-.5-.8s-.3-1-.7-1.3-.5,0-1.1.1-.4,0-.5.6,1.9.2,1.6.9-3.2,1.2-3.5.9.1-.8-.2-.9-.2.1-.4-.2.1-1.3-.4-1.4.1-.6,0-1,1-.2,1-.9.8-1.3,2.1-1.2.7.4,1.1.1a3.7,3.7,0,0,1,2.1,0c.4.4.1.3.3.7a7.4,7.4,0,0,1,.8,2.4C45.6,32,45.8,32.8,45.3,33.4Zm69.9,5.3a2.1,2.1,0,0,1,1.7.7,3,3,0,0,0,.8.8c.3.3.5.6.8.7s.6.1.7-.3.1-.8.5-1.1.2.4.5.5.2-.2.3.3,0,.3,0,.5a3.7,3.7,0,0,0-.1,1.1c0,.4.2.3.4.6a3.7,3.7,0,0,1,.5,1.1c.1.4,0,.6-.4.8s-.1,0-.4,0h-.3c-.3,0-.7.4-.9.6s-.7.2-.9.3a2.1,2.1,0,0,1-1.1-.1c-.3-.2.1-.3.4-.4s1-.1,1-.7-.4-.7-1.1-.6a4.1,4.1,0,0,1-1.9-.1c-.5-.1-1.1-.3-1.3.3s.3.7.7.8.5.4.3.9-1.3.1-1.7-.7l-.2-.3.2-.2q.1-.3,0-.3l-.3-.2c-.2-.1-.9-.2-.9-.4l.3-.5a.7.7,0,0,0,.1-.5,2.3,2.3,0,0,0-.1-1.4,1.8,1.8,0,0,1-.4-1c0-.5.6-.3,1-.4S114.6,38.8,115.2,38.7Zm-3.1,18c-.4,0-.5.5-.5.5l-.4,1a1.8,1.8,0,0,1-.3-1,2.2,2.2,0,0,1,.5-1.3c.3-.2,0-.7.6-.7s.4.6.4.6.8.8,1.1.8,0,.9-.2,1.1-.8-.3-.8-.3S112.6,56.7,112.1,56.7Zm1.5-6.6c-.5-.2-.5-.3-.8-.7s-.1-1.3.2-1.2.9,0,.8.5.4.3.2.7S114,50.2,113.6,50.1Zm-1.5-19.8a3.8,3.8,0,0,0,1.5-.7c.4-.3,1.4,1.1,1.2,1.3a3,3,0,0,1-1.4.6c-.4,0-1.5,0-1.5-.6S111.6,30.3,112.1,30.3Zm-.8,22.6.8.8a1.6,1.6,0,0,1,0,.7c-.2.2-.8,0-.8,0a.7.7,0,0,0-.4.6c0,.3-.6.6-.6.6a6,6,0,0,1,0-1.9Zm-9.4-4.6a.9.9,0,0,0,.6-.6c.1-.2.1-.7.5-.7s.4.6.8.8-.7.2-.8.4a.9.9,0,0,0,.5.9c.7.5,1.8.3,2.6.5s-.4.9-.7,1.3a3.6,3.6,0,0,1-1.1.4l-1,.5c-.6.1-.5-.2-.9-.5l-.7-.4h-.5c-.3,0-.2.1-.3-.3s-.1-.4-.1-.6.1-.3.3-.4a2.1,2.1,0,0,1,1.4.3C102.9,49.1,102.4,48.7,101.9,48.3Zm4.4,6.2c.7,0,.6-.3.6.2a4.5,4.5,0,0,0,.7,1.5c.4.3-.9,1.4-1.2,1.2a2.7,2.7,0,0,1-.7-1.3C105.7,55.7,105.6,54.6,106.3,54.5Zm1.1,5.2a1.3,1.3,0,0,1,1.1-.2c.6.1.6-.6.6-1s.9-.3.9-.3l.6.7a1.8,1.8,0,0,1-.9.6,2.7,2.7,0,0,0-1.2.9c-.4.4-.8.5-1.1.2S107.4,59.7,107.4,59.7ZM99.1,18.4h.1a4.1,4.1,0,0,0,1.1.7.4.4,0,0,0,.2.4c.2.2.1.1.4.1h.4c.7-.1,1.2-.5,1.9-.6s-.5-1.1-1.1-1.1a2.3,2.3,0,0,0-1.2.6l-.3-.7c-.1,0-.1-.1-.1-.2l.6-.3c.8-.7,2.1-.6,3.2-.4l.6.2c.4.1.6.5.8.8s.1.3.1.5-.4.7-.7.9-.8.3-1,.7a1.3,1.3,0,0,0-.1.6,10,10,0,0,1-.2,1.6,1.6,1.6,0,0,1-.9,1.2,1.2,1.2,0,0,1-1.5-.2,1.4,1.4,0,0,1-.4-1.5H99.9V20h0l-.2-.2A1.1,1.1,0,0,1,99.1,18.4Zm4.2,7.4c.6-.3.7-.7,1.3.5s1.2.4.6,1.2-1-.2-1.3.5-.5.9-.8.4a1.8,1.8,0,0,1-.3-1.3C103,26.7,102.6,26.2,103.3,25.8Zm-5.4-2.2a1.3,1.3,0,0,1,1.1,1c0,.3-.6.5-.6,1a.3.3,0,0,0,.3.3l-.3.4-.6.5a1.1,1.1,0,0,0,.4,1c.3.3,1.2-.6,1.2-.9s0,1.8-.2,1.8-.5.4-1.1.4-1.2-1-1.2-1V26.7a13,13,0,0,0-.3-1.5s-.8.8-.8,1.1-.9.2-.9,0-.3-1.9.9-1.9S97.5,23.6,97.9,23.6Zm-3.7-3.8c0-.4.5-.2.8-.5s.3-.1.5,0,.4,1.3.1,1.3-.2,1.3-.2,1.9-.4.7-.4,1-.2.6-.8.6-.7,0-.8-.4.2-.5.4-.7a1.4,1.4,0,0,0,.5-1.1c0-.7-.5-.1-.9-.8S94.2,20.3,94.2,19.8Zm-3.3,3.6c.4-.1.5.3.5-.5s.8-.8,1-.8.9,0,.9.5.1.5-.3.5-1.3.3-1.2,1.1.1,1-.5.9-.9-.2-.9.2-.4.3-.6.3-.1-1,.2-1S90.6,23.5,90.9,23.4Zm-2.2-.6c.4-.7,1.2-.4,1.2-.2s.2.9-.3.9-.1.5-.6.5-.7.3-.7-.2S88.4,23.3,88.7,22.8ZM83.6,46.4a4.3,4.3,0,0,0,.2-2.5l1.8-.4h.5c.3,0,.4-.1.4-.3s.1-.4.2-.6a.8.8,0,0,1,.2-.5h.3c.3,0,.4-.2.6-.3s-.1-.9.1-1.4.5-.7.6-1.2-.2-.9,0-1.3.6-.5,1-.7h.3l.3-.5.3-.9c-.3,0-.3-1-.3-1.2s-.4-.7-.4-1.1a1.3,1.3,0,0,1,.4-.9l.5-.2c.4-.2.3-.1.4.2s.1.7.6.5.4-.5.8-.1a3.3,3.3,0,0,0,.3.6c-.1.2-.4.3-.5.4a1.5,1.5,0,0,1-1.3,0c0,.5.4.6.7,1l.2.3c0,.2.1.2.3.1h1.7c.5,0,.4,0,.5-.4a2.3,2.3,0,0,0-.4-1.6,3,3,0,0,0,1.3.2c.4-.2.4-.6-.1-.7h-.5c-.4,0-.4,0-.5-.3a1.3,1.3,0,0,0-.1-.6c-.1-.3-.4-.4-.6-.5a2.5,2.5,0,0,1,1.7.1,3.8,3.8,0,0,1,1,.3c.2.1.4.5.7.5s.8-1.4,1-.3-.1.3-.4.6a2.4,2.4,0,0,0-.6.9c-.1.3-.1.2,0,.4l.3.5c.1.3.1.9.2,1.1s.6.1.9,0a1.7,1.7,0,0,1,1,0c.6.1,1.2,0,1.5.6s.1.6.3.8.8.3,1.1.5a4.8,4.8,0,0,1,0-1.2c.1-.1.5.1.6.2s.5.3.7.2,0-.8,0-1-.1-.6.2-.6l.5.2h.4l.5.4c.2.3.1.7.3.9s.4.1.4.2-.1.3-.1.4l-.3.7a1.7,1.7,0,0,1-.6.6h-.4c-.2.2-.2.1-.2.5s-.1,1.9.6,1.8.7-1.3.8-1.7a.9.9,0,0,0,1.1-.2c.4-.3.3-.4.6-.1s.3.3.5.5h.1c.3.1.3.2.2.4v.6a1.7,1.7,0,0,0,.6,1,1,1,0,0,0,.9.1c.2-.1.8-.4.8.1s-.7,1-.8,1-.8-.5-1.1-.6a.6.6,0,0,0-.6,0c-.1.1.1.6.1.7a7.6,7.6,0,0,1,.1,1.5,6.5,6.5,0,0,1-.4,1.3c-.2.3-.3.4-.1.6s.9.3,1.2.4.5-.1.5.2-.2.3-.4.4a1.5,1.5,0,0,1-1.1.4c.1-.3.3-.6-.1-.7h-.5c-.2.1-.5.4-.8.3s-.2-.4-.1-.8a.8.8,0,0,0,0-.7,2.1,2.1,0,0,0-.8-.6,1.1,1.1,0,0,0-.8,0H104c-.1.1-.1.2-.1.4a3.4,3.4,0,0,1-2.5-1.3.8.8,0,0,1-.2-.6V43c-.2-.3-1.1-.3-1.4-.3a2,2,0,0,1-.3,1.7l1.5.5c-.5.4-.5,1-.8,1.4a.8.8,0,0,1-.8.3l-1.1.2V44.5c-.4.1-.8.2-.9.6a.8.8,0,0,0-.8.3c-.1.3.3.7.1,1s-1.3-.9-1.5-1.2a1.8,1.8,0,0,0-.8-.9c-.2-.2-.7-.2-.7-.6s.5-.4.7-.7a3.4,3.4,0,0,0,.8-.9,6.5,6.5,0,0,1-2.4-.6,2.9,2.9,0,0,0-.2.9c.5.1.5.1.5.6s-1.6-.8-2.1-.3-.1-.5-.6-.5l-.7.2c-.4.2-.3.1-.7-.1s0-.3-.3-.2-.3.3-.3.4a1.5,1.5,0,0,0,.5,1.4c.3-.4.7-1,1.2-.7s.1.3.1.7.3.5.3.8-.7,1.2-1.1,1.6a8.6,8.6,0,0,0-1.3,2c-.3-.3-.4-.5-.8-.6s-.8.1-1.2,0-.2.1-.4-.3-.1-.3-.1-.4a.8.8,0,0,0-.7-.2c-.3.1-.7.4-1.1.3S83.5,46.7,83.6,46.4ZM98.5,66c-.8.2-1.4.3-1.6.9s-1.4.9-1.4.9-1.4-.2-1.4-.4a16.2,16.2,0,0,1,.6-1.7l1.4-.7c.3,0,.8-.9.8-.9l2,.3S99.3,65.8,98.5,66Zm-43-4.9a2,2,0,0,1,.9-.7l.6-.2c.2-.2.4-.3.5-.6s.1-.6.3-.5.5-.4.5-.4a1,1,0,0,1,1-.3,2.1,2.1,0,0,1,1.1.4c.4.2.9.6.9,1.1s-.5.9-.6,1.4-.1.6-.4.7H60c-.4-.1-.7.3-.9.6a1.4,1.4,0,0,0-.2.6c0,.2.1.4.3.4s.5-.5.9-.5.5.1.5.4a1.1,1.1,0,0,1-.3.7l-.4.5-.7.4A1,1,0,0,1,58.1,64v-.9c-.4,0-.6.4-.9.6a1.2,1.2,0,0,1-.9.4h-.5a.8.8,0,0,1-.2-.5c.1-.3.6-.3.8-.6l.2-.3c.2-.3.7-.2.9-.5s.2-.4.2-.6v-1c-.2.1-.2.4-.3.6a1.5,1.5,0,0,1-1.5.7.4.4,0,0,1-.4-.4A.4.4,0,0,1,55.5,61.1Zm3.3,22h.8s1.1.5.8.8,0,.3.5.8-.8.4-.5,1.4-.8.2-.8.2a.9.9,0,0,0,0-.9c-.4-.3-.8.2-1.3-.6s-.1-.6.2-.9A1.1,1.1,0,0,0,58.8,83.1Zm2.3-4.9s.7-.2.5.2v.5c-.3.1-.7.4-.8.3s-.3-.1-.6,0a3.4,3.4,0,0,1,.1-1.5c.3-.1.6.1.8,0S61.1,77.9,61.1,78.2Zm-2.3,12a3.6,3.6,0,0,1-.1-1,6.8,6.8,0,0,1,.1-1.2l1.3.2.4.3a2.8,2.8,0,0,1,.5,1.2,1.2,1.2,0,0,1-.3.8,4.2,4.2,0,0,0-1.1.7c-.4.4-.3.7-.3.7a3.8,3.8,0,0,0-.5,1.1c0,.3-1.4.2-1.4.2a.6.6,0,0,1-.2.4c-.2.3-1.1,0-1.1,0s-.2-.2-.2-.9.3-.9.3-.9l.7-.9.8-.7C58,89.8,58.8,90.2,58.8,90.2ZM54.4,76h0v-.2l.8-.6v1.2h.5l-.8.9h-.1l-.2.3h0c-.2-.4-.1-.8-.4-.9S54.4,76.2,54.4,76Zm-1.2-2.3a1.2,1.2,0,0,0,.7.7v.2a.1.1,0,0,0-.1.1H52.5l-.2-.4A3.1,3.1,0,0,1,53.2,73.7ZM43.7,62.6h.2c0-.1.1-.1.1-.2a1.3,1.3,0,0,0,.1-.6l-.2-.2c-.1-.4.3-.7.6-.8l1,.2a.4.4,0,0,0,.1.3c0,.1.1.2.2.3a1.2,1.2,0,0,1,.1,1,1.8,1.8,0,0,0-.5,1.2.3.3,0,0,0-.3.3.8.8,0,0,1-.2.4H43.8l.2-1h-.7C43.4,63,43.4,62.7,43.7,62.6Zm-9.6-5c.3.4.6.6,1.1.4a1.8,1.8,0,0,1,0-2c.1-.2,1.5-1,1.7-1.2s1.1.7,2.2,1h0a1.3,1.3,0,0,0,.4.7c.4.4.5.3.2.9a2.3,2.3,0,0,1-.7,1l-.4.5h0c-.2-.1-.6-.6-.8-.6s-.3.3-.3.5-.2.7-.6,1-.6.3-.8-.1.1-.4,0-.7.1-.3-.2-.2h-.4a3.7,3.7,0,0,1-1.8-.2Zm2,6.9c.3.3.8,0,1.7,0s.7,1.5.5,1.7-.4.9-.9.9-1.4-.4-1.9-.4a1.1,1.1,0,0,1-1.1-1c0-.6-.3-1.3.3-1.9s.5-1.6.8-1.9h1.4c.3,0,.2.9.2,1.2s-.8.4-1,.4S35.7,64.1,36.1,64.5Zm-4.8,4.2c0-.9.5-.9,1-1.3s.8-1.1,1.6-.3.7.8.2.8-.4,1.1-.2,1.3a1.4,1.4,0,0,1,.5,1v1.2a.8.8,0,0,0-1,0c-.4.4-1.1.1-1.1-.6s-1-.9-1-.9Zm1.8,25.6,1.3.9s.1.6-.7.6-.1.5-.6,1-1.5-.2-1.5-.2-.8-1.1.4-1.1A1.1,1.1,0,0,0,33.1,94.3Zm-6.6-26a3,3,0,0,0,.4-.8,1.4,1.4,0,0,0,1.7-.4v1.1c-.1.4-.1.4-.5.6a12.5,12.5,0,0,1,1.6,2.4c-.4,0-1.4-.1-1,.6s.9.4.7,1.1-.8.3-1.3.5.4-1.4,0-1.8-.6.1-1,.3a3.3,3.3,0,0,1-.4-1.4c.4.1,1.2.6,1.4.1s-.2-1.6-.6-1.7-.4.3-.7.3a.7.7,0,0,1-.6-.4C25.9,68.4,26.2,68.5,26.5,68.3Zm1.3,11.1c.2.3.4.5.4.7s.3.4.1.7-.2.6-.8.1-.8,0-.6-.5.5-.2.5-.6S27.5,79.2,27.8,79.4Zm-1.8,4a1.6,1.6,0,0,0,.7.7l-.2.2a.1.1,0,0,0-.1.1H25.2a.5.5,0,0,0-.2-.4Zm-.6,6.2a1.3,1.3,0,0,1,.3.9c0,.5,1.1.2,1.6-.3s.3-2.2.3-2.2a8,8,0,0,0,1.4-.8c.4-.5,0-1.9.7-1.9a4.1,4.1,0,0,1,1.6.5,2.7,2.7,0,0,1,0,1.9,2.2,2.2,0,0,0,0,1.9,6.9,6.9,0,0,0-2.1,1,2.2,2.2,0,0,0-.4,1.7,8.3,8.3,0,0,1-1.3-1.1c-.4-.4-1,.8-1,.8s-1.5-.4-2.2-1.1S25.4,89.6,25.4,89.6ZM12.2,92l-1.4-.3s-.2-.8.3-.8.6-.7.6-.7a1.2,1.2,0,0,1,.9.9C12.8,91.9,12.2,92,12.2,92Zm1.7-2.7c-.9,0-1.4.9-1.7-.6s1.1-1.8,1.1-2.1a2.2,2.2,0,0,0-.3-.8,6.6,6.6,0,0,1,2.4.8l1.1,1a11.7,11.7,0,0,1-1.1,1.6C15,89.6,14.8,89.3,13.9,89.3Zm5.9,7.3-1.2.2s.3.8.1.8S18.3,99,17.6,99s-1.8.5-2.4,0-.6-.8-.3-.8.3-1.6.3-1.6a4.1,4.1,0,0,1,2.1,0c1.2.2.5-.6.5-1.1s2,0,2,0S19.8,96.6,19.8,96.6Zm-2.5-7s1.2-.1,1.6.3,0,1,0,1-.4.7-.7.4A7.1,7.1,0,0,1,17.3,89.6Zm3.6-12a2.2,2.2,0,0,1,.2,1.1c-.2.4-.5.2-.8,0s-.5-.4-.9-.4-.5.1-.7.5a2.2,2.2,0,0,0,.4,1.9c.3.5.7,1.2.4,1.8s-1.3,1-1.9,1.3.2-.3.5-.6.2-.6,0-1-.2-.8-.7-.9a1.7,1.7,0,0,0-1.3.7l-.5-1.6h1.6c.4,0,.3,0,.4-.3a2.7,2.7,0,0,0,0-.9c-.1-.4-.2-.7-.5-.4s-.3,1.1-.8,1-.7-1-.9-1.4a8.6,8.6,0,0,0-1,1.6.9.9,0,0,0-1.3,0c-.4.3-.5.2-1,.1L11,79.8l-1.1-.2c-.2-.2-.2-.9-.3-1.1s-.5-.9.1-1.2.9-.3,1.1-.8a2.1,2.1,0,0,0,0-.8c0-.3-.2-1.1,0-1.3s.8-.3.9-.3.1.6.1.7-.2.5-.1.7.3.3.6.2,0-.1.3.1a.8.8,0,0,1,.2.4,2.8,2.8,0,0,1,.1.9c0,.4-.1,1.9.3,2.1s1-.6,1.1-.9a2.2,2.2,0,0,0,.1-.8c-.1-.3-.3-.5-.1-.8s.7-.3.9-.7-.1-.5.4-.3.3.4.5.5,1.3-.6,1.6-.9a2.4,2.4,0,0,0,.9-1.3c.1-.5-.2-1.2.2-1.5h.4c.6-.2.1.1.3-.3l.5-.4a2,2,0,0,0,.6-.7c.2-.3.4-.2.8-.3s.8-1,1.7-.7a2.8,2.8,0,0,0-.7,2.5c.1.2.1,1.3.3,1.4s.4-.3.6-.4.2,3.4-1,2.8.3-.6.2-.8-.5-.2-.6-.3-1-.5-1.3.2A5.6,5.6,0,0,0,20.9,77.6Zm1.3,20.3c-.4-.4.5-1.1.5-1.1s1.8.3,1.8-.5-.8-.5-.8-.5a10.3,10.3,0,0,1-2,.8c-.4,0-.3-1.1-.3-1.1a3.3,3.3,0,0,0,2.3-.8c.8-.8,1.7,0,2.1,0s.7,1.3.7,1.3a4.4,4.4,0,0,0-1.2.8,6.2,6.2,0,0,0-1,1.4A4.5,4.5,0,0,1,22.2,97.9Zm11.5,3.8c-.8,0-2.7-.7-3.4,0a37.1,37.1,0,0,1-2.8,2.5s-1.1-1.1-.5-1.7,2.4-.2,2.4-.7.1-1.2,1.9-1.2,2.9.5,3.7-.3a4.8,4.8,0,0,1,1.8-1.1l.3,1.8s.4.7-.7.7Zm4.3,6.9c-1.2.3-.6,1.1-1.2.3s.3-.9-.3-1.3-.8-.7-.2-.9a2.2,2.2,0,0,1,1.4,0c.3.2.9,0,1.1.7S39.3,108.2,38,108.6Zm2.8-8.3c-.5.5-2.7,0-2.7,0s.4-1.1-.1-1.1-1.2-.9-1.2-.9l.9-.4s1.3.6,1.3-.7.9-1.2.9-1.2a3.3,3.3,0,0,1,.9,1.6C41.2,98.7,41.4,99.7,40.8,100.3Zm-.6-6.8a6.9,6.9,0,0,1-2.5-.8c-1.3-.6-1.5,0-2,.5s-1.7,0-1.7,0,0-.9.4-1.2a7.1,7.1,0,0,1,2-.6l1.5-.3h0c.1-.3-.1-.6,0-.9H36.4a5,5,0,0,1-1.7.4c-.8,0-1.6-1-1.6-1s-.1-.4.9-.4,1.4-.7,1.9-1.2l1.2-1.4a3,3,0,0,1,1.9-.4,5,5,0,0,1,1.7.4l1.2.9A2.9,2.9,0,0,0,40.8,89a1.5,1.5,0,0,1-1.3,1.1v.2a1.3,1.3,0,0,0,.9.8h.1l.7,1.2S40.9,93.5,40.2,93.5Zm2.1-2.4c0-.5-.8-.9-.8-.9a5,5,0,0,0,1.4-1,13.7,13.7,0,0,0,1.5-2.3s.6,2.1-.5,2.7S42.3,91.6,42.3,91.1Zm.2,4.4h1.2s-1.5-.3-1.2-1.1l.2-.9a4.9,4.9,0,0,0,2,.4,2.3,2.3,0,0,1,1.6.5s.3.8-.7.8-.3.8-.9.8-1.2.6-1.6.6S42.5,95.5,42.5,95.5Zm2.3,7.1c-.5.5-.8,1.1-.8.6a9.7,9.7,0,0,0-.7-1.9s.4-.6,1.1,0,1.9,0,1.9,0Zm2.9-19.7c0,.2-.1.3-.3.2H45.7V81.1a.8.8,0,0,0-.6.2l-.2.4c-.3.2-.6-.1-.8.3s.3.7,0,1-.7-.3-.9-.6a2.5,2.5,0,0,0-.8-1.2l-1-.7c-.5-.4,0-.5.4-.9a2.7,2.7,0,0,0,.8-1,4.9,4.9,0,0,1-2.3-.6L40,79c.5.1.5,0,.5.6s-1.5-.9-2.1-.4-.1-.5-.6-.4h-.6c-.4.2-.4.2-.7,0s0-.4-.4-.3l-.3.3c-.2.5.3,1.2.5,1.6s.4-.7.8-.8h.4c.3.1.3.2.3.4s-.1.3,0,.5a1.4,1.4,0,0,1,.2.6c.1.5-.3.8-.7,1.2s-.9.6-1,.9.1.5.3.9a1.9,1.9,0,0,1-1.4,2c-.1-.7-.3-2.1-1.2-2.3s-.8.3-.8.6.4.6.6.9l-.8.2c-.3.1-.4.3-.6,0s.1-1,.2-1.3,1.3-1.9,1.8-2.9a3.9,3.9,0,0,0,.5-3c-.2-1.1-1.3-.7-2.2-.4a1.6,1.6,0,0,1,.5-1.1c.3-.3.5-.2,1-.3a2.2,2.2,0,0,0,2-1.2c.2-.4.1-.4.5-.7a2.8,2.8,0,0,0,.6-.9,13,13,0,0,1,1.4-2.9c0,.5-.1.9.4,1.2a1.3,1.3,0,0,1,.7.4c.2.1.3.4.5.1s-.1-.5.1-.6.5,0,.7-.2-.5-.8-.5-1.2.6-.9,0-1.4,2.6-.6,2.4.3-.6.5-.5.9a3.1,3.1,0,0,0,.5,1c.5.3.5-.3.4-.5a1.4,1.4,0,0,1-.2-.6c0-.3,0-.4.2-.5s.4-.1.6-.3.2-.8.2-1,.5.9,1,.9.5-.3.7-.1.4.7.5.9a1.7,1.7,0,0,1,.3,1,.8.8,0,0,0-.2.4c0,.2,0,.2.2.3s.9.9,1.4.8.4-.3.6-.5a.4.4,0,0,0,.1.3c.1.2.1.6.3.8a.1.1,0,0,0,.1.1c.1.2.4.2.7.2h0c.2.3.2.6.4.9h0l.2.2c0,.3.1.6.1.9s-1-.4-1.2.2v.7c0,.1-.1.4-.1.6h0l.5.2.2.4.5-.2a2.7,2.7,0,0,0,.9,0,2.2,2.2,0,0,0,.2,1.1c.1.2.1.6.3.8h.3v.2a.9.9,0,0,0,.1.5h-.2c-.1.1-.1.4-.2.6h-.1l-.3.3h-.1l-.4.2a.5.5,0,0,0-.5.3l-.8-.3c-.2-.1-.6-.4-.6-.6l.5-.5c.6-.9-1.7-1.2-2.3-1.2A2,2,0,0,1,47,81l1.5.5C48,81.9,48,82.4,47.7,82.9Zm2,24.8c-.9,0-.8-1.2-.4-1.2a10.7,10.7,0,0,1,1.7.6A1.6,1.6,0,0,1,49.7,107.7Zm1.5-10.3c-.8,0-1.1,1.2-1.1,1.2s-.6-.3-.3-1.5.9-1.7.3-2.3,0-2.5,0-2.5a1.8,1.8,0,0,1,1.6,1.4,23.1,23.1,0,0,1,.6,3.1A1.4,1.4,0,0,1,51.2,97.4Zm1.6-9.9c-.5-.3-1.2-1.3-1.9-.9s-.5.4-.4.7.7-.1.9-.2a2.7,2.7,0,0,1,0,.9c-.2.3-.9.4-1.2.5a1.2,1.2,0,0,0-.9-1h-.8c-.2-.2-.1,0-.2-.3v-.6c0-.4.2-.4.6-.4s.8.3,1,.2-.3-1.2-.5-1.4.7-.9.9-1.4.5.6.9.8h0c-.2.1-.6.2-.7.4s.3.7.5.9a6.9,6.9,0,0,0,2.5.4A6.1,6.1,0,0,1,52.8,87.5ZM61,106.8c-3.1-4.7-8.3-4.1-7.9-9.2C55.6,100.4,62.1,101.9,61,106.8Zm1.9-9.5L61.7,101a6.7,6.7,0,0,1-.5-1.9,4.5,4.5,0,0,1,.5-1.9,6.4,6.4,0,0,0,.2-.7c.2-.6.3-1.6-.3-1.8a1.3,1.3,0,0,1-.6-2s2.4.3,2.4,1A7.7,7.7,0,0,1,62.9,97.3Zm2.4,9.5c-.2-.3-.7-.2-.7-.6s.1-.7.1-1a6.5,6.5,0,0,0,0-1.4,10.9,10.9,0,0,1,.4-2.5c.5,1.6,1.1,3.2,1.6,4.8s1.2,3.4.4,4.7c-.4-.7-.4-2.1-.8-2.8S65.5,107.2,65.3,106.8Zm4.1-9c1.2,1.8.5,5.7.4,7,.1-.8-.7-2-2-4.8S68.8,93.4,69.4,97.8Zm-1.9-5.5,2.6.4v.5l-1.2,1.5c-.2.2-1.1-.7-1.1-1.1A8.6,8.6,0,0,0,67.5,92.3Zm-1.2,21.9c1.5-.1,2,1,2.3.9,1.4,3.2,1.6,4.9,2.4,9.2C68.8,121.4,67.1,119.2,66.3,114.2Zm4.3,1.2v-2.8l1.4,4.5S70.6,116.2,70.6,115.4Zm0-23.4a3.1,3.1,0,0,0,.4-1.2c0-.5-.9.1-.9.1s-.4.8-1.2,0l1.7-1.6c.4-.3,2.1.4,2.5,0s.4,1.2.4,1.2-.7,1.2-1.5,1.2A3.4,3.4,0,0,0,70.6,92ZM72,105.1c-.1-1.4-.1-3.4,1-4.5.7,3,1.4,6.7-.4,9.5-.3-.1-.2-2.1-.3-2.5Zm.3,9.1v-2.7s.8.2,1.2,1.5a13,13,0,0,1,.2,3.7S72.3,115.2,72.3,114.2Zm2.9,9.2a4.2,4.2,0,0,1-1.7,1.3v-2.4a7.7,7.7,0,0,1,1-2.6.7.7,0,0,1,.7.7C75.2,121.2,75.7,122.6,75.2,123.4Zm-.1-22.5c-1.4-.5-.8-3.1-1.2-4.2s-.1-.2,0-.5l.3-.3a4.2,4.2,0,0,0,.4-1c.3-.7.5-1.5,1.3-1.7C76.4,95.7,75.7,98.5,75.1,100.9Zm.6-32.6a10.1,10.1,0,0,1,.7-1.5,1.3,1.3,0,0,0,.4-.7c0-.4-.1-.3-.3-.6s-.2-.8-.5-.9-.8.4-1.1.7-.1-.8,0-.9h.8c.4,0,.9,0,.9-.5a1.9,1.9,0,0,0-.2-.8c0-.3,0-.4-.2-.3h-.4c-.2-.2,0-.7-.2-.9s-.7.2-1,.3,0-.6.1-.8-.1-.3-.2-.4l-.5-.3c-.2-.2-.4-.2-.4.1a10.4,10.4,0,0,0-1,1.8c-.2-.6-.8-1.5-1.5-.9a2.8,2.8,0,0,0-1,2.4c0,.5.1,1,.1,1.5s0,.6.2.7h.7c.1,0,.6-.1.7,0v.6A1.6,1.6,0,0,0,72,68c.3-.4.9-1.8,1.4-1.4s-.8.9-.4,1.4.3.4.5.3a1,1,0,0,0,.2-.7c.5,0,.3.5.5.9s.7.3.9.6-.2.6-.2.8a4.2,4.2,0,0,0,.4,1c-.4.2-.4.2-.4.6s0,.4.4.6a2.3,2.3,0,0,1-1.6,1.3H72.4l-.4.2a.9.9,0,0,0-.3.6c-.6,1.6.8,3.1,2,4a5.5,5.5,0,0,0-1.8,3,.5.5,0,0,0-.4-.6c-.6-.1-.6.5-.5.9s.6.8.7,1.3,0,.4-.2.5l-.5.2a.4.4,0,0,0-.1-.3c-.5-.4-1.7-1.1-1-1.8s.9-.9.6-1.2-.8.3-1.1.3.2-1.2-.5-1.9l-.9-.9c-.3-.3-.5-.2-.9.1a2,2,0,0,0-.4.8c0,.2.6.7.7.9s.2.5.5.5.4-.2.6-.2a12,12,0,0,1,0,1.9c.5.5.5.2.5.6s.5.9.2,1.2a1.3,1.3,0,0,0,.2,1.4,4.6,4.6,0,0,1,.7.7c-.5.2-1,.4-1.1.3a2,2,0,0,0-.8-.3h-.7s.3,0,.3.7.3-.1,1.2.3l.6.2a2,2,0,0,0,.2,1.1H69a2.8,2.8,0,0,1-1.1-1c-.3-.6-1.2-.2-1.5-.5s-.4-.8.2-.8.3-1.8.3-1.8v-.7h-.1c-.4-.1-.6,0-.6-.5s.1-1.2-.2-1-.7-.1-.4-.6.8-.9.5-1.2-.4-.8-.6-.7-.7-.1-.8,0-.6.7-1,1,.1-.6-.6-1l-.5-.3c.1-.2-.4-.3-.4-.3s-.1-.3,0-.3a1.5,1.5,0,0,1,.9-.2h.1v-.4c.1-.1.4,0,.4,0a5.6,5.6,0,0,0,0-1.3,1.4,1.4,0,0,0,.2-.6h-.3a1.5,1.5,0,0,0-1-.9c0-.7.7-.6,1.3-.7h.4V74c.1-.2,0-.5,0-.6v-.2h-.1c0-.1-.1-.1-.1-.2h-.1c-.2-.2-.4-.3-.5-.6s.5-.9.3-1.2l-1-.2a3.8,3.8,0,0,0-1.5,0c-.5,0-1.7.1-1.7.7h-.7c-.2,0-.3,0-.3.1s0,.1-.1.2v1.3h0c0,.1.1.4.2.4s.5-.2.6-.2h.2l.2.2c.3,0,.3.2.1.3l-.4.5L58,75.2l-.7.2h-.1v-.5h-.4l.3-.7v-.4h-.6v-.2h0V72l.5-1.1a3.2,3.2,0,0,0,.3-1.4c.1-.3,0-.4.3-.6l.5-.2A3.9,3.9,0,0,0,60,67c.1.2-.1.5,0,.8s.1.2.4.1.7-.8.9-1.1.3-.7,0-.9-.6.1-.7-.2.3-.6.4-.6a.4.4,0,0,1,.5-.2c.1.1.1.6.2.7s.7.3.9-.2-.1-1.1.4-1.3.3.1.5.1.5-.6.6-.7a4.1,4.1,0,0,1-.1,2.2c-.1.2-.6.9-.5,1.1s.6.3.8.3,1.1-.7,1.7-.8.5.1.8-.3l.6-.5c1.1-.7,2.4-1.1,2.4-2.6s0-.7-.4-.9-.7-.4-.7-.7.1-.5,0-.8a1.3,1.3,0,0,0-.5-.9L72,60c-.2-.7.6-.9.5-1.4s-.4-.5-.4-.7.3-.6.4-.8.2-.1.1-.3l-.4-.3c-.2-.1-.3-.2-.6,0a1.7,1.7,0,0,0-.8,1.3c-.3-.2-.7-.5-.4-1s.6-.5.6-.9-.7-.3-.8-.7a8.6,8.6,0,0,1,.1-1.6c0-.5,0-.7-.5-1l-.6-.2c-.1-.2-.1-.2,0-.5s.1-.4.1-.6a2.6,2.6,0,0,1,.7-1c.2.2.3.5.6.6s.4-.2.6-.4.9.4,1.4,0,.2,1.7.9,2.1a.5.5,0,0,0,.7.1c.2-.1.2-.7.4-.9s.7-.5.8-.7-.3-.9-.3-1.1a4.1,4.1,0,0,1,0-2.2c.4.7.4,1.7,1,2.3a.8.8,0,0,0,.3-.9c0-.1-.1-.3-.1-.4s-.2-.2.1-.4.8-.9.5-1.7.9,1.5,1.6,1.1.4-1,.7-1.2.9.5,1.1.6a3.7,3.7,0,0,0,1.5.1c.2,0,.4.1.6,0h.4a1.2,1.2,0,0,1,1.6,1,1.6,1.6,0,0,0-1.6.7,2,2,0,0,0-.3,1.1v.4l.7.3.2-.7c.5.6,1.5.3,2,1s-1.2.7-.9,1.3.4.2.5.5-.1.6-.2.9-.6,1.3-1.2,1.7a24,24,0,0,0-2.3,1.1,1.7,1.7,0,0,0,1.8.3c.4-.1.5-.3.7.1a2.2,2.2,0,0,1-.1,1.1c-.1.5-.4,1.3-.1,1.8a.7.7,0,0,0,.6.4c.4.1.2-.4.2-.7a1.4,1.4,0,0,1,0-.9c.2-.4.4-.2.7-.4s.1-1-.1-1.4-.3-.5.1-.8l.7-.6a1.6,1.6,0,0,1,1.5-.2c-.1.2-.2.8-.4,1s-.5-.1-.7.1-.1,1.6,0,2.2l1.3-.4c.3-.2.5-.8.6-.1s-.4,1.8.3,2.5,1.4-.7,2.2-.5-.2,1.4,0,1.9a4.5,4.5,0,0,0,1.9-.5l.9-.4.4-.3c.2,0,.3-.1.2-.3s-.3-.6-.3-.9a.4.4,0,0,1,.1-.3q.2-.3.3,0c.2-.1,1.1-.4.9-.8s.7.2.9,0,0-.4.1-.5.7-.1.6.4-.4.8-.5,1.2a11.1,11.1,0,0,0-.7,1.6c-.2.4-.6,1.3-1,1s-.2-.6-.8-.6-.8.4-1,.9-.1.2.2.5a1,1,0,0,1,.5.6c-1.9-.9-2.3,2-2.6,3.1-.7-.8-.5-1.8-.4-2.9s-.5.1-.8-.1-.4-.7-.6-.9-.6-.4-.9-.1a2.8,2.8,0,0,0-.3,1.3,3.9,3.9,0,0,1-.6,1.3.3.3,0,0,1-.4.2c-.2,0-.2-.3-.2-.5s-.3-2.2-.4-3.2h-.7l.3-.9c-.8-.1-1.4-.3-2,.2s-1.2.8-1.9.2l-.2.9a1.5,1.5,0,0,1,.9.2c.2.2.3.5,0,.6s-.5-.1-.8,0l-.2.3c-.3.3-.2.3,0,.5s1.1.4,1.3.7-.1.8-.1,1.1-1,.4-1.5.1-.5-.3-.6-.6-.2-.8-.7-.7a2.3,2.3,0,0,0-.7.7c-.2.3-.7.7-.4,1.1s1.6.6,2.3.9.3,1.1.2,1.7-.6-1.2-1.1-.7.1,1.4.1,1.8-.9-.1-1.3.5-.9,1.1-1.6.5l1-.6-1.2-1.6C76.7,68.1,76.3,68.2,75.7,68.3Zm11.9,1,.9-1c0,.4-.1.7.3.9h.7c.3.2.1.4-.1.7a12.7,12.7,0,0,0-.6,1.8c-.1.2-.2.7-.4.8a1.1,1.1,0,0,1-.8-.1A1.8,1.8,0,0,0,87.6,69.3Zm-.9,3.2a8.7,8.7,0,0,1,.9,1.2h-.5c-.3,0-.5.6-.8.6s-.7-.6-.7-.6-1.1-.4-1.1.6-.6,1-.6,1l-.7-.8s.1-1.4.3-1.4.1-1.4.5-1.4.5-2,.5-2,2.8,0,2.8,0a5.5,5.5,0,0,1-.3,1.6C86.7,71.5,86.3,72.1,86.7,72.5Zm-8.5,36.8c-.2.9-.5,1.9-.8,2.8a4.4,4.4,0,0,1-.6,1.6,11.8,11.8,0,0,1,0-5.6,9.4,9.4,0,0,1,1-2.3c.3-.5,1-1.7,1.7-1.6A31.8,31.8,0,0,1,78.2,109.3Zm1.3-27.5c-.7.7-.2,1.3-.6,1.7L78,84.6a10.6,10.6,0,0,1,.4-2.8,5.2,5.2,0,0,1,1.7-2A1.6,1.6,0,0,1,79.5,81.8Zm.8,3.2c.1-1.3,2.6-3.4,2.6-3.4v1.2a2.1,2.1,0,0,0-.7,1.6c-.2,1.2-.1.9-.3,1.1a14.6,14.6,0,0,1-1.8,1.1A11.9,11.9,0,0,1,80.3,85Zm1.8,26.6a5,5,0,0,1-1.4,1,6.3,6.3,0,0,1,0-2.1,7,7,0,0,1,1.4-2.7l.4-.7.7,1.3S82.7,111,82.1,111.6ZM81.3,96a7.1,7.1,0,0,1,0-2.9,16.7,16.7,0,0,1,.8-3c.3-.9.8-1.7,1.2-2.6l.8-1.3c.2-.3.5-1.1.8-1.2.8,1.8-.1,4.1-.9,5.7S82.1,94.2,81.3,96Zm8.2,1.9c-.4.9-.6,1.9-1.1,2.8a14,14,0,0,1-3.9,4.5,14.3,14.3,0,0,1,1.8-5.5,10.8,10.8,0,0,1,1.8-2.4l1-1.2c.3-.3.7-.8,1-.9A8.8,8.8,0,0,1,89.5,97.9Zm.2-6.5a6.9,6.9,0,0,1-1.1,1.3,19.2,19.2,0,0,1,2.5-5.2l1.8-1.7c.4-.4,1.4-1.3,1.8-.9a45.6,45.6,0,0,1-3.1,4.2Zm4.2,5.8c.2-2.7,2.3-3.4,4-4.9A7.8,7.8,0,0,1,93.9,97.2Zm4.8,1.7c-.3.2-1.6,0-1.6,0s.2-1,.5-1.3,1.4-.2,1.4-.2A5.6,5.6,0,0,1,98.7,98.9Zm4-3.9h-1.4l-1.6-.3s-.2-.6.7-1l1.3-.5s.7.6,1.1.6S102.7,95,102.7,95Zm-.6-7.2c-1.5,2-3.6,2-5.5,3,.7-.4,2.2-2,3.6-2.8S105.9,85.8,102.1,87.8Zm15.6-2.7a3.6,3.6,0,0,1-1.6.7A5.5,5.5,0,0,0,113,88a3.1,3.1,0,0,1-1.6,1.3c-.2.2-1.5-.3-1.5-.3a3,3,0,0,1,1-1c.5-.2,1.2-1.1,1.8-1.4s1.1-1.1,1.1-1.1l-.6-.2a5.4,5.4,0,0,1-2.3.7c-1.2,0-.9,1.6-1.1,1.6h-.9s.1-1.4.7-1.6,1-.9,1-.9.7-.7,1.1-.7l.7-.2c-.1-.5,0-.8-.3-1.2s-.9-.7-1.1-1.2-.3-.9,0-1.1l.6-.2h.5c.3,0,.4.1.6-.1l.3-.7c0-.2.1-1.2-.5-1s-.1.6-.6.4l-.9-.2c-.5-.1-.5,0-.6.4s-1,0-1.5.1-.5.3-.6.2v-.4h.5l-.3-1a6.7,6.7,0,0,1-2.4.7c.6.5.9,1.2,1.7,1.4s-.3.4-.6.6-.5.2-.2.5.7.3.8.6-.3.3-.5.1-.3-.5-.7-.3a.5.5,0,0,0-.3.5c0,.4,1.2,1.7.8,2s-.8-1.2-1.3-1.7-.4.9-.9.8-.2-.7-.2-1-.5-.4-.8-.7-.3-.3-.8-.4v2.2h-1.9a9.4,9.4,0,0,1-.3-.9,1.8,1.8,0,0,0-.5-.7l1.5-.5a2.5,2.5,0,0,1-.4-1.7c-.5,0-2.9.3-2.3,1.2a.8.8,0,0,0,.4.4c.2,0,.2.1.1.2s-.5.4-.6.5-1.3.6-1.5.3a2.8,2.8,0,0,1-.1-.9c-.1-.5-.1-.4.3-.6a.8.8,0,0,0,.4-1,1.5,1.5,0,0,0-.1-.7c-.2-.3-.3-.3-.6-.3s-.3,1-.2,1.5-.6-.5-.6-1.1a7.7,7.7,0,0,1,.2-1.5c.3.2.4.4.8.3s.8-.1,1.1.2.7-1.1.5-1.7-1.6.5-2.1.2-.3-.6-.5-.7a.9.9,0,0,1,.1-1.1v.8c.6-.3.2-1.1.6-1.4l.3.7c.8-.3,1-1.2,1.3-1.9s.6-.9,1.2-.3a1.4,1.4,0,0,0,1.9-.5c.3-.4.2-.2,0-.6s-.1-.3,0-.5.3-.6.5-1l.3-1a2.9,2.9,0,0,1,.7-1.2c.5-.5.7,0,.9.5h0a5.6,5.6,0,0,0,1.5-.7l1.2-1.2h-1.2s-1.8.9-1.3-.2.5.2,1.3-1,3.6.3,3.6.3a2.4,2.4,0,0,1-.6,1.2c-.5.5-1.7.6-2,.9a5.7,5.7,0,0,0-.8,1.6h.7c.5,0,.9-.1,1.2.3s-.6.5-.6.9.3.4.7.5-.6.5-.7.8.6.5,1,.5.9.4,1.3.2.2-.8.2-1.2a10.8,10.8,0,0,1,1.2,2.4,4.5,4.5,0,0,0,.6,1.2,2.7,2.7,0,0,1,.7.8,2.4,2.4,0,0,0,1.8,1.3,5,5,0,0,1,1.2.2,1.3,1.3,0,0,1,.5,1.2c-.5-.2-1.4-.6-1.9-.2V78c-.2.3-.1.3,0,.5l1,.7-.8.2c-.3.1-.3.1-.2.4s.8.5.9.9-.5.5-.5.9a4.1,4.1,0,0,0,.5.9,7.1,7.1,0,0,0,2.1.2c1.1,0,1.1.2,1.1.2Zm10.5-.8c-.3.3-1.2,0-1.2,0l-.5-.7s-1.3.1-1.3.5-1.1,0-1.1,0,0-.9.2-.9.6-.4.6-.9,1.7-.2,1.7-.2,1.3-.1,1.3.4.9.8.9.8A4.1,4.1,0,0,1,128.2,84.3Zm3.6,3.3c-.3,0-.4.4-.4.4s-.6.4-.8-.1-.9-.6-.9-1.3a2.9,2.9,0,0,0,1-.5c.3-.3.7-.7.9-.4s.4.9.4.9S132.2,87.6,131.8,87.6Zm.3-10.1c-.2.4,0,1-.2,1.3s-.5,0-.8-.1a2.9,2.9,0,0,0-1-.3c-.5-.1-.8-.2-1.2.1a1.9,1.9,0,0,1-1,.5c-.6-1.3,1-2.7.2-3.9s-.7-.1-1.2.1-.6.2-.6.4a2.1,2.1,0,0,0,.3.7c-.9.1-1.4-.8-1.5-1.6s-.5-.5-.9-.8-.3.6-.3.6-.1.8-.7.8,0-1.6,0-1.6l.5-.4c.2-.2-.3-1.5-.3-1.5l1.2-1.6,1-.5c.7-.3,1-.4,1.2-.2s.9.4,1.3.8a.6.6,0,0,1,.2.5c.2,0,.4,0,.5.2a1.6,1.6,0,0,1,.5,1c.1.3,0,.3.3.4h.4c.2.1.2.2.2.5a3,3,0,0,0,.6,2c.5.5,1.6.7,1.6,1.5A2.9,2.9,0,0,1,132.1,77.5Zm9.8,3.1a2.9,2.9,0,0,1-.6,1,22.5,22.5,0,0,0-1.6,1.6s0,.2-.8-.5a1.8,1.8,0,0,0-1.4-.6.7.7,0,0,1-.3-.5c0-.4-1.1-.3-1.1-.3s0,.8-.4.8l-1.5-.5a1.8,1.8,0,0,1,1-.7l1.3-.4-.8-.4c-.2-.3-1.2.4-1.2.4s-.9.3-.9-.3V79.1s1.2.6,1.4-.3,1.5-1.1,1.5-1.1,1.3.3,1.3.9,1.3.6,2.1.6h1.5s-.5.6.3.6S141.9,80.6,141.9,80.6Z"/>
        </g>
      </g>
    </g>
  </g>
</svg>
