<svg xmlns="http://www.w3.org/2000/svg" xmlns:xlink="http://www.w3.org/1999/xlink" viewBox="0 0 39.3 39.3">
  <defs>
    <style>
      .cls-1 {
        fill: url(#Greens_18);
      }

      .cls-2 {
        fill: #fff;
      }
    </style>
    <linearGradient id="Greens_18" data-name="Greens 18" x1="29.45" y1="2.63" x2="9.82" y2="36.64" gradientUnits="userSpaceOnUse">
      <stop offset="0" stop-color="#303030"/>
      <stop offset="1" stop-color="#0e0e0e"/>
    </linearGradient>
  </defs>
  <title>Asset 11</title>
  <g id="Layer_2" data-name="Layer 2">
    <g id="Layer_1-2" data-name="Layer 1">
      <g>
        <circle class="cls-1" cx="19.6" cy="19.6" r="19.6"/>
        <path class="cls-2" d="M9.6,29.7h0a1,1,0,0,1,0-1.6L18,19.6,9.6,11.2a1,1,0,0,1,0-1.6h0a1,1,0,0,1,1.6,0L19.6,18l8.5-8.4a1,1,0,0,1,1.6,0h0a1.2,1.2,0,0,1,0,1.6l-8.4,8.4,8.4,8.5a1.2,1.2,0,0,1,0,1.6h0a1.2,1.2,0,0,1-1.6,0l-8.5-8.4-8.4,8.4A1.2,1.2,0,0,1,9.6,29.7Z"/>
      </g>
    </g>
  </g>
</svg>
