<svg xmlns="http://www.w3.org/2000/svg" viewBox="0 0 551.32 634.59"><defs><style>.cls-1{opacity:0.34;}.cls-2{fill:#bcffcd;}</style></defs><title>Asset 15</title><g id="Layer_2" data-name="Layer 2"><g id="Layer_1-2" data-name="Layer 1"><g class="cls-1"><path class="cls-2" d="M515,330.88c2,1.35-.59,2.25,1,4.57-4.12.15-2.39-3.22-1-4.57ZM478.78,330c0,5.46-6.88,4-10.92,5.46-.69-5.24,1.19-7.93,2.76-10.92-2.61-1.72-3-3.74-.89-6.29,4.11.37,7.55,1.5,9.95,3.59-.9,1.42-5.24,7.33-.9,8.16Zm-28.13-70.72c-1.65,1.65-3.3,3.37-2.7,7.27,2.77.67,3.3-.91,5.46-.91a20,20,0,0,1-1.87,5.47c-1.12-.37-1.42-1.65-2.69-1.87-.75.22-.9,1-1.8,1,.3,2.1,1.42,3.37.9,6.29-1.72-.38-2.16-2.55-5.08-1.8-.75-3.44,3.15-3.52,3.15-4.49v-1.87c0,.52-4-1-4,.75-.75-2.54,4.36-6.66,5.71-9.81-1.13-1.57-4.89-.07-5.33,3.67-3.22-2.17-4.38.45-5-3.67,1.64-1.19-.92.83,8.63-.89V252c0,1.79,4.07,4.71,6.84,1.79-.67,3.52,1.28,3.52,3,4.57-.44,2-4.54,4.19-5.21.89Zm-6.29,59.86c-1.72.3-4.19-4.56-4.56,0-1.35-.82-1.35-2.91-1.81-4.56,3.67-1.95,4.79-3.29,9.06-.89a9.47,9.47,0,0,1-2.69,5.45Zm-17.29-36.28c-.37-2.84,2.48-2.4,2.77-4.49,1.72,2,2.77,4.71,6.29,2.69-.16,5.76-6.58,5-9.06,1.8Zm0,20.87c-8,3.18,8,11.6,4.56,19-1.19-.9-3.36-.9-4.56-1.8,0-1.8,2.48-1.12,1.87-3.66-3.95-5.39-7.4,2.92-7.26,7.25-2.84-1.71-5.68-3.36-5.46-8.15,1.8.07,1.13,2.47,3.59,1.87-3.81-2.24-.07-7.56-3.59-10.93-1.57.83.35,2.85.58,5.46-2.93-1.64-5.8-5.75-5.8-5.46v-1.79c0-2.92.55-1.27,1.23-2.7a9,9,0,0,0-4-5.46c-2.84-.07-6.77,2.85-6.77,1.8v-1.81h2.05c.31,0-.82-2.46-.89-3.66-3.6,2.25-5.32,1.43-9.06,2.33,2.25,1.64,2.92,4.71,6.36,5.16-.82,1.34-1.35,2.8-3.67,2.65-.15,3.22,4.27,1.74,3.67,5.33-3.22-.29-1.8-4-5.46-1.81-1,4.71,4.56,6.34,2.76,9-1.72-1.94-2.84-4.42-4.55-6.29-1.73.3-.76,3.51-3.6,2.69-4-2.17,3.07-5.46-3.67-5.46-1.64-3.36,1.43-5.84-1.79-7.26-2.69.82,2.18,2.92,1.65,4.56-1.87,1.94-2.9-.82-2.9.9v7.25c0,1.73-4-.74-7.05,0-.67-2.09-.83-4.55-3.59-6.35,2.24-.53,2.57-.75,5.94-1.8-1.49-2.92-1.55-1.94-1.1-6.36a20.72,20.72,0,0,0-9.16,2.69c-.15,2.32,1.3,2.85,2.65,3.67-1.35,3.22-6.09,3-9.08,4.49,1-2.84.43-2.39-.93-4.49-1.86,1.72-5.08,2.17-7.25,3.6-.53,3,.59,4.26.88,6.35-3.13.75-3.81-1-5.45-1.8-2.63.76-1,1.35-.9,3.6-6.29-.9-8.23-6.21-11.75-9.95-1.57.89-.68,4.19-2.76,4.56-3.45-.82-.68-3.67-.91-6.36-1.72-3.37-7.11-3.14-9.05-6.36-3.74.23-6.81,1-6.36,5.46-3-2.17-4.49-.3-6.28-3.66a2.55,2.55,0,0,0-2.78,1.86c-.44,4.35,3.89,4,3.67,8.16-1.34-.52-3.3-1.34-4.65-1.86-2.62,1.27,5.87,5.9-3.68,5.46v-5.46c0-1.28-2.46-1.35-3.58-2.7,1.35,3.82,2.28,3.82.49,7.25-2.91-2.31-1.17-9-2.45-12.71,4.94,4.11,3.49-2.17,7.39-3.59-1-2.1-1.81-4.27-4.51-4.57-1.56,4.12-9.09,5.16-5.34,11.82-1.8-.37-2.32-1.94-4.56-1.8-.08,3,2.1,3.9,3.6,5.39-.15,4.12-4.79,3.67-5.38,7.26a4.9,4.9,0,0,0-2.77-.89c-.45-4.72,4-4.57,2.77-10-4.72-.37-2.39,1.88-3.66,3.59.81-5.39-3.07-8.9-6.37-12.64,5.31-2.77,11.75-12.05,5.46-18.18-3.66,2.09-10.07-1.58-11.65-4.49.31-1.27,1.91-.75,1.91-.9v-2.77c0-1.2-.55-.75-1.91-.9,2.26-3.29,1.83-5.61.85-7.26,1.95-.75,4.62-.3,4-5.39,3.74-.45-.61,2.4,3,2.7,2.7-1.35,1.68-5.54-.8-6.36,2-2.62,3.95,4.18,5.45,5.15,2.09-1,.42-6.67.95-6.67h5.46c1.57-15.91-.38-12.56-3.59-17.87-2.69.07-3.36,1.35-4.56,2.92-.75,5,5.31,2.77,5.46,6.89-1.86,1.94-3.59-.49-5.46-1.09,0-5.46-2.85-8.09-4.57-11.91-1.27.53-2.24,1.3-3.59,1.75-.67,2.84,2.47,1.77,1.8,4.54-2.25.15-2.78-1.43-4.49-1.81-2.1.38.55,5.31-3.57,3.59-.22,4.19-4,6.28,5.57,6.35v4.57c0,.67-.7-4.86-4.67-3.67-1.2,1.72,0,3.07-2.74,4.57.66,4.18,4.31,5.31,4.54,9.95-4.34-4.49-7.51,3.51-10.05,6.36.91,1.2,3.06,1.2,3.66,2.69-6.28,4.79-6.51-8.91-10.92-3.59-.75-3.52,1.5-5.84,0-7.26-3.36-1-1.42,3.37-4.49,2.69,1.65-1.57-.74-2.31,0-5.46,2.93-2.47,9.74-1.12,10.85-5.38-2.69-1.28-2.54-5.32-6.36-5.47-.15,2.92-3,6-8.16,6.36-1.49-1.2,0-5.46-2.69-5.46,3-.6,4.64-2.54,7.26-3.59-.22-1.42-3.37-4.34-4.57-1.87-3.07-3.44,2.4-3.29,3.67-3.59a4.83,4.83,0,0,1-.89-3.6c-2.55,4.12-5.69.38-9.06-1.86-3.52.59-3.29,0-5.46.89-.15,1.65,1.12,1.95.9,3.67a3.86,3.86,0,0,0-2.7-.89c.68,1.79-2.24,12.56-1,13.61-4.2,2.09-4.79-7.26-6.28-10.92-5.09-.53-3.67,7.18-8.16,4.56.37,4.86,1.42,8.53-1.5,11.37.3-1.27-2.46-5.91-3.07-10.47-2.84-1.8-4.71-3.15-7.25-.9a7.91,7.91,0,0,1,3.67-3.67c-1.27-2.09-1.65-5-5.47-4.49-1.34,1-.9,4-4.56,2.7-1.28,3.44,2.54,1.71,1.87,4.56-1.05-.15-1.65.15-1.87.9-4.86-6.21-5.92-14.52-5.39-21.77,1.27.07,2.54.14,2.69-.9.15,1.27-1.42,5,3.59,2.69-.45,2.32-1.49,3.52,1.87,3.67-.37,2-5-.15-4.56,2.69.3,1.2,2.24.75,3.67.9,1.27-1.12,1.35-3.44,2.69-4.49,2.24,1.12-.3,5-1.8,5.38,4.13,1.28,7.64,4.72,14.52,5.47.08-2.85-2.91-2.62-1.88-6.36,2.85-2.4,6.29.45,8.17,1.8,5.76-1.8.44-10.48,3.66-11.75,1.19,4.41,5,.52,6.36,4.49-.82-2.25,1.57-4.49,0-9.06-.44-1.34-1.2.38-2.77,0a33.3,33.3,0,0,0-1.79-4.49c3-1.72,8.15,2.1,10,4.49-1.65,2.77-2.24,3.15-2.69,5.47.22,1.57,1.57,2.09,3.59,1.79,1,3.82.44,2.84,0,7.26,2.31.15,2.84-1.43,3.67-2.7-.3-4-2.1-7.93-.9-10.92,3.52,1,5.16,2.32,9.05,0-2.54-3-10.54-2.47-11.82-9.05-1.57.82-4.86,0-4.49,2.77-1.87-2.85.52-9.14,4.49-9.14.82-3.81-1.43-4.56-3.59-5.38,2.31-3,6-1.12,7.26-3.67,1,.15.75,1.65.89,2.77a4.37,4.37,0,0,1,2.69-1c-.29-4.79-1.19-9.06-7.25-8.16.68-4,2.84-4,6.36-4.5-.07,1.65,1.12,1,.89,1H253c1.28,0,1.88-2.69,5.47-2.77a5.72,5.72,0,0,0,2.69,4.95c2.93-.68,1.28-5.31,5.47-4.71-1.58,3-.31,5.87,2.69,6.7-1.06,3.14-2.17,3.61,0,6.45,2-2.17,2.32-6.05,3.67-9,2.68,3.67-.23,9.54-.9,12.76a6.47,6.47,0,0,1,4.49,6.38c4-1.19,5.83-4.47,5.46-10,1.94,4.12,5.61-3.22,6.36,2.77,2.24.15,2.84-1.41,3.59-2.76,2.32,1.65,3.06,4.79,3.66,8.15-2.91-.74-2.83,1.43-4.56,1.87-.14,3.45,0,6.66.9,9.06-1.64-.15-1.87,1.12-3.59.9.68,2.24.08,2.84,2.69,4.49.9,3.07-1.65,2.77-1.87,4.71-.14-2.47-.9-5.61-4.48-6.51-1.2.38-1.43,1.65-2.7,1.8,1.79,2.17,3.9,4,.9,6.36-.15,2.62,3.07,1.79,1.8,5.46,4.63-1.12,9.95-.6,14.51-1.8-1.73,2.1-3.74,3.82-1.8,7.26-1.65.83-2.61,2.17-4.56,2.7-1.27,11.15,9.65,10.17,11.82,15.41,5.62-1.35,6.81,5.39,11.75,1.8-2.39-4.64-3.06-6.59-2.7-12.65,1.05.23,2.25,4.79,3.6,1.8,4,1.64.45,5.84,3.66,7.26,2.4.22,2.33-2,2.69-3.67,2.93-.75,1.87,2.39,3.67,2.77-.14,1.65-3.07.52-3.67,1.79.46,3.44,2.7,5.17,4.57,7.26,1.95.15.37-3.21.9-4.56,1.5,4.49,5.84,6.28,9.95,8.15.3,6.73,2.84,9.21,5.47,14.52,2.76.67,1.72-2.47,4.49-1.8-.15,1.95.74,2.85,2.76,2.7-1,1.12-2.62,1.64-1.79,4.56,2.84.45,3.66-1.12,4.49-2.77,1.72,1.95,5.3,1.95,4.56,6.37,3.59-2-.9-10.11,5.39-10.86-1.27,1.95-3.89,5.54-1.8,8.16,3.89-1.57,3.44-7.48,6.36-9.95,2.85-.45,2.4,2.39,4.56,2.69,3.3,0,4.05-2.54,6.29-3.59-3.36-4.19,1.05-5.39,1.88-10,4,4.34,7.85-3.14,1.79-3.59.15-.75.9-.9.9-1.8.75.16.82-.37.89-1,5.32,1.65.07,9.88,6.36,9.13.76,3.15-1.35,3.44-.89,6.29,3.07.67,1.49-3.29,3.59-3.6.45-2.83-2.78-2-1.79-5.46,2.54-.22,7.25-1.87,9,.9-2.16-.07-5.08,5.39,0,4.56,0,2.4-2.83,1.95-2.69,4.57,1.13,1.72,4.34-1.42,3.6,3.59,2.91,1.12.67-2.92,3.67-1.79-.45.82-.84,1.57-1.87,1.79.22.75,1,.9,1,1.8,3.59-1.35,3.22-5.09,2.7-9,4,5.38,3.82,8.52,7.25,14.51,3.22.22,4.34-1.65,7.27-1.8-.16,2.85-2.1,4-5.47,3.6A9.76,9.76,0,0,0,428,288.31c1.19,1.57,3.06,2.4,2.77,5.39-2.92-1.12-7.26-3-8.15,1,4.19,3,10.47,9.05,12.64,9.05Zm-15.42,45.35c-1.86-1.64-2.61-2.09-5.37-1-.38-3.29,2.23-3.74,4.48-4.5,0,2.1,1.57,2.62.89,5.47Zm-10.84-27.24c-.22,2.4-.3,4.56,2.69,3.67-.74,1.27-1.35,2.84-3.59,2.69-1.2-1.87-.59-5.46-3.67-5.46-1.94-.15-2.84.75-2.69,2.77-6.5-4.34,8-3.07,4.56-7.26,2.48,1.42,4.42,4,8.17,1.8-.53,2.16-3.52,3.74-5.47,1.79Zm-4.57,11.82c-.75-2.91,1.43-2.84,1.87-4.56.6,2.39,5,1,4.5,4.56-3.6,1.5-2.78,1.5-6.37,0ZM392.66,389c-1.06-3.82,1.87-3.59,1.79-6.36,3.07-.67,3.29,1.5,3.66,3.59-4.49-1.72-2.47,3-5.45,2.77Zm-7.27-32.7a4.39,4.39,0,0,0,2.7,1c-.16-3.67-1.27-6.37-4.49-4.57-.75-2.54,1.27-2.32.9-4.56,2.24.15,2.76,1.72,4.56,0a2.57,2.57,0,0,0-1.87-2.7c1.57-2.54,2.4-.82,5.47-.9-.15,2.62-.15,4.94,2.69,4.57,2.54-1-.22-3.9,0-5.47,4,.38,2.32,4.5.89,6.37-4.18-.3-6.2,1.56-6.28,5.38.37,1.35,1.12-.3,2.7,0,.59,3.67-7.56,5.69-7.27.9Zm-2.69,29c-.52-2,1.72-1.27,1.8-2.69.07-1.64-1.12-1.95-.9-3.67a4.66,4.66,0,0,1,2.69,2.77,3.33,3.33,0,0,1-3.59,3.59Zm-1.87-22.67c-2.47-2.24-1.27-4,0-6.36,1.65.23,2.09,1.58,1.87,3.67-1.94-.45-1.72,1.27-1.87,2.69Zm-4.49,22.67c-.67-2.69-6.44-.22-6.36-3.59,5.09.53,6.44-2.62,10.85-2.77-.82,2.77-3.59,3.67-4.49,6.36Zm-11.82,5.46c-.38-4.18,6.5-4.41,8.16-3.66-1.8,2.09-5.69,2.17-8.16,3.66Zm-9.95-22.67c-.67-4.56,1.12-6.36,0-11.82a2.36,2.36,0,0,0,2.69-1.79c1.2,4.41,4,2.31,6.36,4.56-4,2-4,8-9.05,9.05Zm-2.7,26.26c-1.2-4,5-8.22,7.26-11.74,7.41,4-4.56,9.05-7.26,11.74Zm6.36-75.2c-3.29-.29-4.41,1.66-7.25,1.8a6,6,0,0,1-.9-4.56c3.22-.07,7.25.67,7.18-2.69,3.29.74.14,2.24,1,5.45Zm7.26,64.36c-2.16-4,4.86-6.58,7.19-9.06,1.56,3.37-6.21,5.24-7.19,9.06Zm3.59-46.25c.15-1.64-1.13-1.94-.9-3.59,2.63-.22,4.94-.15,4.5,2.7-1.58-.15-1.87,1.12-3.6.89Zm-7.26-20c.38-1.72,4.19-.08,2.7-3.59,2.84,1,.67,4.18,4.56,5.45-1.49,1.28-5.4,2.92-1.28,7.26,2.32.23-4.55-3.51,5-2.76v5.46c0-1.72-7.55-.15-6.87,3.59-2.1-.52-4.9-1.2-5.2-3.59.9,0,.33-1.12.55-1.8,1.87.45,1.62,2.7,3.42.9.3-1.49-.92-1.57-1-2.69-4.86-1-4.84,3-8.21,3.59.23-2.62-2-2.77-1.81-5.46,2.76-1.12,9.35.9,10.84-3.59.67-2.47-1.88-1.8-2.71-2.77ZM343.71,348.1c2.63-3.15-.29-6.22,2.71-9.06,1.11,2.54,4.41,2.92,6.35,4.56.22,2.62-2.1,2.78-1.79,5.47-3.37.6-3.89-1.57-7.27-1Zm0,2.76c3.6,2.7,1.35,11.3,7.27,11.75-4.87,2.1-7-6.28-7.27-11.75ZM342.82,378c2.84-.08.15,3.59,1.8,6.36-3.14.3-3.3-4.72-1.8-6.36Zm-3.67-18.11a3.91,3.91,0,0,0,.9-2.69c2,1,1.64,4.41,3.66,5.38-2.32,3.44-1.56-3.81-4.56-2.69Zm-1.79-44.45c.75.52,1,1,2.25.9-1.28,2.32-1.5,3.59-.23,6.36-2.1,0-4.78-1.57-4.78-.9v-4.56c0-.15,3.65,1,2.76-1.8ZM331,369.87c-.23-1.58,3-4.49.45-5.46.15-1.05,3.15-.75,3.15-.9v4.56a6.69,6.69,0,0,1,5-.9c-.75,4.79-5.85.75-8.61,2.7Zm3.67,14.52c0-2.47,2-4.35,3.58-2.7.3,2.4-1.87,2.32-3.58,2.7Zm2.69,31.72c-2.48,0-2.17-4.26-.9-5.46.82.6,1.57,1.13,1.79,0,2.1-1.95-.89,3.74-.89,5.46Zm-10-16.89h-3.67c-2.16,0,1.8,4.78-2.69,4.41,2.17,6.81-1.78,9.87-3.42,16.67-2.24-.88,1.06-9.05,1.06-8.75v-5.39c0-.07-1.88-.15-2,.89-1.87-1.11,2.16-4.26,4-4.56.37-2.17-1.46-1.94-.72-4.48a44.92,44.92,0,0,0,9.15-11.83c1.35,0,3.71,2.64,4.53.16,2.17,5.24-5.86,3.33-6.24,12.88Zm-4.56-94.6a4.82,4.82,0,0,0,.89-3.67,8.49,8.49,0,0,1,3.67,5.47c-2.24.14-2.84-1.43-4.56-1.8Zm1.8,27.16c.75,2,3.43,2,3.66,4.57-6.44,1.57-.59,8.75,1.8,9.95-2.25.45-5.7.45-6.37,4.56-2.09-.59-2.39-3.07-4.48-3.66a141.63,141.63,0,0,0,.9-16.32c2.17-.67,3.67,5.91,4.49.9Zm-6.29-16.31c1.12.37,1.42,1.65,2.69,1.8-.6,3.07-2.69,3.14-.89,6.36-4.5-.75.89-5.69-1.8-8.16Zm-2.77,55.3c.23-2.92-1.56-3.82-.9-7.26,1.65-.08,1.95-1.26,3.67-1.49.82-4.12-2.32-1-1.87-10.55h3.67c-.3,0,.15,5.24,1.79,5.17-.37,2.38-3.36,5.83-.9,8.45,2.78.67,1.13-2.55,4.49-1.28-2.47,2.55.83,4.11,1,6.66-4.12,3.21-2.18,17-10.93,20.12.67-8.3-7.33-17.21,0-19.82Zm-8.16,73.48c-7-13.39,1.43-22.45,4.57-34.5,4.93,10.85.82,28-4.57,34.5Zm2.78-64.43c4.11,4.42-.38,14.44,2.69,18.19-4.19,5.16-7.19,11.51-9.95,18.1-4.2-10.47,4.48-23.27,7.26-36.29Zm-5.47-53.43c-2.77,0-.9-4.56-3.66-4.56,1.72-2.62,5.68,3.22,3.66,4.56Zm-.9,6h4.49c-.37,3.19-.52,10.33-1.79,14.52-5.77-3.07,4-11.33-2.7-14.52Zm-3.66,44.75c0-6.81-6.66-21.09.9-25.36-1.35-2.84-.08-8.38-2.7-9.95-3.37,1.19.15,3.67-2.7,5.39-1.87-.53-.6-4.2-2.76-4.49.75-2.33,5.83-.23,5.46-3.67,8.23,5,.23,17.21,6.36,22.67-1.42,4.64-2.92,9.06-4.56,15.41Zm-3.59,94.29c-1.58-8.24-2-23.12,1.79-29,3.22,8.15-1.94,22.52-1.79,29Zm-10.93-129.6c2.32-.15,2.85,1.42,4.56,1.79-.75,2.1-5.61.9-4.56-1.79ZM283,413.42c-7.49-9.28-4-27.54-1.8-36.3,7.34,10,1.27,25.82,1.8,36.3Zm-4.57,98.77c-5.31-13.32-5.31-28.21-7.18-43.48,1.42-.29,1.5.83,2.69.9,1.72,13.93,6.06,25.29,4.49,42.58ZM273,421.57c5.68,8.84,5.83,27.84,5.38,39.89-8.6-9.58-8.24-23.88-5.38-39.89ZM270.24,350c5.16,1.49,4.11,9.2,8.15,11.74-3.14,4.42.23,15.27-5.38,17.21-2-9.8-4.49-20.27-2.77-28.95Zm1.87-32.7c2.77-2.85,1.71-7.78-2.77-8.16a5.76,5.76,0,0,1,.9-4.49c1.79,2,2.62,5.16,5.45,8.15.23,2.92-1,4.35-3.58,4.5Zm3.58,6.36c-1.79,1.27-3.51,2.54-2.68,6.36a12.83,12.83,0,0,1-1.8-9.95c4-.15-1.87,5.23,4.48,3.59Zm1.8,12.72c-2.09-.6-1.49-4-5.38-2.7.3-5.38,5.09,0,5.38,2.7Zm-.89-32.63c.82-1.57,1.72-3.14,4.56-2.77,1.73,2.62,1.65,9.73-2.77,9.13.23-2.09.45-4.64-1.79-6.36Zm-9.06,15.41c-1.56-.21-2.09-1.56-1.8-3.66,1.87-.37,2.4.68,3.6.9-.3,1.2-1.57,1.42-1.8,2.76ZM266.65,427c-4.34-13.47-7.12-24.17-10-36.22,8.16,1.58-4-7.92-2.77-13.62,5.25,3.9,5.76,12.43,10,17.21a4.92,4.92,0,0,0-2.77-.89c7.41,11.6,8.68,18.18,5.47,33.52Zm-15.42-13.54c-3.07-7.64-5.83-20.73-.9-7.26,4.19,4.49,4.79,12.72,7.26,19-1-2.39-4.42-7-6.36-11.74ZM240.38,417c-2.55-5.3-1.35-14.73-10.93-14.51-2.17-4.12-6.65-6-8.15-10.85,17.43,9.2,25.29,27.91,33.52,46.25-5.09-6.07-11.53-14.67-14.44-20.89Zm-18.18-7.25c10.93-5.46,13.76,11.15,18.18,18.11-6.13-5.91-15.27-8.91-18.18-18.11Zm-2.7-3.59c-4.56-3.67-9.8-6.59-13.62-10.93,10.33-1.87,10.41,6.59,18.19,7.26-.3,2.47-3.82,1.65-4.57,3.67Zm-29.93-14.52c-1.49-1.12-4.63-2.62-2.69-4.56,1.57.82,3.14,1.72,2.69,4.56ZM214,388c2.4,3.29,4.58,4.34,4.58,8.16-3.3-.91-5.47-3-8.16-4.5,1-1.87,4.94,1.95,3.58-3.66Zm36.3-26.27C245,346.15,232.59,335,236.72,319.13c7.48,12,15.41,23.65,13.61,42.58Zm-4.57-63.45c-1.56,2.39-6,0-5.38-2.7,2.69,0,3.07,2.33,5.38,2.7ZM244,263.84c1.29-2.09,1-5.69,4.58-5.46-1,2.39-1.5,5.16-4.58,5.46Zm3.67,9.05c1.73.38,1.58,2.55,4.5,1.8-.37,3.07-5.92,2.09-4.5-1.8Zm8.16,23.58c-1.35-.45.08-.83,0-1.8-1.27-2.24-3.14-1.65-5.46-1-.22-1.57.9-4.49-1.79-3.6.22-1,1.79-.59,1.79-1.79,1.65,2.62,7.93,4.27,5.46,8.16Zm-5.46,15.41c6.89,2.62,2.92,11.52,2.69,16.31-2.39-.9-2.46-4.19-4.48-5.46,1.94-4,3.44-5.61,1.79-10.85Zm-16.31,29c-1.87-3.3-5.46-4.79-5.46-10,1,.15,1.64-.14,1.79-.89,1.05.14.52.89,0,.89.52,4.05,3.82,5.32,3.67,10Zm-8.16-18.11c2.7,0,3.06,4.19,1.8,5.46-1.57-.82-2-2.84-1.8-5.46ZM225,337.24c10.1,18.94,25.73,34.5,26.26,58-8.61-7.85-9.81-19.6-16.31-28.06-.15-2.24,1.42-2.84,1.8-4.56-6-6.36-7.8-17-11.75-25.37Zm40.77-38.08c2.54,1.2-.67,4-.89,5.46-3.14-1.8,1.13-3.67.89-5.46Zm.91,45.95c2.69,3.18-.08,5.23.89,9.95-4-.83-2.4-6.77-4.49-9.95Zm-6.37-72.22c1.43,1.8-.44,6.21-2.69,7.26.07-3.22-.67-7.33,2.69-7.26Zm6.37,119.65c-5-11.59-12.95-20.28-13.63-36.29,5.09,11.6,11.09,22.22,13.63,36.29Zm-36.3-124.21c1.36,1.12,4,.82,3.67,3.67-2.55-.75-2.4,1.27-4.57.89-.74-2.54,1.27-2.39.9-4.56Zm-.9-10.85c.83-2.7,2.92.52,4.57,0,0,2.69.07,5.54-2.77,5.46.75-2.24,1.57-5.24-1.8-5.46Zm-6.35,0c2.08.67,2,3.44,4.56,3.59-5.24.9-6,10.25-.9,11.82-.3,1.2-2.24.75-3.66.9A24.63,24.63,0,0,0,218.61,262c1.12-1.87,6.43.45,4.49-4.49Zm-16.31-7.88h2.76c1.94,0,.31,9.21,6.36,8-2.62.67-4.19,2.54-6.36,3.66-1.2-3.29-5.54-8.49-2.76-11.68Zm-2.7,165.61c-7.71-.75-12.12-8.23-19.91-3.66-.3,2.39,1.2,3,3.59,2.77-1.64,2.24-3.43,4.41-8.15,3.59-1.2.6-1.72,1.94-1.8,3.66,6.36.3-1.2,4.94,1.8,10.86-2.09-.31-3.44-1.42-6.36-.91-.38-1.71-1.94-2.24-1.79-4.56,1.86.45,2.39-.6,3.59-.89-1.05-4,.29-4.65-.9-8.16,1.19-.91,2.77-1.5,3.66-2.7-1.49-3.66-3.21-7.11-9-6.36-.22-3.81,1.65-7.1-1.87-10.84-2.25-.15-4.34-.23-4.49,1.79-1.5-.9-2.1-2.39-.9-3.66-5,1.41-3.22-4-7.26-3.6-1.11,2.55-3.29,4-7.25,3.6.52-4,10.17-2.7,6.35-8.16-1.87,1-1.41,4-4.55,3.66,0-.9-1.13-.67-1.8-.9-.38-3.14.22-5.16,3.59-4.56-2.39-3.59-1.43-5.61-2.7-10.84,7.86,2.09,8.53.37,16.31,1.78-1,1.72-.59,4.8-4.56,3.6.07,4.71,3.74.52,4.56,3.67,2.4-2.1,3.75-5.39,3.6-10a17.4,17.4,0,0,0-5.39-.79c-.9-4.27-4.34-3.07-4.57-12.62h-3.59c.13,0-1.9-4.58-1.53-6.38-.06-.42-.07,6.38,0-3.17h-2.09c-.93,9.55-1,5.57-1,7.3.09,1.24.25,3.84.18,4.91a19.59,19.59,0,0,1-.1,3.56c-2.94-.68-3.17-2.25-3-4.57a29.16,29.16,0,0,1,.18-3.6,5.75,5.75,0,0,0-.75-2.92c-2.13-.07-4.14,0-4.47,1.68.52,1.56,3.47.92,3.61,2.88a2.43,2.43,0,0,1,0,1c-5.39-.07-5.16,5.54-5.47,8.17-3.51.52-.81-5.24-3.67-5.46,0,0,.05,0,.05,0s0,0-.05,0c.6-1.2,2-1.61,3.76-1.77.13-2.21-2.6-2.82-2.6-3.56v2h.83c1.28-9.55,2.56-7.17,4-9.34-.52-1.86-2-6.57-3.84-6.57h-.12c1.19,0,1.39-.23,1.11-2s-1.13-1.23-2.11-1.23h0c1.95,0,6.73-.09,7.18-3.23-4.34-3.07.23-5.74-1.79-11.13,2.69,0,1.19,3.68,2.76,4.81,2.84-.75,1.2-6.28,5.39-5.68-.53,4.41,1.19,6.51,4.56,7.11-1.8-2,.37-5.16-1.8-9.2,5.76,1.19,6.52-.11,9.06-3.63-4.34-.52-10.85-1.89-17.21-2.71-1.8-2.1-.82-6.9,0-9.14,4.11,1.05,3.81,6.51,8.15,7.25,1.58-.82,1.66-3.15,2.7-4.49,4.86,1.12,7.11,4.94,8.15,9.95,2.1,2.54,3.9.15,5.47,3.67,1.27-2.92-4.12-6.81-4.57-10.93,3.89,3,5.76-2.32,5.47-6.35,1.79,0,1.12,2.46,3.59,1.86,2.62-1.2,1.87-5.76.9-8.16a4.74,4.74,0,0,0,2.76.9c-2.24-3.21-1.64-6.35-.89-10.92,3.74,5.24,4.49,10.25,2.69,15.41.07,2.32,3,1.8,5.46,1.8-.22-4.94-1.79-8-1.87-11.75,2.09,1.87,4.2,3.67,9.13,2.7,1.5,3,1.43,7.63,3.59,10,.75-.22.9-1,1.79-1-.37-1.42-2.83-.75-1.79-3.59,3.29-1.27,4,.52,6.36-1.8a5.34,5.34,0,0,1-.57-2.25c-.64-1.2,2.24-2,5.44-2.21.21,0,3.28-.09,3.28-.1V293.7c0-1-4.52-.61-4.52-1.8-.21-.06-1.72,0-1.89-.07-1.56.36-1.88,2.8-3.74,2.86a3.69,3.69,0,0,1-1.32,0c.44-2.92-2.95-2.09-2-5.46.09,0,0,.08.08.1s0-.06,0-.1c1.68.07.66,2.8,2.48,2.66-1.56-2.69-2.67-6.56,1-8.12-.9-1.58-1.73-3.15-4.58-2.7-1-2.84-.08-2.1,0-5.46a6.88,6.88,0,0,0-6.21-3.29c-2.41,0-5.16.86-8.3,1.49.83.75.52,2.47,1.79,2.7h0c-5.76-2.1-12.21-9.58-15.24-18a34.31,34.31,0,0,1-1.07-3.68c4.71,2,4.57-1.57,6.36-4.56,2.09.9,2.92,3.15,2.69,6.36a4,4,0,0,1,2.78-.9,24.24,24.24,0,0,1,0-8.15c-.24-1.95-4-.3-4.57-1.87,16.31-3.22,26.42,15.26,35.39,25.44,1,3.74-1.94,3.52-1.8,6.28.75,2.1,4.72,3.37,6.28,1.87,1.36-3.44-4-.22-2.68-3.66,3.28-.6,3.59,1.87,3.59,4.56,2.47-1,3.59-3,3.67,1.8a2.62,2.62,0,0,0,1,.21c1.56-.12,0-3.41,2-3,.29-.1.45-.12,1,.11,2.47,7.48,6.85,14.82,13.22,17.22V301c0-1.85-3.55-1.39-4.71-2.43-3.52,2.2,1.74,4.94-1.14,7.9l-.39-.14-.16.14c-2-.37,0-4.68-2.55-4.48-3.19,2.39,1.77,4.1.81,7.17-3.22,1-5,3.51-5.52,7.26-1.05-.15-1.8.22-2,.9H220c-3.18-1-2.49-5.69-5.26-7.19-1.4-.29-1.39.83-2.59.9,1.28,6.59,6.41,9.36,9.11,14.52-1.87.75-1.54,3.81-4.46,3.59.38,5.76.38,14.6,7.26,16.31-1.42,2-1.63,5.92,1.8,3.67-1.27,2.17-3.2,4.79,1.81,4.49-1.95,3.44.07,6,.89,9.05-5.16-7.78-12.72-13.24-18.1-20.8,1.8.3,2.84-.23,2.69-1.87-4.87-2.92-7.33,3.52-7.26,6.36,1.35,1.95,4.34,1.35,1.87,5.46.52,2.7,1.87-.9,3.6,0-.3,2.1-1.95,3.89.89,4.49,1.95.45,1.72-1.27,1.79-2.69,11.15,11.22,22.76,22,24.48,42.58-7.11-8.24-19.53-11.23-22.6-23.58a2.7,2.7,0,0,1,1.79,2.78c3-.24,3.6-5.92,1.8-8.17-1.94-.15-2.91.75-2.69,2.7-1.12-3.37-3.67-5.39-6.36-7.26-.45-3.22,1.49-8.75-2.7-8.15-4.26,1.72,1.43,3.51-1,6.35-2.18.16-4.34.16-5.4-.89.07-2.32,3.89-1,2.7-4.57-4.34,1.65-2.4-2.09-5.46-5.38-3.67,4.71-4.34,13.39,0,16.31-2.55,1.94-5.85,3.22-4.49,9.06-4.5-.39-4-5.77-8.17-6.37-1-4.56,2.26-4.94,3.6-7.26.3-1.42-.82-1.57-.89-2.69-2.85-.45-3.52,1.27-5.47,1.79.6.9,2.09,1,1.87,2.7a5.7,5.7,0,0,1-4.56.9c-2,6,1.64,6.88.9,13.62-2.4,0-5.17-.31-6.36.89-.23,3.3,2.76,3.37,2.76,6.36-2.62-1.94-7-2.09-9-4.56a6.36,6.36,0,0,0-1,6.36c2.84.67,2.69-1.57,5.46-.9-.67,3.37-1.87,7.26,1.8,8.15,3.36-.21,2.47-4.78,6.36-4.48-4.87,5.61,4.41,8.83,0,13.54-3.07-.83-.53-7.33-6.36-5.38,1.64,3.14.6,6.58-2.7,7.25,5-1.12,5.39,7,9.06,9.95,2.17-.82.38-5.16-.9-5.46,2.91.23,4.11-2,8.16-2.7-.08-1.41.44-3.43-.91-3.66,3.6-2.32,4,6.2,7.27,7.26,1.94.14.37-3.22.89-4.49,2.85,1.34,3.74,0,5.46-1.79,4.34.15,6.59,2.39,11.75,1.79.75,4.49-6.13,5.54-9,9Zm-10.85,6.36c.14-1-.22-1.64-.9-1.87,1-1.72,3.89-4,6.29-1.79-.08,2.91-2,4-5.39,3.66Zm-29.93-10.92c-3.07.67-3.29-1.49-3.67-3.6,4.34,2.11,4.12-2.61,1.87-4.56.23-1.19,2.25-.74,3.59-.89-.07,1.64,1.13,1.94.9,3.66-2.24.52-1.72,1.95-2.69,5.39Zm-5.47,1.87c2.54-.15,2.62,2.17,2.78,4.48-2.85.46-2.92-1.94-2.78-4.48Zm-2.69-1.87c-2.85.45-2.39-2.4-4.56-2.69,2.17-2.85.6-3.82,1.79-7.26,3.37.29,3.44,3.89,5.46,5.46.23,2.62-1.72,3.14-2.69,4.49Zm-13.62-29.93c-2-.38-.67-4.79,0-5.38,2,.37.75,4.78,0,5.38Zm-9.95-66.15c-2.69-1.27-.82-2-1.8-5.46-5.38-.75,1,4.57-3.67,4.57.23-3.52.08-6.66-.89-9.06,3-.08,4.49-1.57,8.16-.9,1.05,3.59,1.49,5.77,4.55,5.39-.44,1.73-1.94,2.32-1.87,4.57-1.27.52-4.63-1.06-4.48.89Zm-3.67,55.62c-1.27-4.57,4.2-3.53,3.67-6.36h2.7c-.3,2.83-3.3,5.24-6.37,6.36Zm-4.49,16.29c.82-2.83,6.14,0,4.49-6.36h4.57c-2.32,6.37-4.42,5.85-9.06,6.36Zm-.9-10.25c3.44.3,5.77,8.3.9,9,.08-4.26-1.94-4.33-.9-9Zm-6.35-38.09c.74-2.54-1.28-2.32-.9-4.49a8.46,8.46,0,0,0,3.59-3.66c1,2.24,2.62,4.11,3.66,6.36-3.81-1.13-4,1.42-6.35,1.79Zm-4.57-5.46c-3-2.17,1.2-4.79,1.87-6.29,3.81,1.2-.6,4.79-1.87,6.29ZM108,326.39c-1.8-.07-1.19-2.46-3.67-1.86-.08,3.21-4.63,2-5.38,4.56-1.2-5.76,5.76-10.25,16.31-9,.82,7-7.87,1-7.26,6.35ZM97.09,315.47c-2.4-1.87,4.78-1.79,4.56-4.49,1.27,1.72,4.41,1.64,6.36,2.7.15,2.24-.45,3.74-1.8,4.56-1.95-1.87-6.21-4.79-9.12-2.77Zm2.76-15.41c1.94-.9,4.65.89,5.47-2.7,2.47.75,4.19,5.32,2.69,7.26-1.87-.22-.22-4-1.8-4.56-2.91,1.34-5.76,2.69-5.45,7.25-3.67-1,.14-3.66-.91-7.25Zm32.63,25.44c-4.42,2.92-.52,13.62.9,19-1.57,2.93-6.51,2.55-7.27,6.36-2.54-.14-1.63-3.81-1.79-6.36,2.17-.37,2,1.65,4.57.9,1.56-1.42,1.94-4,1.8-7.26-1.58-3-6.67-4.11-3.67-9.05-3.45-1.35-1.72,2.47-4.5,1.79.69-4.11,6.14-7.33,10-5.38Zm-.9-25.44c-2.84,3.21-4.49-2.47-7.26,0,.23-4.12,6.06-.68,7.26,0Zm-2.69-13.63c1.2,2.62-1.5,10.92,2.69,10.92h-3.67c-1.57-6.36-.15-7.63,1-10.92Zm13.54,37.2c-3.22,1.35-2.7,6.36-5.38,8.15-.15-4.49.81-4.41,0-8.15,1.12-1.2,4.26-1.2,5.38,0Zm12.72-23.57c1.42-.23,1.57.89,2.69.89-2.24,2.55-1.49,5,.91,7.27-1.13.52-8.39-2.55-7.27,4.55-3.07-4.93,4.27-7.25,3.67-12.71Zm9.95-54.4c.82-2.85-1.42-2.77-2.69-3.59,1.42-3.22,3.22.45,5.39,0-.38,1.72-.3,3.89-2.7,3.59ZM157,212.14c-.67-2.48,1.8-1.8,1.8-3.6.89,2.4,3.14,3.52,3.66,6.29-3.37-.3-1.35-5.31-5.46-2.69Zm1.8,43.54c-2.33-1.27-4.27-3-3.6-7.25,3.29.14,6.14,4,3.6,7.25Zm24.46-25.44c5.91,5,11.53,10.33,14.51,18.19-5.23-2.4-15.49-7.41-19.9-13.62.15-3.22,6.81.15,5.39-4.57Zm-.9-12.64c4.35.22,2.47,6.58,6.37,7.25a5.15,5.15,0,0,0-.91,3.59,25.63,25.63,0,0,0-6.35-4.48c-.46-2.92,1.65-3.22.89-6.36Zm114.27-43.55c2.69-.68,4.49,6,0,4.56,1.64-1.72.07-2.32,0-4.56Zm7.25,23.57a9.46,9.46,0,0,1-5.46,4.56c.15-1.65-1.12-2-.9-3.67,1.13-1.19,4-.89,6.36-.89Zm-.89-16.31c1,.22.6,1.79,1.79,1.79-.38,1.8-3.52.75-2.77,3.67-2.62-1.27.3-4.49,1-5.46Zm1.79-1.8c-2.77.3-1.87-2.92-2.77-4.57,2.62-.07,2.62,2.25,2.77,4.57Zm-1.79,29c-4.05-2.54.45-5,1.79-7.26,1.35.83-1.34,5.24-1.79,7.26Zm1.79,19c2.1.23.53,4,0,4.56-2.69-1.05-3.36-.52-4.56,1.8-4.26-4.34,5.53-2.25,4.56-6.36Zm1.8-9.05c2.62,1.49-1.65,3.66-3.59,3.59.14-1.05-.23-1.58-1-1.8.3-3.81,3.82.6,4.57-1.79Zm10.85,4.56c4.86,2.77,7.48-1.42,9.13-4.56,2-.3,1,2.61,2.69,2.69.38,7.48-8,9.57-6.36,15.41-3.81-2.39-7.94-7.7-5.46-13.54Zm18.18-1.87c2.62,2.69,1.05,11.23-2.76,14.52.66-6.89-.23-9.88,2.76-14.52Zm4.49,17.21c4.71,3.82,3.22-4.79,5.46-6.29,4.79,1.27-1.87,4.87,0,9.06.83,2.62,3.37.22,3.6,1.79,3.06-1.64.29-5,3.66-7.25a4.75,4.75,0,0,1,2.69,2.69c.16,4.12-5.61,2.24-4.48,7.26-4.56-3.59-4.27,3.81-5.47,6.36-2.54-.9.23-3.82,0-5.39-6.21-2.32-2.69,5.09-6.36,5.39,2.17-4.34-1-8.68.9-13.62Zm30.83-15.34c.67,3.06-3.14,3.22-4.49,1.79.08-2,2.24-1.94,4.49-1.79Zm.89,17.21c1.2.3,1.42,1.57,2.78,1.8-1,1.49-3.9,1-5.47,1.79.3-1.87,2.47-1.79,2.69-3.59Zm22.68-19.08c2.69.07,5.09.37,4.56,3.66-2.17-.3-3.88-1.94-4.56.9-2.62-.75.52-2.92,0-4.56Zm10.92,29.93c3.37.22,2.54,4.64,5.39,5.46-2.47.53-5.68-1.12-9.06-.9-.67-3.44,4.8-.67,3.67-4.56Zm6.28-25.37c.09,3.67-8.08,5-8.15.9,2.54,2.25,5.24-.82,8.15-.9Zm2.78,2.69c2.32.15,1.79,3.08,1.79,5.47a7.29,7.29,0,0,0-6.35,0c.29-3.07,4-2.62,4.56-5.47ZM418,251.12c1,.22.6,1.8,1.79,1.8-.52,2.76-2,4.63-5.38,4.56,3.37-2.7,1.05-3.67,1.79-6.36.83.6,1.65,1.12,1.8,0Zm6.36,13.62c2.24,5.54-2.46,12-9.06,11.75,2.1-4.79,7.34-6.52,9.06-11.75Zm1.79-10.93c2.77.3,2.32,4.87-.89,4.57-.75-2.55,1.27-2.32.89-4.57Zm-.89-41.67c1-4-1.8-7,0-9.06-.9,1.2,5.83,8.68,0,9.06Zm-135.07,378c3.08.3,2.55,4.12,2.7,7.26-1.34-1.87-4.87-4.65-2.7-7.26Zm1.8,22.67c-2.47,0-2.17-4.26-.9-5.46,2,.15.38,3.89.9,5.46ZM76.28,322.73c2.17-3.6-.75-3.67-.89-7.26,3.81-1.35,4,5.54,7.26,1.8,3.36,2.62-4.65,1.42-2.78,5.46,1,2.54,3.9-.22,5.47,0,.37,2.92,1.72,4.94,1.8,8.15a22.74,22.74,0,0,0-10.86-8.15Zm-28.13,1.8c1.72.52,3.45,5.53,5.46,2.76,2.7,3.37-7.18,1.35-5.46-2.76Zm87-97.88a3.81,3.81,0,0,0,.89-2.69,44,44,0,0,0,4.58,4.48c-1.2,2.32-3.15-2.16-5.47-1.79ZM79,265.63c2.09.31,4.26.6,3.67,3.6-2.85.45-4.05-.75-3.67-3.6Zm-26.26.91c-1-3.74,5.53.14,3.59-4.57,2.46.9,1.71,4.93,6.35,3.66-.15,5-7.55-.44-9.94.91Zm-6.37,35.38c-.44-2.91-4.64-6.8-3.58-8.22-.16-3.82,1.34.07,2.68,0,1.2-.3,1.42-1.57,2.7-1.8-.08-2.32-.52-4.27-1.8-5.39,1.58.6,7.4,4.65,8.16,9.05-8.31-2.84-4.41,3.52-8.16,6.36Zm.9-38.08c2.69,1.35,1.49,4.49-1.8,4.49-.14-2.24,1.42-2.77,1.8-4.49ZM35.5,275.59c-1.8-3.37-4.34-6-4.56-10.85,1,.15.75,1.64.89,2.69,2.55.75,2.4-1.27,4.57-.89-1.35,3.36-.15,7.1-.9,9Zm-6.36,10.92c.82-1.64,1.65-3.22,4.49-2.76.45,2.84-1.87,2.91-4.49,2.76Zm-1.79-12.72c2-2.54,5.54,1,4.48,4.57-4.71.07.23-4.27-4.48-4.57Zm1.74-11.3c-.4.93.06,1.71-.51.45a3.65,3.65,0,0,0,.51-.45Zm66.2-54.84c-1.65-2.47-.6-2.63-4.49-1.87.08-1.58-1.12-1.88-.9-3.6,2.25,2.7,4,.38,7.19,1.8.82.15.89-.38,1-.9,2.11,1-1.79,3.59-2.76,4.57Zm-19-29c4.57-4.79,12-6.66,19-9.05-4.34,6.13-10,12.35-19,9.05ZM70.83,216.7c2.23-1.94-.84-4,.89-5.46,2.92.22,2.09,5.91-.89,5.46ZM225,145.09c3.21,2.77,3.07-3.67,4.48-5.46,5.32,1.19-3.67,13-4.48,5.46Zm-6.36-29c3.51,3.22,2.47-3.51,3.59-5.46,3.21-.15,1.79,4.27,5.46,3.67-1.57,1.72-3.82,2.77-5.46,4.49.15,2,3.89.37,5.46.9.3,3.06,2.62,4,1.79,8.15-5.76-1.72-8-7-10.84-11.75Zm-8.16,11.75c.82-7.78-1.35-11.45-1.79-18.1,5.3.67,2.09,10,8.15,10,.45,2.92-2.85,2.09-1.87,5.46.45.82.82,1.65,1.87,1.8,3.44,1.34.15-4,3.59-2.7-1.27,4,3.07,2.4,2.7,5.47-4.73,2.69-8.61-3.45-12.65-1.88Zm10.85,25.45c-5.39-1.65-4.71-7.86-.9-10,1.95,1.64,2.55,6.13.9,10Zm-12.64-11.83c-2.78-1.57,2.47-2.77,0-3.59,1.94-2.54,4.11.9,6.28-.9,0-2.69-3.45-2-2.7-5.46,3.15-.15,2.1,4,4.57,4.49-2.18,2.39-4,5.09-8.15,5.46Zm9-64.35c.31,1.57-.74,1.72-1.79,1.8-.52,3,.59,4.26.9,6.36-1.34-.08-2.62-.15-2.78.89-1.11-1.79.46-8.6,3.67-9.05Zm1.8,10.85c1.5-.23,1.58.9,2.7,1-1.43,1.27-.68,4.72-3.59,4.49-.16-2.24-.16-4.34.89-5.46Zm9.06,0c-4.19,4.41,3.44,13.84-1.95,17.59,3.44-3.75-4.94-13.7,1.95-17.59Zm-24.47,27.24c-1.57-1.13-4.79-.68-5.46-2.77,1.12-2.47,2.62-3.14.89-6.28,1.65.07,1.94-1.13,3.67-.9-1.27,5.38,3.14,6.13.9,10ZM192.34,96.08c1.57,3.22,2.32,7.33,5.38,9.13-1.71.82-7.55-6-5.38-9.13Zm4.49,49c-10.55-9.65-25.82-19.75-22.67-35.39,7-.38,4.26,9,10,10-.44,2.09-1.87,4.64,0,6.36,3.37.75,4.27-1.13,7.19-.9.9,7.63,4.64,12.27,5.46,20Zm-8.15,9c-4.27-13.69-21.26-17-20.88-32.62.67-1.65,1.65-.15,2.77,0,3.59,13,15.11,18,21.77,28.06-.6,2.17-1.27,4.26-3.66,4.56Zm2.69-91.59c.3,2.4-1.2,3-3.6,2.77.07-2.47,2.1-4.41,3.6-2.77Zm1-6.36a4,4,0,0,1-1-2.69c3.29-.9,1.65,3.89,1,4.56-4-1.34-6.28-.89-5.46,4.49-6.36.45,2.32-5.23-2.7-5.46,2.7-1.79,5-1.27,8.16-.9Zm8.16,31.73c2.39-.23,2.31,1.94,2.69,3.67-3.21.74-4.48-2-2.69-3.67ZM160.62,59.86V57.09c1.87-.37,2.39.67,3.58,1-.22,1.57-1.56,2-3.58,1.8Zm2.69,15.72c-1.87-.52-2.93-1.79-4.56-2.62,2.23-1.87,5.15-1.63,2.76-8h2.69c-.22,6.37-.68,8.08-.89,10.62Zm-3.67,12.34c-1.57-.6-.07-1.65,0-2.69-.37-1.72-3.52-.75-2.69-3.59,2.24-.15,2.84,1.42,4.56,1.79.75,2.84-1.42,2.77-1.87,4.49ZM157,138.73c1.64.07,1.94-1.12,3.67-.9.44,2.84-2.18,3.67.89,4.49-1.49,2.24-4.87-1-4.56-3.59Zm0-43.55c1.8,0,1.12,2.47,3.67,1.87-.16,1.65-3.07.6-2.78,2.69-1.94.15-.36-3.21-.89-4.56Zm-2.7-.9c-1-.6-1-2.09-2.77-1.8,1.2-3.21,3-2.39,6.36-1.79-.29,2.09-2.76,2-3.59,3.59Zm-3.66,10c0-2.7.08-5.47-2.7-5.4.75-2.24-.22-6.28,2.7-6.36,1.56,4.72-2.25,9.06,3.66,9.06.23,2.4-1.95,2.32-3.66,2.7Zm-31.73,24.54c-3.29.82-.75-4.12-3.59-3.67.74-2.62,2.24,1.2,4.49,0-.08,1.42.45,3.44-.9,3.67ZM108,119.65c-2.24-.53-2-3.37-2.69-5.39,1.05-1.35,3.74-1.12,3.59-3.67,1.2.6,1.72,2,1.8,3.67-2.78.82-4.42,2.24-2.7,5.39Zm-6.36-7.26c-1.27-2.17-7.56-2.62-4.56-6.28,2.62-1.28,2.32,4.78,3.67,1.79,1.94-.15.36,3.22.89,4.49ZM94.39,96.08c-.15-2,3.22-.38,4.57-.9-.67,2.84,2.47,1.79,1.8,4.56-3.3,0-4.05-2.61-6.37-3.66ZM247.63,78c2.48-.15,1.65,5.46-1,5.46-.6-2.77,1.56-2.69,1-5.46Zm52.54-33.52c4.86,2.32,1.42,7.85,7.25,8.15-2.91,2.62-3.44,6.51.9,8.16-2.7,3.21-5.16-1.42-5.38-3.67-1.13.15-.83,1.72-1,2.77-4.42-1.57,1.8-8.83-2.69-10.92-.38-2.17,1.65-1.95.9-4.49Zm18.18,11.74c-.75,2.62,1.28,2.4.9,4.57-.53,1.42-1,.07-.9-.9-.15-1.72-3.06-.6-3.67-1.8.61-1.27,1.95-1.72,3.67-1.87Zm5.38,18.19c1.58.82,3.15,1.64,2.78,4.49-1.27,2.24-3.45-1-3.67.9-2.62-1.28,1.65-3.07.89-5.39Zm3.67-8.16c2.85,2.39,6.89.15,5.4-4.57,2.08,2.1,6.43,6,8.15.9,2.92.83,3.06,3.67,1.87,6.37-1.58.29-1.72-.68-1.87-1.8-1.34,1.49.37,3.29-.9,6.36,2.1.23,3.44-.22,3.66-1.87.76,2-.44,4.26-.89,7.26-3.14-.6-3.37-2.92-4.57.9-1.79-2,2.92-5.77-1.79-7.26-3.22-.45-2.25,3.22-5.46,2.76-1.42-1.34-2.4-3-4.49-3.66-.08-2.1,1.49-2.62.89-5.39Zm7.2,17.84h-2.71c1.87-3.18-1.15-4.28-3.17-4.88,1.27-2.32,5.88.36,5.88.59v4.29Zm20-14.25c4.11.45.22,6.29,0,8.16-3.74-2.24.37-5.39,0-8.16Zm8.15-3.59c2.55.6-.15,8.68-3.59,9,1.05-3.21,2.54-5.91,3.59-9Zm8.16,1.8c1.57,4.26-5.24,5-4.49.9a5.78,5.78,0,0,1,4.49-.9Zm9.95-5.47c1.95.83,2.77,2.7,2.77,5.47a22.29,22.29,0,0,1-5.46-1.8c.29-1.87,1.79-2.47,2.69-3.67ZM311.09,162.3c3.44.52,9.5-3.81,13.55.9-2.25.15-4.34.15-5.39-.9-4.35.15,1.57,4.86-2.77,4.49.3,3.22,2.55,2.24.9,5.46-1.2-.3-.75-2.24-.9-3.59-2.32-.3-3.89.3-3.59,2.69-1.58-2.09-1.95-5.31-1.8-9Zm18.11-11.82c-3.6,1.19-2.17-2.62-4.56-2.7-.75-.15-.82.37-.91.9-2.16-2.84,6.07-1.65,5.47,1.8ZM332.8,136c2.15-.6,5.75-2,5.45,1.87-1.34,1.35-6.21,1.57-5.45-1.87Zm22.66,9.13a6.68,6.68,0,0,1,4.57,5.39c-1.72-.37-1.64-2.55-4.57-1.8v-3.59Zm14.52,0c.75,3.14-1,3.81-1.8,5.39-1.71-2.33.6-3.07-.9-6.29a4.44,4.44,0,0,0,2.7.9Zm6.36-34.5c.53-2.32-.37-3.21-2.7-2.69,1.58-5.31,6.82-1.87,10-1.79-1.57,3.51,2.25,4.93-.9,8.15-2.17-.6.15-5.61-1.87-6.36-3.37-1-1.42,3.37-4.49,2.69Zm12.72,29.93c-2,3.37-2.47-2.32-5.46-.89-2.17,2.54-2.24,5.08-4.56,9.05-3-2.17,1.19-4.79,1.79-6.36-3.74-3.07-.3-8.45,1-11.75,6,.9,0,9.43,7.25,10Zm9.05,7.26c1.05,2,6.89-.9,5.39,3.59-6.36-3.14-7,2.7-8.15,7.26-5.31-1.94,1.72-7.11,2.76-10.85Zm-.9-36.29c.53.3,3.45,2.32,3.6,0,1.42.38-.83,1.65.89,1.87-.67,2.32-5.16.82-5.46,3.59-2.54-1.2.75-4,1-5.46Zm4.49,20.88c0-2.4-.36-5.16.91-6.36,1.34.22,2.09,7.48-.91,6.36Zm77.08-18.11c0,3.37-4.41,2.17-4.57,5.39-1.19-.23-.74-2.25-.9-3.6,3.37,1,2.62-2.24,5.47-1.79Zm-17.22,71.05c1.95.53.84,6.36,0,6.36H457.9c.9-2.82,4.19-3.07,3.66-6.36Zm88.83,128.37c-3.22-.53-2.25,3.21-5.46,2.69.07-1.12,1.19-1.2.89-2.69-4.33-1.65-5.24.67-5.38,2.69-3.37-4.19.07-9.21-.91-12.65-2.23,1.35-5.23,2-7.24,3.59-2.47-.89-3.53-3.14-6.37-3.59-1,2.62-4.11,5-6.36,6.33,2.17-2.25,0-6.33,0-6.33h6.36c-.07-6.37-.52-7.74,2.7-7.22,4.56,5.09,8.6-1,12.71-.92.31,3.9-1,9,3.6,8.6,1.41-3.06-3.44-6.74-1.8-12.95-3.6,4-5.38-4.67-8.16,1.69a5,5,0,0,1-3.59-3.66c2.62-1.27,3.82-4.06,6.29-5.49,3.21,1.05,3.59,4.93,8.15,4.55,2.48-2.92-.15-6.59-1.79-8.16,2.7,0,5.54.08,5.46-2.77-1-2.77-6.06-.23-6.36-5.39-4.87-.9-6,4.34-10.76.89.22,2.32,2.78,4.49-3.58,3.6v6.36c-9.55-1-2,2.69-2.78,3.66-4.86-2.62-2.59-5.09-1.4-10-.67-.68-4.87-2-5.26,0,1.2.07,1.23,2.54.12,2.76-1-.89,1.61-3.36-.78-2.76-.9,1.57-2.64,2.69-2.64.89V291c0,.15,1.49-.3,1.79.89-1.72,5.09-2.36,6.59-2.8,12.72,1.34.45,4.24-1.05,4.09.9-2.1,1.72-2.33,2.84-.23,4.56-1.43.38-.86,2.84-3.79,1.8-1.2,8.75,3.47,11.6,7.21,15.41-4.72-.07-12.24-2.54-14.48,2.7.22-2.4-3.53-.68-2.79-3.6.39-3,4.87-1.86,4.56-5.46-2.46-3.07-6.43-5.54-2.77-9.95-4.79,2.55-4.57-4.56-4.48-5.46,2.83-.45.29,4.49,3.58,3.59s3.44-6.06,5.46-.89c2.1-2.93-2.39-5.62-.89-10.86-5.69.23-1.05,5.39-3.67,8.16-.82-3.22-5.39-8.76-8.15-4.57-.67-2.61-2.18-4.41-3.6-6.28-1.27,2-1,5.61-4.56,5.39-.3-2.1-.91-3.89-2.7-4.5-1.27,1.13-.89,3.9-.89,6.36,2.77.38,5.15-.29,9.05.9-3.44-.44-1.87,4.12-3.59,5.4-2.69-1.73-2.39-3-6.36-1.8a19.15,19.15,0,0,0-1.8,5.46c.3,1.72,3.44.67,2.7,3.59-2-1.94-5.4-2.47-7.26-4.49-1.5-6.66,3-7.26,3.59-11.82.38-2.17-1.65-2-.9-4.49-4.49-.9-4.79,2.39-8.16,2.69-1.87-5.61,4.5-10.7,0-15.41-2.61-.23-2.76,2-5.38,1.8-1.27,2.09,2.32,3.44,0,3.66-4.27-.3-6.51-8.16-2.77-10.92.15,1.12.3,2.16,1.8,1.87.74-4.79,3.44-10.85-1.8-14.52,4.86-1.57,4,2.7,7.25,2.7.53-1.35-1-4.72.9-4.57,2.32,2.62,1,1.57,0,4.57a5,5,0,0,0,4.57-4.57c-1.2-2.17-3.37,1-3.67-.9.38-1.5-1.34-2.32,0-2.69,2.17,2.85,2.77,1,6.36,0-1.64,3.07.15,4.33,0,8.16,3.81.45,1.42-5.24,4.57-5.47,1.35,1.5.23,5.54-.9,7.26-2.92.45-3.22-1.65-6.36-.9-.67,2.77,1.57,2.7.9,5.46,1.35.15,3.37-.3,3.59.9-1.49,9,4.41,9.88,9.13,13.62.75-1.35,1.35-2.92,3.59-2.77-1,4,4,2.17,3.59,5.46-1.72,2.62,0,8.08,3.67,8.16,1.79-3.67-.15-11.07,2.69-13.62,1.36,1.35,3.52,1.35,2.77-1.79-1.34-1.5-4.86,1.12-5.46-2.7,2.77-2.92,5.24,2.92,5.46-.9-3.37-3.66-2.47-11.52-5.46-15.41,4.93-1.72,12.65-7.11,8.15-15.41.22,5.08-5.54,8.9-8.15,8.15a10.29,10.29,0,0,0,0-10.92c-.6,1.27-1.95,1.72-3.67,1.87,4.27-3.37,1.2-6.06,1.87-9.13,2.92,2,4-.07,5-.9,2.24,2.32,3.22,1.42,9.58.9V233c-6.36-.16-3.14-4.5-5-8.17-7-1-5.36,7.94-7.53,11.75a19.74,19.74,0,0,1-3.35-5.39,13.86,13.86,0,0,0-6.57,4.5c2,.36.22,4.48.75,6.36,2,1.27,3.3-2.33,3.53,0,0,.89.7,1,.86,1.79-1.35,1-2.19,2.62-4.52,2.77.9,4.41,4,8.83-.9,11.75.29-6.89-1.66-9.66-.91-12.72-2,1.35-5.68,1-7.26,2.77.52-3.52.74-3.74-.9-6.36-4-.75-1.79,4.86-5.46,4.56-.23-2.69,3.59-3.44,0-4.56-.67,5.23-7.41-.9-7.26,5.46.59,2.09,4.79.67,3.59,4.49-1.8,0-1.12-2.47-3.59-1.8-.68,2.17.08,3.82-2.69,5.46.37-3.74-3.45-3.29-5.47-4.56-2.83,6,3.3,9.35,0,11.82-3.81-1.05-4-5.68-3.67-10.92-1.63.22-1.94-1-3.59-.9-.15,1.34.31,3.37-.9,3.66-1.12-3.29-2.46-2.91-4.55-3.66,2.24.15,2.83-1.42,4.55-1.8,1.43-3.06-2.77-3.89.23-5.46,1.87,1.42.14,4.86,6.5,4.57v-4.57a1.87,1.87,0,0,0,2.55,1.8c1.73-3.37-.93-6.36-5.12-6.29-1.49,0-.73,2.47-2.07,2.7-5.24-2-5.76-12.28-3.74-16.32-4.11-.75-4.63,2.1-7.33,2.69.46-3-5.11-3.89-.93-5.38,5.85,4.11,8.89-4.12,6.27-8.23,1.72,3.52,2.83-.3,4.55-1.8,2.48,1.13,2.25,3.52,5.47,1.8,1.79,1.57.29,6.36,3.58,6.36,2.32-1,1.8-4.86,1.8-8.16-5.61-.37-4.87-7.18-8.16-9.95.53-2.77,3.29-3.37,5.47-4.57,2.69,4,3.74.53,5.46,1,.44,2.84-1,3.14-.22,6.29,2.24.14,2-1.43,5.16-1.8v4.56c0,.61,4.07-3.23,5.92-.92a10.6,10.6,0,0,1,2.28-4.54c.6,1.27,1.35.15,1.35,1.8v5.46c6.37,1.42,5.93.6,8.17-.9,0-7.19-1-10.33,2.24-14.52-2.31-2.24-1.41-4.63-4.33-4.56.15-1.35-.18-3.29,1-3.59,2.38-.3.8,3.52,3.71,2.69,2.33-1,1.83-4.86,1.83-8.15-3.37-.68-4.33,1.12-7.25.89-.52-2.47-1-5.09-4.48-4.49-.59,5.39-2.6,8-3.66,10.86-.52-5.25-4.87-4.87-2.69-10.86-5.76,2.1-4.79.75-9-1.79-1.36,1.64-1.36,4.64-3.67,5.39-.23-6.82-5.31-5.17-10-3.6,3.07-3.36-1.42-4.56,1.8-6.36a23.65,23.65,0,0,0,7.26,1.8c.9-2.77,2.55-10.63-1.8-10.85.23,3.82-1.87,5.39-4.56,6.36,1.05-4.41-1.42-6.36,2.76-10-5,2.55-7.48-8.38-14.51-3.59.82,6.21,2.47,11.08,3.6,17.21-5.77-.3-6.14,4.71-9.06,7.26-2.24-2.92.67-6.74.9-9.95-4.79,1.79-4.79,8.45-7.26,12.64a6.88,6.88,0,0,1-2.69-1.79c7.1-2.62,1.27-7.79,1.8-9.06,1.12-2.54,7.85.6,5.46-6.36-3.15-.74-3.83,1.72-5.46,0,2.46-2.91-2.18-3.21,0-6.36-4,4-4-1.2-8.17-1.79,1,5.09,1.72,5.31,5.46,8.15-2.31,1.8-5.3-2.47-7.25.9-.3,5.24,3.75,1.5,4.56,4.56-1.05,1.72-1.12,4.34-4.56,3.6,1.12,3.66-2.25,4.64,1.79,7.26-5.83-1.65-4.18,4.26-8.15,4.56-1.57-1.49-.37-5.69-3.59-5.46-2,6.13-6.52,4.86-8.15,11.82,2.76-.67,1.72-.67,4.48,0,2.25-1.27-1-3.37.89-3.66,3,2.16,7.12-.68,9.14,5.46-.9,1.19-3.07,1.19-3.67,2.69-1.87-.23-.81-3.37-2.69-3.59-1.5,2.62-.53,4.49,0,6.36,5.23-.45,6.85,3.29,8.73,6.29-4.12.22,3.76,2.31-5.79.89v-3.59c-6.37,5,10.13,6.44,4,16.31,2.84.75,3.08-.82,4.2-1.79.45,1.34,1.21,2.24,1.65,3.59-1.71,1.64-6,.67-9.12.9-.44,1.34,1,4.71-.94,4.56-5-.82-2.7-4.41-5.47-6.36-1.65,1.42-2.78,3.29-6.29,2.77.59-2.77-1-3.37-1-5.46-1.65-.23-2,1-3.6.9-.29-2.4-2.25-3.22-2.7-5.47,4.34,1.65,10.48-.29,10-6.36-1.05-.15-1.43-1-1.79-1.79-5,2.39-8.32-1-12.73,0-.52,1.64,1.12,5.31-.89,5.46-2-.15-.38-3.82-.91-5.46-2.84,5.31-9.43-2.47-13.61,2.77,3,1.72,5.53,2.61,3.67,7.18,8.15.67,6.43,4.86,7.25,10-5.76-.07-5.46-1.72-9.13-2.76-.15,1.12.16,2.61-.89,2.76-1.28-.52-4.65,1.05-4.49-.89,4.94.67,1.34-2.92,1.79-5.46-2.54-.15-6.2.74-6.36-1.8,1.35-.83,1.95-2.32,1.79-4.56-2.32-1-2.09-4.49-6.28-3.6.07,4.94,1.58,13.47-1.87,11.75-1.05,2.39,1.72,5.39,0,5.46-3.89-1.42.45-5.76-2.69-8.15,1.2-.9,3.36.78,3.59-1.09a5.36,5.36,0,0,1-5.39-1.93h3.59c-.3-9.55-1.05-8.48-3.59-9.82-1.42,1.27-1.8,2.82-5.47,1.85,1.2-3.89-2.16-3.71-2.68-5.81,1.41-2.54,2-6,4.48-7.46-.89,2.69,2,1.46,3.67,1.69-.74-6.59-7.78-.73-10.92-6.41-2.63,2.84-5.46,5.36-7.26,9-5.39-4.12-5.84-5.71-10.85-2.72.67,2.25.9,3.74-.9,5.46-1.49-3.81-5.54-5.16-3.67-10a3.84,3.84,0,0,1-2.69-.9c-2.92,2-.9,6.73.89,9-1.34-.45-2.23-1.27-3.58-1.79.51,2.92-.3,3.75-1.8,4.64,1.57.83,3.15,3.67,2.69,3.67h-4.56c2.84,12.74-18,9.58-16.31,4.49,3.81,4.12,5.68,0,10,4,.59-1.79,2.39-2.19,4.48-2.49-4.64-10.17,1.72-13.36.9-22.57,3.37,2.92,3.3-2,3.67-2.64,2.32-.3.67,3.54,3.59,2.72,3.14-1,1.8-6.65,3.67-9,1.56.82,1.49,3.37,3.59,3.59,1.27-1.12.9-3.88.9-6.28,6.43-1.2,6.36-4.11,13.62-2.77-1-2.54,3.51-3.36,1.8-5.38-1.8,1.94-3.15,2.39-8.17,2.69.9-6.06-3.66-1.12-4.57-2.69,3-1,1-7.56,1.88-8.15,2.09.89,2.16,4.93,3.8,6.28,1.43-1.27,4.79-4.71,4.79-4.49v3.59c0-.67,3.68-6.81,6.08-1.79-2-.15-3.41.74-3.26,2.69,4.48-.82,3.61,2.92,7,1,.53-4.34-2-11.59,3.46-10.92.15,2.84-2.46,3.07-1.86,6.36,2.31,1.57,3.17-1,4.52.9,1.95,2.16-2.18,3.89-.91,8.15,4.34,1.42,10.77,1.72,10,6.36-1.87-.3-1.81-2.47-3.61-2.69-.82,1.57-2.24,2.62-2.77,4.49,3.15,1.64,4.94.44,7.26-.9,0,2.17-1.57,2.69-.9,5.46,3.74-.45,5-3.44,6.36-6.36.38-2.17-4.11.53-2.76-2.69,4.7-2,5.83-3.22,10.92-3.67.38-4-1.49-5.76-4.56-6.36-.15,1.12.14,2.62-.9,2.77-.68-2.92-4.12-3.22-6.37-4.56,1.13-1,3.22-1,5.47-.9.67-2.77-1.57-2.69-.9-5.46,4.71-1.57,5.69-7,12.72-6.37.82,3.74-2.24,5.84,0,8.16-2.92,1.05-4,4-8.23,3.67,1.2,2.84,4.42,8.23,7.26,6.36-.75-1.2,2.31-6.14,5.46-6.36,1.87.52,3.74,1.7,1.8,3.57,4-.67,5.38-6.3,2.76-6.3h4.5c.52,0-3.22-2.23-2.7-5.45,3.3,0,7.19-.51,8.16,1.81a2.45,2.45,0,0,0-1.79,2.69c3.88-2.09,7-.59,10.84-3.58.23,1.72-1.05,2-.9,3.59,3.44-.67,4.34,1.12,7.26,1-1.65-3.74.83-6.2-.89-9.12-2.47-1.58-1.8,4-2.78,1,1.58-1.2.08-5.47,2.78-5.47.81,1.58,1.64,3.15,4.48,2.7,0-3.37,4-.9,5.47-6.36-3.89,1.12-3.38-6.81-1.8-8.16,5.54,4,7.93,9,4.49,15.42,3.37,1,2.92-1.87,4.57-2.7,1.42,2.84,4.11,4.34,8.15,4.57,2.47-.6,2.25-3.82,5.46-3.67a6.72,6.72,0,0,1,2.69,1.8,5.23,5.23,0,0,1-.9,3.66c2.11.68,6.29,1.8,8.16,0,1.2-3.06-2-6.36,0-7.26,3.81,3.3-1.49,10.18,3.6,11.75,2.69-3,5.09-11.07.68-13.54,2.46,0,7,.3,7-.9v-3.67c-3.19,1-5.92-7.55-10-6.58,2.32-1.05-.33-3.59-.11-6.14,7.56-2.39,2.83,7.34,8.88,6.37,1.27-2.85-2.33-5.47-.07-6.37,2.53.53,1.74,4.35,4.52,4.57.89-2.54-1.51-6.21,0-6.36,5.46,2.84-1.67,6,.88,10.92,4.57-.74,3.14-6.88,8.15-2.76,2.32-3.75,0-9.36-.9-12.65-3.21-.82-5.46,2.62-6.36-.9,1.2-.08.36-1.65,1.33-1.87,1.87.52,3.21,2.77,3.21.9v-5.39c0-.45-1.48,4.71-5,4.49-.15-2.85,2.62-3,2-6.36-1.2-2.17-2.57,1.64-3.47-.9,1.79-2.09,1-7-.84-8.15-2.55,2.39-8,1.72-11.8,2.77,3.22,7.18-7.09.74-5.45,9,5.69-1.87,9.88,4.78,5.47,7.25-.82-1.57-2.84-2-5.45-1.79-.08,5.09,1.57,6.73-1.8,9.06-3.36-3.07-3.89-.3-6.36,1.79-.52-1.87,1.5-6.29-1.8-5.46-2.62,5.39,2.71,11.37-2.69,13.62-2.77,1.12-2.61-.3-3.67,3.59-3.74-4.87.6-13.47,4.57-16.31.67-3.37-1.57-3.89-.9-7.26,3.22-1.58,4.64,3.06,5.47,1-3.45-2-2.18-5-1.87-9.13-4.12-2-3.67,3.59-7.27,0,1,3.44-2.24,2.62-1.79,5.46.15,1.72,3,.6,2.77,2.7-2.92-.38-.75,4.19-2.77,4.56-.68-2-3.14-2.24-4.49-3.59-.45,1.72-2,2.25-1.87,4.49,2,.67,4.94.52,5.47,2.69-1.8-.22-1.8,1.28-2.71,1.88-6.36-3.3-7.77-11.16-4.56-20-1.2-2.25-2.69,1.64-3.59-.9,1.05-1.35,3.38-1.42,4.5-2.69-2.93-1.65-2.47-11.45-9.06-10,1.19.89,1.19,3.06,2.69,3.66-4-1.27-4.71,2.25-9.05,2.7-1.42,3.22,3.07.6,2.76,2.77-4.63-.53-5.53,5.31-9.12.9-.15,1.57,1,4.48-1.8,3.59-1.27-4.87,3.43-3.82,2.77-8.16-2.84-.9-3.51,4.86-5.46,1.8,3.89-2.1,1.64-6.37,5.46-7.26-.29,4-.08,7.33,3.59,7.26,2-2.47,5.39-11.3-.9-11.75-1.64,2-6.06,5.08-9.05,4.49a5.85,5.85,0,0,0,.9-4.49c-2.32.07-4.35.52-5.46,1.79,1.72,2,1,6.29,2.76,8.16-2.76,0-3.14,2.4-5.46,2.7,1.43-3.52-2.39-1.87-2.7-3.6-.29-2.1.15-3.44,1.8-3.59-.3,2.32.31,3.89,2.69,3.59.23-3.81-.82-6.43-1.79-9-3.89,3.21-8.38,10.17-9.05,13.62,3.22,1.34.52-3.14,2.69-2.77,2.09,1,2.69-.45,3.66,2.77-4.41-2.92-2.61,3.36-6.35,3.59-2.54.37-.9-3.37-2.77-3.59-.37,1.72-.3,3.89-2.7,3.59.9-3.07,1.5-12.72-2.69-13.62-2.61,1.42,2,4.86-.89,6.36-2.85-3.14,1-7.41,0-11.75-2.85,1-1,.37-3.16-.9.67,5.47-5.85,4.57-5.85,3.59v4.57c0-.82,1.73,1.35.39,2.69,2.61,1.27,3.92-2.47,4.75,0-1.64,2-4.31,3.3-8.51,2.7-2.24,4.49,3.87,8.75,2.53,11.82-4,.22-4.44-3.44-9.15-4.56-1.27,3,.92,6.5,2.72,9,1.35-1.65,3.87-2.1,5.36-3.59-1.27,3.44,2.47,1.72,1.8,4.49-1.27-1.27-2.85-.68-2.7,1.87,1.64,2.84,3.05-3.07,4.56,0,1.27,4-3.07,2.32-2.78,5.39,7.86,4-.1,13.09,5.73,18.18-7.71-2-4.7-8.23-14.25-9.13v5.46c0,2.55,3.48-1.57,4.3.9-1.12,3.59-5-.75-7.39,1.87-1.2-2.47-2.54-4.86-3.74-7.26-11.14-.15-15.52-11.15-11.78-18.18-1.19-1.2-4-.9-6.37-.9-.68,5,.44,4.86,2.69,5.46-1.58,2-2.63,4.64-6.29,4.49-.68-3.81-5.24-1.81-7.26-4.28-.6,1.88,1.12,8.29-.9,8.29h1.72v-8.5c-9.55-.44-5.16,2-4.94,4.49,4.42.9,2.1,4.65-.23,7.26-3.06-.82-.63-2-2.35-3.59-2.78-.07-6.27-.52-5.74,2.7,1,2.84,2.09-.15,3.52,1.79-.08,1,.6,1.12.82,1.87-1.57,1.2-3.09,2.39-6.39,1.8-.6,4.26,5.52,6.51,4.48,8.15-3.14.53-2.18-3.22-5.4-2.69-.08,2.69,2.68,7.26-.91,8.16-.22-2.55-1.57-3.9-4.56-3.67,1.79,9,1,16.83,1.79,25.36-1.87-2.77-4.49-3.29-7.25-.89.45-3.9-2.4-1.13-2.7-2.7s2.55-4.49,0-5.46c-2.1,3.22-3.22-2.09-6.36-.9-.68,4.57,1.43,11.22,1.79,13.62-1.94-3.44-6.58-4.26-7.17-9.05-3.3.67-5.17,7.55-10,3.59,1.42-1.72,3.51,1.34,5.46-.9-3-5.54,1.94-4.86,0-9.95-4.71,3.07-5.61,6.13-11.82,6.36.37-3.14-2.7-7.48-.9-9.13,2.32,1.42-.6,7.86,3.67,7.26-2.1-7.56,5.15-8.46,2.68-13.54,2.85.07,4.34-1.13,6.37-1.88,2.32,3.52,6.65,4.87,9.95,7.26,1.28-5.91-3.07-1.12-3.59-4.49,4.94.68,1.35-2.91,1.79-5.46,3-1.57,4,.53,5.46,2.69-1.42.15-3.14-.07-2.76,1.88,2.84.45,3.74-2.17,4.56.89-2.24,3.22-1.94,6.81,1.8,8.16,1.27-7.19,12.42-14.29,3.67-20.88-2.4,2.39,1.41.75.89,3.67-3.44-.9-5.31,1-5.46-1.87.9-2.55,2.39,1.34,3.59-.9-.22-6.21-5.38-11.82-10.85-9.95.9,3.37,6,2.54,6.36,6.36-1.49,3.66-4.94,5.39-9.05,6.36,1-3.37,3.89-10.4-.9-11.82-1.65,2.32-.68,7.18-2.76,9-1.95-.15-1.95-2.25-1.8-4.49-2.77-.07-2.7,2.69-2.7,5.39,2.32,1.05,4.34,2.32,5.39,4.56-4.27,2.92-6-6.06-10.85-2.69,2.09-2.55-.9-4.49.89-7.26-4.34,1.12-5.95-2.39-10.74-1.87-2.4,2.32-.39,5.76-3.57,4.56v6.36c0,1.5-1.23-.07-3.69,0-.75,5.24,3.4,5.62,5.42,8.16-6.37,3.37,5.2,7.41,0,10-1.34-2.54-4.94-2.91-4.57-7.25-4.64,1.72-1.88.52-7.26,0-.23,6.8,6.51,5.83,2.69,12.71-.67-3.59-5.55-2.91-6.29-6.35,2.24.15,2.84-1.43,3.58-2.7-3.67-.89-4.33-4.79-5.45-8.15a18.91,18.91,0,0,1-12.64,3.59c-1.21,2.24,2.61,3.74,0,4.56-4.42-3.81-5.92-7.93-.91-11.82.23,1.27,1.27,1.72.91,3.67,4-1.35,2.24-4.87,8.15-2.77.9-2.1,2.32-6.44,5.39-3.6.52-2.91-1.42-3.59,1.87-6.36-2.92-2.61-5,1-6.36,2.7-1.87-1.8-2.39-.23-3.67,1-.75-4.71,1.35-6.58,3.67-8.23-.16,2,.75,2.92,2.69,2.77-.75-4.94-4.05-4.86-1.8-10.93-3.88-.37-1.19,2.47-2.69,2.77-6.13,1.8-7.71-8.3-4.57-9.95,2.55,6.88,6.88-3.52,12.73-1.87.29-2.47-2.62-6.36,0-8.16.07,1.13.22,2.17,1.79,1.8-.07-5.24.15-10.55,0-15.34.3,3.37,3.44,3.22,4.49,3.59,2.17,2.55.6,7.26-.9,9.06,1.8,0,1.2,2.46,3.67,1.79,3.21-.67,2.32-5.53,6.36-5.38.08,3.74-4,3.21-2.77,8.15,3.89-.38,4.49-4,8.16-4.56.45-3.37-4.34-7.26,0-9.06a7.21,7.21,0,0,0,8.15,3.6c-4.71-3.82,1.73-8.09,2.77-11.76,3.22,6.74,8.31-2.16,11.75,1.8-.52-6.66,8.16.45,8.16-6.29,1.5,1.5,3.07,3,4.56,4.49-.67,1.43-4.41-.22-3.66,2.7,1.41,1.35,4,1.49,6.35,1.87,1.58-.6-.07-4.34,1.8-4.57.9,1.58,2.55,2.32,5.46,1.8-.52-3.22.3-5.09,2.7-5.39,1-3.44-3.36-1.49-2.7-4.56,5.76.45,1-4.41,4.57-5.46,1.27,6.73,5.15,7.48,0,12.72,2.25.07,2.09,3.36.9,4.49,2.84.45,2.39-2.4,4.49-2.7-1,2.85-.38,2.4.89,4.57,2.7.22,2.85-2.1,5.47-1.87,1.34,2,1,5.68,3.67,6.36,2.76-2.92,1.49-7.56,0-10.85,4.18.89,2.83-3.75,4.48-5.47,1.27,2.7,2.09,5.77,3.67,8.16-.22-4.42,7.63-1.12,9.05-1.8-1.87,1.2-5.09,1-3.66,5.47-1.58.52-5.32-1.12-5.39.89,1.65,3.45,5.61-.07,6.29.9-1.5,1.43-2.26,3.82-1.8,7.26,3.89-.52,6,.68,9.05.9.16-2.92,3.37-2.69,3.67-5.46-3.14,1.65-5.54.3-7.26-1.8,2.09.3,1-2.62,2.69-2.69,1.87.45,1.8,2.69,3.67.89.15-5.91,5.84-6.21,6.36-11.82-2.92-.75-1.95,2.4-3.67,2.77a6,6,0,0,1-.89-4.56c5.68,0,4-7.49,9.05-8.16-2.84,2.85,3.06,1.5,5.46,1.8,1.27-.53.15-3.44,1.8-3.6,1.87.23,1.8,2.47,3.59,2.7.82-4.42,9.35-3.59,8.23-7.26,2.69,0,.82,4.56,3.6,4.56.81-1.56,2-3.51,3.58-1.79-1.94,3.44.9,2.77,2.77,4.49a2.46,2.46,0,0,0-1.8,2.69c3.45,1.8,5.17,1.57,8.16,0-.29,2.4.31,4,2.7,3.67-1.43-3.22,3.07-.52,2.69-2.69-2.69-1.8,2.1-6.81,3.67-4.57-.08,2.32-3.89,1-2.78,4.57,4.35.37,3.15-4.79,3.67-8.16-4-1.57-6.36,3.22-8.15.9-.89-3.59,5.09-.38,4.48-3.67.76-1-2.38-5.91-.89-7.26,2.17.3.65,4.34,3.79,3.67,1.12-.08,2.82-1.2,2.82-.9V59.86c0-2.39-4.46.07-5.59-2.77,8.83,0,3.23-13.62-1.85-13.54-1.87,1.57,5.13,10.55-.93,10.85-.24-1.57.88-4.57-1.82-3.59-4.56.45-2.1,7-5.46,5.38.52-2.46,2.24-3.74,2.69-6.28-4.87-1.57-3,3.15-5.4,4.05.6-5.76-4.71-4.92-4.56-11.28h-2.7c-3.82,6.36-.89,6.64-3.66,7.69-.45-2.62-.6-1.35-1.8-4.34,3.44-3.67,1.2-11.94-6.36-11.64.38,4.34.38,6.33.9,11.8-4.12-.83-5.08,1.52-8.15,1.82-1.13,4.79,1.87,5.4,1.87,9.07-5.32-.75-4.72-7.4-10-8.15-1.5.3,1.19,3.21-2.7,2.77-1.19-5.09,3.89-4,2.7-9.05-6.81-1.72-3.89,6.36-9.95,5.39,5.09-2.7,2.16-6.74,2.69-10.85-.53-1.58-4.27.07-4.49-1.8,2.4-1.27,2.47-4.79,4.49-6.36,5.54,3,10.4-1.57,10-8.15-2.68,3.66-7.48,1.72-10.92-.9.6-1.87-1.12-6,.9-6.36.45,1.72-1.2,5.46,1.87,4.56,3.29-1.12-2.24-5.46.9-6.36-.9,2.7,2,1.57,3.59,1.8C362.27,8.6,359.06,6,360.93,0c-6.81.22-1.95,12.5-8.16,7.25-1.72,7.42-.38,14,2.69,21.78-3-.9-2.91,1.27-2.69,3.59-1.79-1.49-1.12.15-3.66,0-.82,4.49.74,6.59,2.76,8.16-3.66,3.22-4.41-2.25-7.25-2.69-2.25,1.19,1,3.37-.91,3.66-2.39-.67-1.79-4.26-3.66-5.46-4.18-1.42-3,.75-7.25.9,1,2.09.59,5.46,1.87,7.26,2.83.74,1.86-2.4,3.58-2.7.45,2.18,0,6.06.9,10-1.87-1.79-2.4-.22-3.59.9-.23-2.92,1.57-3.81.9-7.26-3.37,2.77-2.47-.07-6.36-.89.9,4,2.09,7.56,2.7,11.74-1.95,3.44-5.54-.22-8.16,1.87-.31,3.37,3.66,2.32,2.76,6.29-4.94-.45-1.94-8.9-5.46-10.85-.37,1.72,1.19,5.46-1.79,4.56.15-2.61-.83-6.28,1.79-6.36.23,1.88,2.39,1.8,3.59,2.7-1-3.82,1.5-4,1.87-6.36-2.84-1-2.24,1-3.67,1.44-2.61-1.8-.74-.44-1.79-6.8h-3.59c-1.35,6.36.08,7.17-2.77,7.69-1.05-2.92-5-2.63-6.36-5.24,2.17.67,5.76,2.2,5.46-1.69-3-.67-2.46-4.73-6.36-4.51-.67,2-.52,5-2.7,5.49a6,6,0,0,0-4.55-.89c1.87-1.79-.23-4.33-.9-6.35-2.63.08-5.92-.52-7.26.9-.31,3.67,1.64,5,.89,9.06-6.88.3,0,8.9-7.17,9,.21-2-.23-3.36-1.87-3.59-1.73,1.87-3.45,3.74-6.37,4.49.3-3.29,1.35-5.91,5.46-5.39-.89-2.46-2-5.61,2.78-4.56-1.06-3.81-.83-9.34-5.47-9.49a4,4,0,0,0,1.8,5h-5.47c.6,6.36-.37,3.65-2.69,3.12-1,3.37,2.25,2.84,1.8,5.69-2.7-.23-3.07,3.47-5.39,1-1.2,3.67,5.46,3.65.9,5.52-2-.75-1.2-4.24-3.67-4.54-.83,3,.23,5-3.59,6.38,1.64-4.57,3-12-2.77-13.61.67,3.74-1.87,4.11-3.59,5.46,2.47,4.49-2.39,3.74-4.57,6.36-.07,4.27,5,4.27,6.36,4.49-2.62,2.18,4.19,2.47,2.77,6.37,3.36,1,1.42-3.37,4.49-2.7,1.35.75,2.85,1.35,2.7,3.59-2.32,2.77-3-3.66-5.39-.89-.82,2.54,2.32,9.87-.9,11.74-.15-2.54.75-6.21-1.87-6.28-2.4,1.64-.15,3.07-1.8,4.49-1.49-2-7.18-3-4.49-6.36-2.47.07-5.38-.45-5.46,1.87,1.5,0,.53,2.47,1.8,2.69,1.87-.52,9.87,9.14,6.36,11.16-2.85-6.21-9.06-10.53-10-16.9h2.69c-.3,0-2.62-5.55-5.47-6.67-2.54,5-7.33,7.63-9.95,12.56-2.39-2.69-3.44,4-6.36.83,0,2.77,2.47,5.35-.89,7.22-1.43-3-2.78-.55-6.36-.92.44-3.15-2.25-3.15-3.59-4.57,1.79,0,1.12-2.48,3.59-1.8.37,2.54,2.77,5.3,4.56,3.66-3.29-6.51,2-10.63-1.79-16.32,1.72,1.65,2.24.08,4.48,0,.46,3.15,2,3.82,4.57,2.7.45-3.82-1.57-5.09-1.8-8.16-6.44,1.42-10.47,5.31-16.31,7.26,1.57-5.24-5.09-2.17-5.46-5.47.9-.89,1.79-1.79,2.69-2.69,1.42.38.82,2.85,3.67,1.8-.22-1.72,1-2,.89-3.67-7.84-1.2-12.49-4.49-17.2-3.59,1-2,2.31-3.67,1.79-7.26-2.54-2.54-5.76-4.49-8.15-7.26.3,4.12-3.07,3.3-2.77,9.06-4.79,3.59-5.83-.15-10.85,2.77.52-2.25,3.51-2,2.69-5.47-2.32-4-9.35-2.31-10.85,1.8,2.32.52,5.54,5.31,1.8,6.36-1.2-.6-1.65-1.94-1.8-3.59-2.62-.23-4.64.23-5.46,1.79.6,1.5,2.77,1.5,3.67,2.7-2.7,1.94-2.92,1.72-5.47,4.56a6.86,6.86,0,0,0-1.79-6.36c4-.82,6.66-9.35.89-10A8.77,8.77,0,0,1,161.51,48c-1.35.07-3.6-3.37-4.43-.9,1.5-.15,5.61,5.91-.76,4.56V45.34c0,.3-1.41,9-6.5,9.06.23-1.72-1.11-2-1-3.59,1.28,1,2.22,1,2.67-.9-6-1.12-12.74-2.62-7.27-8.16-3.53-.59-10.86-2.24-10.86,4.49,2.24,2,2.54,4.64,6,5.46-2.7.9-2.16,4.57-8.53,3.6V59c6.37.08,7.11-3.21,11.21-3.66,0,1.79-1.84,1.19-1.16,3.66,3.22,1.27,6.15-2.54,7.58,0-1.95.75-1.94,3.29-1.64,6.36,5.09-1.87,7.48,2.25,10,5.39-.15,1.72-3,.6-3.56,1.8,0,4.26,1.29,12.42-3.64,15.41-3.44-1.35-.36-9.28-2.69-11.75-1.12,1.35-.82,4-3.65,3.6-.38-2.17,1.64-2,.89-4.5-3.36,1-2.54-2.24-5.38-1.79.6,5.76-2.54,3.14-4.56,7.18-.6,2.47,4.26-.59,3.65,1.87a2.55,2.55,0,0,0-2.76,1.8c2.25,1.57,5.39-1.27,6.36,2.69-3.29,2.1.3,5.69-2.69,7.26-1.87-1.42-2.09-4.57-1.79-8.16-3.45-2.39-6-1.19-10.94-.89.23,4,.68,7.78,4.58,8.15.07-1.64.59-3,1.79-3.59,2.24,2.25.75,8.23,3.58,9.95-3.43-.3-1.87,1.87-2.68,3.6-2.77-1.65,1.05-4.27,0-7.26a22.09,22.09,0,0,0-5.47-1.8c-2.23,2.39,2,3.37,1.87,6.36-1.94.83-2.76,2.7-2.76,5.47-1.87-2-2.92.07-4.5.89-.74,3.37,1,4.34.9,7.26-5.15-.38-6.88,2.77-10,4.49-1.57-1.5.53-4,1.8-5.39,4.56,2.17,6.59-3.81,3.59-7.25-3.59.59-6.21,2.24-9,3.59-1.42-4.57,2.09-4.49-.9-8.16,6.73-.67,9.2-12.87,0-12.65-2.85,3.07,2.39,8.83-1.8,10.85-.74-2.24-3.21-2.84-4.56-4.56.75-3,5.76-5.16,2.77-9.06-4.64-1.12-5.32,4.94-8.23,2.77,1.27-3.36,6.43-2.69,7.25-6.36,1-3.36-3-1.79-3.58-3.66,2.09.3,1-2.62,2.69-2.7,1.79.6,2.47,2.4,2.76,4.49a16.69,16.69,0,0,0,5.39-1.79c1.35,1,1.13,3.81,3.67,3.66,1.42-2.84,2.84-1.49,4.49-2.76-1.57-4.12-5.54-4.34-1.8-10-1-.15-2.55.15-2.69-.89,3.22-.68-.9-4.27,4.49-3.6-.08-2.62.52-6-.9-7.26-5.91,3.82-10.55-.52-17.21,2.7.45,2.09,1.8,4.64,0,6.36-2.92-2.47-6,.67-10,0,.67,5.39.37,4.94-1.8,8.15,0,1.5,2.47.53,2.7,1.8-5.09,3.59-3.3,11.15,0,15.41a6.87,6.87,0,0,1-6.36,1.8c-1.13,2.85-.08,8.46-4.5,5.46.15,2.92-1.64,3.82-1,7.26,7.25-2.09,8.83,4.87,12.71.9-1.94,2.84-.3,3.89-1.79,6.36-1.57-1.57-5.62-1.05-6.36.9,2.69,1.34-.67,4-2.69,3.59,1.87,4.49,1,5.31,0,10,1.34,2.54,4.18-2,5.38.9-.15,3.21-.89,6.8,2.77,9.95-3.29-.9-1.27,3.59-1.87,5.46a6.63,6.63,0,0,1,2.77,1.79c2.92,1.13.67-2.91,3.59-1.79-2.54,2.39,2.25,1.57,2.76,3.59-3.43,3.82.53,12.42,6.29,12.72,1.8-3.29-.37-4.86,0-9.05,4.19,1.12,2.55-3.6,4.57-4.57a19.29,19.29,0,0,0,.9,8.16c6.36.3,4.41-6.81,2.69-9.95,3.44.07,2.63,1,5.46,0,1.19-2-1-3.22,3.67-2.77,1.65-6.81-4-6.36-5.46-9.95,1.11-1.28,3.14-1.72,5.46-1.8,1.65,1.72.07,2.25,0,4.49,8.22-1,4.86,9.65,11.75,10,2.32-1.2-.68-5.47.9-5.47,2.38,1,3.06,3.6,5.45,4.57,3.07-3.37-1.11-4.27.91-7.26,3.14,2,1.79,8.45,4.56,10.85-5-.82-7.56-2.92-10.92.9,1.42,5.61-2.56,5.91-1.8,10.93-3.15-.68-8.46,8.07-13.62,5.38.08,1.57,2.87,2.84,2.12,3.67,1.57,2.76,6.69-2.47,6.69,0v6.36c-9.55-1.65-2.87,4.93-8.48,4.49.82-6.59-3-7.26-.62-15.42-3.14-.45-6.67-1.34-10.7-.89,1.49,4.48-3.53,2.91-3.15,6.35.6,3.67,6.18,2.1,8,4.49.75,2.62-1.37,2.4-1,4.57,3.44,1.72,7.21,3.07,7.21,8.16,4.26-1.5,5.36,0,7.23,2.69,3.74-1.72.67-6.29,0-9.05,1.35-1.43,4.7-.68,4.56-3.6-3.52-.75-5.47-7.78-3.67-10.92-.6,4.56,5,2.92,7.26,4.56-1.65,2.32.37,2.77-.9,5.47,4.63.29,8.38-3.9,7.26-6.37-2.47-.67-1.8,1.8-3.59,1.8.88-4-3.07-3-2.77-6.36,2.24-.52,4.71-.75,4.56-3.59-.3-2.17-4.34-.52-3.67-3.67,1.2-1.2,4-.89,6.36-.89,2.1-5.17,5.39-9.13,8.16-13.55.3,5,3.14.37,5.46,0,.75,1.65,1.13,3.59,2.69,4.49-4.94,5.76-15.11,8.61-10,17.21a18.16,18.16,0,0,0,6.36-2.69c-.6-1.57-2.77-1.5-3.66-2.69,3.29-1,4.93-3.6,6.36-6.37,1.8,1.2,2.09,3.9,4.56,4.49-2.62-4-.67-8.75,0-11.75a4.32,4.32,0,0,1,2.69.9c-.75-5.61,3.22-6.43,5.47-9.05,2.92,4,7.48,6.36,8.15,12.64-1.34,1.65-4.71-1.64-4.56,2.77,1.73,1.72,3.67.6,4.56-.89.08,2.32.15,4.63,2.7,4.49-.08-2.25-1.72-2.85.9-3.6-.15,2.85,2.39,3,1.79,6.37-2.25-.15-4.34-.23-4.48,1.79,1.71.37,2.23,1.95,4.48,1.8.89-2.47,2.92-3.82,5.47-4.57,3.06.3,4.7,1.95,4.56,5.46-3.07.3-7.86-1.19-7.27,2.77,3.15,1.12,4.8-.22,7.27,1.13-2.25,2.32.82,7.49,0,7.49h5.39c1.27,0,1.12-1.72,5.46-1.13-.08-3.21-1.72-3.71.9-5.13-.74-2.24-4.12-1.78-3.6-5.29,4.42-.15,3.44,5.09,6.36,6.44-1.35.75-2,2.29-1.87,4.6,6-.07,3.6-7,4.57-10,2.47.6,2.94,3.83,6.15,3.68-1-4.79.21-4.86,3.39-2.76V163.2c-3.18,2.17-3.68-3.14-9.74-1.8.22-6.36-4-7.7-5.81-10.92-1.05-1.95-1.07-4-2-7.26-3.51-12.42-13.32-21.55-9.13-30.83.22,1.27,1.23,1.79.85,3.66,13.32.23,15.54,13.33,8.13,20.88,2-.15.37,3.22.89,4.49,3.44,1.35.15-4,3.59-2.69-1.43,4,.89,7,4.55,5.46,1.43,4.71,3.08,10.55,1.8,15.34,4-.9,3,3.07,6.36,2.77,1.43-1.87,2.1-4.56,5.47-4.56,2.54,1,1.12,3.59,4.48,1.79a20.37,20.37,0,0,1,1.8,5.46c3-.6,8.54,3.07,10.93.9-3.9,2.17.67,11.3,0,12.72-3.45.67-4.35-1.12-7.26-.9-1.58,1.43-1.2,4.87-2.7,6.36-2.17.31.45-4.19-2.77-2.76-3.51,2.69,3,5.38.9,6.36-4-.6-5.68-.9-8.15,3.59.22-2.55.15-4.94-2.7-4.49-.52,2.17,1.13,6.58-.89,7.26.52-5.17-5.84.59-7.26-3.67,1.94-.75,3.21-2.17,2.68-5.39-2.39-.3-3.14-2.32-5.37-2.77-4.41.45-3.1,6.89-4.83,10-1.42-.07,6.61-2.32-2.94-1.87v4.56c0,1.8,5.26-.22,5.64,1.8-1,2.62-2.57,3-5.26,1.79-1.5,5.09,2.3,5,2.76,8.16,1.72.9,3.1-2.69,3.7,0,1.12,4-4.33,3.74-1.86,6.36,5.08.75,5.92,1.5,8.16,1.8a4.49,4.49,0,0,1-2.68,2.77c-2.25-3.14-3.75-2.62-6.37,0-.74-4.42-6.21-4-4.48-10.93-4,0-6-1.87-9.13-2.69-.38-2.17,1.72-1.95,1-4.49-2.32-1.35-4.11-3.22-7.26-3.67-.3,3.74,1.5,7-2.77,10,.6-4.8-5.38-3-6.36-6.29,1.2-2.85-2.62-5,0-6.29,4-.29,2.47,5.47,1.87,5.47h5.39c.67,0-.9-5,4.56-4.56-1-5.1-4.48-7.68-10-8.2.08,2.24,1.73,2.82-.89,3.57-2.77-.82-7.11,1.34-7.26,0,1.42-1.87,4.34-2.25,6.28-3.6-2.76-5.53,2.7-3.44,2.78-8.15-8.16.3-9,6.58-15.42,3.59.14,4.11,5.24,3.21,4.49,8.15-3.6-.6-2.17,3.82-5.39,3.67-.3-2.69,3.59-3.37,0-4.56.37,2.84-1.95,2.91-4.57,2.69-1.05-2.92.45-9.65-5.46-9.95,2.32,7.4-3.29,6.95-3.58,11.82,4.18.9,5.45-1.2,8.15-1.87-.31,2.09,2.62,1.05,2.69,2.77-1.57,1.64-2.24-.75-5.39,0-1.71,3.14-2.87,7.85,1,7.25-1.66,2.74-5.31,7.27-8.5,5.56v4.4c0,3.06,4.57-.15,7.33,3.59-1.11,1.57-6.24.07-6.24,2.77,2.16,2.84-2.38,7.1-5,8.15-1.49-.9-2.16-2.84-2.91-4.56a6.9,6.9,0,0,0-6.46,1.87c-.23-1.65.84-4.56-1.86-3.67-3.66,1.5-4.74,5.54-7.28,8.16-.22-6.51,2.9-9.73,7.24-11.75-.07-2.17-3.9-5.16-.9-7.26.15,1.05-.15,2.55.89,2.7-.22-3.07-.3-4.05.9-9.06-7.11,2.47-7.71,6.59-15.41,9.06-.46,2.84,3.14,2.39.89,4.56-4.56-1.42-1.87-4.56-3.59-8.15,1.72-.23,1.95,1,3.59.89-.15-3.82-4.26-2.76-7.25-1.87-1.51,2.85,3.36,3.74.89,4.57-1.72-3.22-4.49-.68-8.15-.9-.3-3.67,1.65-5,.89-9.06a5.31,5.31,0,0,0,3.67-.9c1.8.6-.61,5.4,2.7,4.5,2.09-2.55,1.87-3.45,3.66-7.26-4.11-.53-4.79-.45-7.26-3.59-2.54,2.24-4.12,5.61-7.26,7.25-.75-3.22-5.76-2.77-8.15-1.79.6-2.25-2.92-4-1.8-5.46,1,.15,2,1.57,2.7,0-1.35-.75-1.35-2.92-1.8-4.57-3.37-1-2.92,1.95-4.56,2.77.44-3.81.07-6.73-2.7-7.26,2.4-2.54,1.95,1.05,4.49.9,4.57-3.67,7-9.36,13.62-10.93,2.61.45,2.85,3.22,6.36,2.77,1.27-4.64-4.19-2.47-3.67-6.36-1.64-.22-2,1.05-3.58.9-1.51-2.77-3.83-4.64-4.58-8.15-6.05-1.28-6.8,2-9.94,3.69-5.46-7.11-14,8.59-14.52,11.78H65.36c-3,0,.07,9.4-5.39,8.13,1.35,7.18.31,8.29.9,14.05,4.35-1.12,4.49-6.22,10-6.15.67-3.36-3.45-1.83-3.6-4.45,3.74.07.3-6.31,1.8-6.23,2.76.22,7-1,7.25,1.82-2,5.54,1.72,9.37,6.37,10.87a4.67,4.67,0,0,1-2.78,2.77c-1.72-.45-2.24-1.94-4.48-1.87-2,1.13-2.18,3.89-6.36,2.77-.15,7-2.4,11.33-3.67,15.67-1.65-1.57.74-2.37,0-2.37H59.07c-.82,0,.75.43,1.8,1.47-1,1.35-1.12,2.23-2.69,3,1-4.41-1.5-6-3.67-7.11,2.32-1.65,3.44-4.79,4.56-7.64-3.81-2.54-.82-1.75-.89-6.54-5.1-.83-6.81,1.55-8.24,4.47,5.24,6.51-3,13.05,2.78,18.06-2.78,0-4.65.79-5.47,2.74,1.57,1.35-.9,3.88,1.8,5.38,5.16,0,4.49-5.39,10-2.7,1.65-2.84,5.16-3.9,5.39-8.16,1.79,3.59.07,10.84,4.57,11.75-2,1.64-2.18,4.63-.91,7.25,3.38,1,2.55-2.24,5.39-1.79-3.28,2.62-.14,4.41,2.77,5.46-.89,1.2-3.07,1.12-3.66,2.69-3.9-1.79-6.73-4.11-10.86,0-2-2.46,5.09-6.28-.89-8.15-.9,1.79-1.58,3.89-3.66,4.56-1.28-2-2.4-4.26-6.29-3.66.75,2.54-1.27,2.31-1,4.56,3.67.23,6.81-2.7,6.37,2.69-2.4-1.49-7.42.6-8.16,3.67,5.39-.22,4.11,2,3.66,6.29,4.34,1.34,1.87-2.38,5.4-1.86.52,2.92-.6,8.09-.9,8.09h4.56c1.72-9.55-.82-11.76,4.49-14.45-.3,3.59-1.94,5-2.7,8.19,5.31.14,5-5.68,9.06-6.8-.89,5.23,9.87,4.87,10.93,2.56,1.72,1.64.22,3.18,0,5.27,2.31-.3,2.46-2.9,6.28-1.85.75-5.24-1.12-8-2.69-10.88-4.42.53-6.66-1.21-7.26-4.57,1.72-.15,2,1,3.67.89-1.06-4.79-1.06-8.76,5.38-8.16.9-4.42.52-5.32,1.87-10-2.24.15-4.41.15-4.56-1.79,1.27-.23,1.49-1.5,2.69-1.8,2.17.53,1.5,3.89,5.46,2.7,1.2-4-4.33-3.74-1.79-6.36,2.32,3.06,5,.89,8.15,0-1.42,5.61,3.3,5.16,3.6,9.05-2.33,1.64-7.49.37-8.16,3.66,2.17,2.4-.52,4.12.89,7.26,2.78,1.13,4.65-3.14,5.47-.9-2.24,4.95-3.07,10-9.05,9.06,2,2.77,3.51,5.31,2.69,8.16-1.42-1.28-2.25-3.22-5.39-2.77.15,4.11,4.84,5.68,6.56,8.15-3.37,1.2-7,1-7,1.87v2.7c0,1.35,1.9.89.63,4.56,1.72,2.32,3.16-3.52,4.43.9-.61,1.2-2.46,1.65-4.11,1.79-4.27-1.19-4.46-6.66-11.19-5.46a6.12,6.12,0,0,1-4.62,5.46c-1.33-.14-.87-2.16-1-3.66-4.49-.37-.48,2.77-2.72,3.66-3-4.56-.47-8.37,2.67-12.71-2.17-.46-1.88-3.52-5.39-2.7-.9,3.37-7.79,2.92-7.27,10-.3-4.86-10.4.15-9.95-5.39-2.25-.37-2,1.65-4.57.9-1.57,1.72-1,5.62-2.69,7.26-1-1.42-2.62-2.24-2.77-4.56,3.14-1.58,1-3.22-.9-4.57,3.29-5.76,6.88-11.29,9.06-18.1-5,4-7.41-3.07-14.45,3.66-.15,2.17-.15,4.34.9,5.39,3.89,1.2,2.84-2.54,4.49-3.59,1.5,2.92-.52,4.71-3.59,5.46,3.44,6.13-5.09,5.76-2.77,13.54,2.1,2,6.87-2.84,8.81.9-1.72,1.64-3.91,1.95-3.91,2.77v-2.77c-6.36-.34-5.81,0-6.54.55,1.75-2.73-.59-7.32-3.86-8.7-3.38,3.59-.92,3.51-.85,9.05a3,3,0,0,1-4.08,0c-.53,3.74-2,6.66-4.78,8.23-1.57-3-6.45-4.34-7.2-1.28,0-1.79-1.68,3-1.16-6.58H5.57c1.5,9.55-4.41,3.74-5.47,5.76-.82,5,3.38,6.14,5.47,8.23-4.34,4.42-.52,10-.9,14.15C4.52,291.67,2.28,292,1.9,294c-.52,3.44,1.8,9.76,2.77,9.76H8.26c.38,0,3.22-4.79,5.47-6.81,1.94,4.19,4.94.6,7.26,2,.36,2.17-4.12-.41-2.78,2.89.08,1.11,1.2,1.25,1,2.75,2.62,2.09,3.36-.76,4.49,1-1.8,2.09-2.09,1.36-1.8,10.91h5.47c-.46-9.55-2.47-3.93-2.77-6.4,2.17.3,3.74,1.33,5.46-.47.67-4-1.2-5.62-.9-9.28,4.72,3.21,1.72-4.39,5.46-4.62-2.54,5.69,6.44,7.35,1.8,12.59,5-1.12,1.65,6.18,7.26,4.53-1.13-5.83,4.49-7,3.59-10,2.16,1.28.56,1.86,3.4.89,1.87-6.28,13.35-7,13.35-10v-5.39c0,2.25,7.9,4.12,11.12,1.79-.23-2.76-1.36-4-2.19-6.35,3.9,1.41.15-5,4-3.6.44-4-1.13-4.49.15-7.26-4.42,1.65-5.77,6.21-10.78,7.26-.53-1.35-1.31-2.32-1.84-3.66,2.7-5.84,9.3-4.79,15.43-5.39.08,3-.36,6.36,2.78,6.28,3.22-1-1.71-6,.91-6.28,2.25,3.29.82,4.71,2.69,8.15,1.72.15,2-1,3.67-.89-.22-1.73-2.39-6.06,0-7.26,1.35.15.82,2.17.9,3.59,3.44-.15,2.39-4.26,6.29-1.8,1.2-3.89-4.2-6-.91-9.05,1.66,1.35,2.18,6.21,6,5.39-1.27-7.34,0,1,9.58-2.69v-3.6c0-.14-5.69.3-6-1,2.17-3,5-1.2,7.89-6.29,2.32.75,4.28,2.24,7.58,1.94,2.39-4.41-3.5-8,.39-8h6.28c.38,0,1.87,5,5.47,5.25-2.4,1.65-3.82,4.79,0,5.84a65.39,65.39,0,0,1,2.68-6.62c2.86-.37,2.4,2.34,4.58,2.64.07-4.71.89-4.55-.91-7.32.91,0,1.06-.78,1.8-.93,3.74.82,6.29,2.75,7.27,6.35,5.9.3,16,7.76,17.2,12.63-2.84-1.35-7-1.35-7.25-5.47-2.78-.67-1.73,2.55-4.5,1.87-.82-4-3.22-2.24-5.45-.9.36-4.33-1.36-6.59-1.8-10-2.93-.75-2.85,1.41-4.57,1.86-.67,2.77,3.14,1.05,1.8,4.49-1.28-.37-1.5-1-2.7,0,.07,4.65-1.57,7.49-.89,12.73,3.22.44,4.93,2.32,7.25,3.59a17.12,17.12,0,0,1,3.59-5.39c1.8.67,3.29,3.14,1.87,4.49-1.34-.45-2.32-1.35-3.66-1.8,1,7-3.29,4.64-8.16,4.49-1.57,1.57-2.54,4.12,0,5.47a52.14,52.14,0,0,1,6.36-.9c-.75,2.92-3.29,4-4.56,6.36,6.36-.37,9.88-3.44,11.82-8.16,5.09,0,4.72-5.09,3.6-9,.89,0,1.12-.75,1.87-.9,7.63,6.21,18.11,9.58,23.56,18.11-2,1-3.74,2.32-7.25,1.79.29-2.76-3-1.87-4.57-2.69-2.84,2.92,3.43,4.11,3.12,7.26-3.52.6-3.24,0-3.24.89v6.36c0,1.2,4.88,2.48,1.45,5.39-1.5-1.49-3.51-3.66-6.58-3.59-.22,1.88-3-1.34-3.25,1.8,2.32-.38,3.92,4.11,1.52,5.46-2.47-3.14-1.34-3.74-4.63-5.46,1-2.92,4.95-2.84,5.32-6.36-.83-5.84-5.42-3.6-7.29-7.26,1.87-1.12,1.63-4.34,5.45-3.59-3.9-4.72-.53-7.49-1.81-10.93-3.45,2.92-8.84,3.89-8.16,10.93,2.24,1.2,2.84-3.59,3.58-.9-2.76-.07-.89,4.56-3.59,4.49-1-1.65-1.11-4.34-4.56-3.59-1.35,1.65,0,8.72-1.8,10-1.2-.6-1.72-.95-1.79-.95h-5.46c-1.8,0,.37-.93.89.95-3.52-1.43-1.87.95-3.6,1.32-1.18-1.57-4.33-1.8-4.55-4.27,2.68-.67,5.54-1.46,6.35-4-3-1.57-11.75-2.26-7.25-8.32,2.47.3,1.64,3.73,3.58,4.48,2.11-.6,2.56-4.83,1-6.4-1.8-.3-1.8,1.17-2.77,1.76-.53-2.76-4-2.55-2.7-7.26,3.14.75,3.45-1.35,6.35-.9.69-3.67-2.9-3.15-1.87-7.27,1.43.38.84,2.85,3.67,1.8,1.13-5.39-6-2.33-5.45-7.26-2.85-.45-3.52,2-5.39,0,2,6.36-4.49,4-4.57,8.23a8.71,8.71,0,0,1,5.46,2.69c-1.34,1.95-1.8,4.87-3.67,6.36-2.31-.15-1.27-3.59-3.59-3.66-2.69,2.77-4.63,6.44-1.87,10-2.76.67-1.71.67-4.48,0-1,2.17-1.35,6.51-1.8,9.13-1.2-2.84-4-6.81-5.46-1.87-.23-2.92,1.56-3.82.9-7.26,4.33.82,8.08-2.1,6.36-4.49-3.67,3-7-1.87-11.3,1.8.38,2.09,6.88,1.19,6.88,2.69v2.77c-9.55.37-4.33-1.65-6.88-.9-1.19,2.24.85,4.34-1.17,4.49-1.64-2.77-7.53-4.42-9.63-1.8.52,1.27,3.23.15,3.31,1.8a5.7,5.7,0,0,1-1.95,2.77,5,5,0,0,1-3.66-1c0,3.66,3.48,3.81,5.35,5.46-1.5,3.29-2.56,5.61-2.71,8.15-3.37-2.62-1.73,1.35-2.7,1.8-1.28-2.62-3.15-4.71-4.57-7.19,1.19,0,1.26,1.13,2.76.9,1.58-5.31-3.74-3.59-4.56-6.35,1.49-1.8,2.47-4.19,5.46-4.57.68-2.77-2.54-1.72-1.87-4.49,2.1-1,5.54-.6,7.25-1.87,0-5.09-6.36.38-3.58-5.39-6.52-.22-5.92,2.32-10.86,0C80,282.25,80,286.21,79,289.21c2.09,1,7.1,5.31,2.76,7.26-1.64-2.4-3.14-4.79-6.35-5.46,0,2.17-1.58,2.69-.9,5.46,3.14,1,6.51,1.94,5.38,7.25,6.14,1.5,3.82,5.77,10,7.26-.15,1.94-2.32,1.94-4.56,1.79-1.8-2.76-4.27-6.58-8.16-4.55-.9,1.71,2.69,3.06,0,3.66-4,0-4.19-1.35-6.35.89.21,3.53,1,3.9,2.68,7.27-3.44.75-4.19,4.19-5.39,7.25,2.25.53,6.29,3.89,4.5,5.39-2.39-2.69-6.73-3.52-9.06-6.29.67-5.31,5.84-10.32,5.47-13.62-4.42,1.88-7.48-3.51-10.85-.89,1.57,2.62.89,10.78-3.67,11.75-.83-3.52,3.51-3.74.9-6.36-3.44-1.28-1.73,2.54-4.49,1.86.07-4.78,1.2-5.83-1.87-8.15-.6,1.2-1.87,1.64-3.6,1.79.08,7.64-3,12.13-8.15,14.52.15,4.12,1.87,6.51,2.69,9.95,1.72.23,2-1,3.67-.89,4,3.74,1.27,9,6.28,10.85,1-3.22-4.49-8.75,1-10.85,0,2.39-.53,5.31,1.8,5.46,4.33-1.72-.91-8.91,2.69-10,.74,1.05.51,2.47.22,4.57C60,335.9,64,337,64,339v3.67c0-1.87-1.64,1.27-5.61.89.83,5.4-3.63,5.09-3.32,10,2.24,1.19,4.58-2,4.73,0-1.94.75.38,5.76-1.7,6.36-1.13-1.05-3.18-1.05-5.43-.9-.45,2.92-4.54,6.43-.87,8.15-4.12,2.25-4.64,9.81-4.57,13.55,2.4-.9,4.13-3.44,3.68,1.87a5.83,5.83,0,0,0,4.5-.9c.67-3.66-3.82-2.24-3.6-5.46,1-2.55,4.65-7.4,6.37-6.36-3.59,5.76-1.5,14.89,1.79,19.08,4.56.3,4.12-4.34,7.26-5.46-1.94,6.36.67,10.33,3.6,14.21,3.43-3.14,2.91-8,.89-11.21h4.56c-1,0,3.07-4.5,2.7-8.76-.83-2-6.07-4-4.49-5.31,4.42,1.64,7.63,2.76,10.85,1.94,1.27-2.69-2.62-7,1.8-9,.74,1.72,3.21,3.22,4.56,1.8.74-3.81-2.47-3.57-3.67-5.45,2.92-1.34,3.22-5.23,5.46-7.25,3.74,2.47,2.62,6.29,3.6,9.95,4.63.68,4.56-3.28,8.23-3.59-.08,2.78,1.86,3.52,2.69,5.47-1.35-1.35-2.91-.75-2.69,1.79,1.86,1.43,3.66,2.92,6.28,3.59,1.5-1.79,2.47-4.19,5.47-4.49,2.39,3.67-1.2,8.17,1.79,12.65-2.46,1.72-.15,3.07-1.79,4.57-1.35-1.43-4.65-.83-7.26-.9.37,5.68.52,10.84-2.7,13.61-2.69.23-2.77-2.09-5.46-1.87-1.13,3,2.92.75,1.8,3.67-2.09,1.65-8.31-2-9.06,2.7,1.35.15.83,2.16.9,3.66,2.47,1.43,4.42-1,4.56,3.59-2.62-2.16-6.28.45-7.25,2.7,1.19,1,2.69,1.49,3.58,2.77-1.27,5.75-3.31,12.26-2,15.42,7.33-2.85,8-12.28,8-18.19v3.66c9.55.52,3.77,11.3,10.13,12.65-.31-6.06.4-12.72,2.94-12.72h4.49c2.54-9.55,5.16-10.55.89-14.44,1.36-.23,1.58-2.4,2.77-2.69.3,3.82,4.64,3.36,6.36,5.84-2.39,6,1.5,16.53-3.67,21.54-.15,2.92,2.4,3,1.8,6.24,2.1,1.27,3.45-2.36,3.67-.05-1.57,2.78,1,9.25,3.59,10.83.22-1.28,2-1,2.76-1.81-1.63-8.76,2.18-13.41-1.87-20.89,3.83.22,3.83-3.45,7.27-3.6-1.05,4.42,3.59,3.07,3.67,6.36a6,6,0,0,0-4.57.9,32.58,32.58,0,0,0,5.46,11.74,35.2,35.2,0,0,0-3.66,8.16c1.72,1.43,2.17,4,3.66,5.46-4,1.2-.15,10.18-5.46,10,.67,3.66-.83,5.24-.9,8.15,6.14-1.27,6.14,9,9.95,12.72a16.2,16.2,0,0,0,2.77-9.95c-1.79-.9-3.89-1.57-4.56-3.66.9-1.2,1.5-2.69,2.69-3.6-.44,2.33-1.49,3.52,1.87,3.6,1.87-.23.23-4,1.8-4.49-.83-1-3.37-.3-2.7-2.77a43.75,43.75,0,0,0,7.27-7.19c1.56,2.25,1.34,6.51,6.28,5.39,1.2-3.67,1.27-7.7,2-11.75-1.8-3-6.22.31-6.22-2.76v-2.7c9.55-.74,6.15-4.26,8.91-6.36-1.41,4.49,2.18,4.26,4,5.46,0,1.8-2.28,1.13-1.6,3.6,5.24,1.49,5.11,4.11,5.56,9.12,2.55-.82,2.36,1.28,4.61.9.74-4.11,4.66-4.11,4.51-10.92-3.38.67-5.82,1.27-7.25-1.8,5.77-.9,1.13-4,1.8-5.45,1.65.81,2.33,2.53,5.47,1.86,1.5-4.57-3.14-2.92-2.7-6.35,4.57-4.5,14-9,18.12-10.93-1.13,6.73-10.63,9.95-10,15.42,10.47-4.28,10.85-18.71,22.67-21.71,9.8,13.55,31.73,19.38,37.11,34.42,16.84,13.54,7.19,43.78,12.73,66.14,2.16,8.84,5,16.16,6.36,23.58,4.26,23.79,1.57,48.86,4.48,73.48-4.27,5.91-1.34,15.42-4.48,23.57-11.3,1.49,10.84.82,23.49,0-4.49-2.62-4-10.7-.83-14.51-4-13.26,4-22.68-3.66-37.19-.37-1.35-1.12.37-2.69,0a19.46,19.46,0,0,1,.89-8.16c2.1,5.23,2-.38,6.37,0,1,18.85,1.42,24.76,3.59,39.89-2.39-.61-1.72,1.87-2.7,2.68,4,4.27,3.45,9.59,2.85,17,2.69-.22,4.41-.45,4.41-.67-2.32-41.09-6.66-86.28-2.77-126.9,2.25-22.76,14-43.19,17.29-60.7,1-5.46,10.55-19.38,12.64-24.47,1.43.08.75,2.26,2.78,1.8a16.49,16.49,0,0,1,3.58-5.47q-.22,3,2.7,2.7c-.3-5-2-7,4.56-9.05-1.42-5.61,4.12-4.27,3.6-9-3.37-1-3.07,4-4.49,0,4.94-2.63,7.93-2.7,13.61-5.46,2.55,6.21,12.5,4.63,15.41,1.87.53-3-.67-4.27-1-6.37,2.16-2.17,3-5.46,7.25-5.46,1.43,2.17,1.43,3.37,4.57,1.8-.23,2.09.22,3.44,1.79,3.66a2.49,2.49,0,0,1,2.77-1.79c1.65,1.57-1.27,2.76,1.8,3.59,2.09-6,16.91.6,18.1-6.36,1.73.37.75,3.52,3.6,2.77,2.62-7.19-4.49-7.56-7.19-11.82.23-1.88,2.4-1.8,2.7-3.6-3.07.6-3.3-1.57-3.66-3.66,1.19-7.56,6.8-8,10.91-10.85,3.37,1.49,6.67,2.32,4.49,7.25,3.82.15,2.85-4.48,7.26-3.66-.07-3.07-.21-6.28,1.87-7.26,4.57,2.1,5.32,3.67,6.29,8.16-7.34,3.37,1.65,13.17-2.69,22.67,8.08,3.44,21.25,1.72,29,5.46,5.17-3.29,1.06-12.42-5.46-9.05-1.94-5-9.57-4.27-9.05-11.83,4.41-.07,6.66,1.95,10.85.9-1.8,3.22,3.07,6.28,3.66,10,2.78.6,2.63-1.57,5.4-.9-.46,5.09-.9,7.56,3.66,9.05.15-1,1-1.42,1.8-1.79-.67-2.69-3.14-3.52-2.69-7.26,3.51.82,3.21-2.17,4.48-5.46,2.1,1.57,2.1,5.16,5.47,5.46,3.59-3.22-1.72-5.31,1.79-9.13-2.55-1-4.49-2.69-3.59-7.18-3.44-1.35-1.72,2.47-4.57,1.79a27.67,27.67,0,0,1-3.58-8.15c-.83,2.17-5.17.37-5.46-.9,2.39.23,3.89-.37,3.59-2.77-5.17.68-7.64-1.42-10-3.59.83-1.94,1.43-4,2.77-5.46-4.48-2.39-6.35,2.54-9.13,4.56-.75-1.64-3.67-1.19-2.69-4.56-3.89,2.47-3.52-1.72-6.36-2.7-1.42,1.57-.45,5.62-2.69,6.37-.9-3.59-4.12-1.2-4.57.89-1.2-2.76-.22-3.21-.89-7.26-7,.38-9.21-9.2-4.5-12.72,5.09,2.4,4.64,4.94,6.29,10,3.59.6,1.12-4.94,5.46-3.6.45-2.84-1.64-3.21-.89-6.36,1.56.83,2.61,2.92,4.56.9,1.19-4-2.17-3.29-2.77-5.39,1-2.69,1.95-5.38,4.56-6.35.15,3.36,1.65,4,4.49,2.69,1,3.66-.29,5,0,9.95,5.32-.6,5.47,9,10.93,10.92,3.07-4.34-1.35-8.9-2.78-11.82,2.33,4.49,12,5,9.14,11.82,4-1.27,4.94-.37,4.48,4.5,3.67.67,2.25-3.82,5.47-3.6-4,7.34,1.57,15.12,8.16,17.21-.15-2.24.45-3.74,1.79-4.48,9.88,2.84,2.16,12.27,0,18.11,1.13,1,1.65,2.54,4.56,1.78.83-1.56.31-4.48,1.8-5.46,2.32.15,1.27,3.6,3.6,3.68,4.86-3.22-2.55-7.49,0-10.93a38.15,38.15,0,0,0,5.45,3.66c-.59,5.17.83,6.44-1.78,11.75,4.94,1.05,4.25-3.51,6.35-5.39,1.8,0,1.13,2.48,3.6,1.8,6.73-7.56-4-10.25-5.47-15.42,6,.83,3.67-6.65,8.15-7.25,1.8.37,1.66,2.62,4.57,1.79,2.1-3.29,4.49-1.34,6.36-5.38-1.12-.23-.6-1.05,0-1.87-2.24-1.35-6.73-.53-6.36-4.5,1.72-.22,2,1,3.59.9,1.94-4.56.9-6.14,1.87-9.05.75,7.78,5.31,9.2,14.51,9.05,2.33-1.19-.74-5.46.91-5.46,1.42.37.75,2.84,3.59,1.8,1-2.32,1.12-5.54.9-9.06-4.42-4.11-6.89.52-10.86-4.49-.74-4.11.3-6.43,0-9.05,1.36,1.05,3.68,1.12,4.5,2.69-3.74,1.65,2.09,6.14,4.56,7.26,3.45-1.72-.07-5.61.9-6.36,1.2-1.27,4-.9,6.36-.9-.15-2.77,2.16-5.16,0-7.25Z"/></g></g></g></svg>